<svg width="200" height="146" viewBox="0 0 200 146" fill="none" xmlns="http://www.w3.org/2000/svg">
<g clip-path="url(#clip0)">
<path d="M199.738 145.455H99.9752C99.9058 145.455 99.8392 145.427 99.7901 145.378C99.741 145.329 99.7134 145.262 99.7134 145.193C99.7134 145.124 99.741 145.057 99.7901 145.008C99.8392 144.959 99.9058 144.931 99.9752 144.931H199.738C199.808 144.931 199.874 144.959 199.923 145.008C199.972 145.057 200 145.124 200 145.193C200 145.262 199.972 145.329 199.923 145.378C199.874 145.427 199.808 145.455 199.738 145.455Z" fill="#CCCCCC"/>
<path d="M186.353 35.9536H186.132C185.855 35.9532 185.588 35.8428 185.392 35.6464C185.196 35.4501 185.085 35.1839 185.085 34.9062V26.589C185.085 26.3113 185.196 26.0451 185.392 25.8488C185.588 25.6524 185.855 25.542 186.132 25.5416H186.353C186.631 25.542 186.897 25.6524 187.094 25.8488C187.29 26.0451 187.401 26.3113 187.401 26.589V34.9062C187.401 35.1839 187.29 35.4501 187.094 35.6464C186.897 35.8428 186.631 35.9532 186.353 35.9536Z" fill="#E6E6E6"/>
<path d="M113.582 25.8035H113.36C113.083 25.8032 112.816 25.6927 112.62 25.4964C112.424 25.3 112.313 25.0338 112.313 24.7561V19.9418C112.313 19.6641 112.424 19.3979 112.62 19.2015C112.816 19.0052 113.083 18.8947 113.36 18.8944H113.582C113.859 18.8947 114.125 19.0052 114.322 19.2015C114.518 19.3979 114.629 19.6641 114.629 19.9418V24.7561C114.629 25.0338 114.518 25.3 114.322 25.4964C114.125 25.6927 113.859 25.8032 113.582 25.8035Z" fill="#E6E6E6"/>
<path d="M113.582 37.5259H113.36C113.083 37.5256 112.816 37.4151 112.62 37.2188C112.424 37.0224 112.313 36.7562 112.313 36.4785V31.6641C112.313 31.3864 112.424 31.1202 112.62 30.9238C112.816 30.7274 113.083 30.617 113.36 30.6167H113.582C113.859 30.617 114.125 30.7274 114.322 30.9238C114.518 31.1202 114.629 31.3864 114.629 31.6641V36.4785C114.629 36.7562 114.518 37.0224 114.322 37.2188C114.125 37.4151 113.859 37.5256 113.582 37.5259Z" fill="#E6E6E6"/>
<path d="M176.249 145.187H123.464C121.052 145.185 118.74 144.225 117.034 142.52C115.329 140.814 114.369 138.502 114.367 136.09V9.35955C114.369 6.94753 115.329 4.63508 117.034 2.92952C118.74 1.22396 121.052 0.264577 123.464 0.261848H176.249C178.661 0.264567 180.973 1.22394 182.679 2.9295C184.384 4.63506 185.344 6.94752 185.346 9.35955V136.09C185.344 138.502 184.384 140.814 182.679 142.52C180.973 144.225 178.661 145.185 176.249 145.187Z" fill="#F2F2F2"/>
<path d="M176.249 145.449H123.464C120.983 145.446 118.604 144.459 116.849 142.705C115.095 140.95 114.108 138.571 114.105 136.09V37.6759C113.94 37.7495 113.762 37.7876 113.581 37.7877H113.36C113.013 37.7873 112.68 37.6493 112.435 37.4038C112.189 37.1584 112.051 36.8256 112.051 36.4785V31.6641C112.051 31.3169 112.189 30.9842 112.435 30.7387C112.68 30.4933 113.013 30.3552 113.36 30.3548H113.581C113.762 30.355 113.94 30.3931 114.105 30.4667V25.9535C113.94 26.0271 113.762 26.0652 113.581 26.0653H113.36C113.013 26.0649 112.68 25.9269 112.435 25.6814C112.189 25.436 112.051 25.1032 112.051 24.7561V19.9418C112.051 19.5947 112.189 19.2619 112.435 19.0164C112.68 18.771 113.013 18.6329 113.36 18.6325H113.581C113.762 18.6327 113.94 18.6708 114.105 18.7444V9.35955C114.108 6.8781 115.095 4.4991 116.849 2.74445C118.604 0.989806 120.983 0.00281164 123.464 0H176.249C178.73 0.00279567 181.109 0.989782 182.864 2.74443C184.619 4.49908 185.606 6.87809 185.608 9.35955V25.3917C185.773 25.318 185.952 25.2799 186.132 25.2798H186.353C186.7 25.2802 187.033 25.4182 187.278 25.6637C187.524 25.9091 187.662 26.2419 187.662 26.589V34.9062C187.662 35.2533 187.524 35.586 187.278 35.8315C187.033 36.0769 186.7 36.215 186.353 36.2154H186.132C185.952 36.2153 185.773 36.1772 185.608 36.1035V136.09C185.606 138.571 184.619 140.95 182.864 142.705C181.109 144.459 178.73 145.446 176.249 145.449ZM114.629 36.4664V136.09C114.631 138.432 115.563 140.678 117.219 142.335C118.876 143.991 121.122 144.923 123.464 144.925H176.249C178.591 144.923 180.837 143.991 182.494 142.335C184.15 140.678 185.082 138.432 185.085 136.09V34.8936L185.544 35.4194C185.617 35.5041 185.707 35.5723 185.808 35.6192C185.91 35.6662 186.02 35.6909 186.132 35.6917H186.353C186.561 35.6915 186.761 35.6086 186.908 35.4614C187.056 35.3141 187.138 35.1144 187.139 34.9062V26.589C187.138 26.3808 187.056 26.1811 186.908 26.0338C186.761 25.8865 186.561 25.8037 186.353 25.8035H186.132C186.02 25.8043 185.91 25.829 185.808 25.8759C185.707 25.9229 185.617 25.9911 185.544 26.0758L185.085 26.6015V9.35955C185.082 7.01693 184.15 4.77102 182.494 3.11455C180.837 1.45807 178.591 0.526315 176.249 0.52369H123.464C121.122 0.526332 118.876 1.4581 117.219 3.11457C115.563 4.77104 114.631 7.01694 114.629 9.35955V19.9539L114.17 19.4287C114.097 19.3439 114.006 19.2758 113.905 19.2288C113.803 19.1818 113.693 19.1571 113.581 19.1562H113.36C113.152 19.1565 112.952 19.2393 112.805 19.3866C112.658 19.5338 112.575 19.7335 112.574 19.9418V24.7561C112.575 24.9644 112.658 25.164 112.805 25.3113C112.952 25.4586 113.152 25.5414 113.36 25.5416H113.581C113.693 25.5408 113.803 25.5161 113.905 25.4691C114.006 25.4221 114.097 25.3539 114.17 25.2692L114.629 24.744V31.6762L114.17 31.151C114.097 31.0662 114.006 30.9981 113.905 30.9511C113.803 30.9041 113.693 30.8793 113.581 30.8785H113.36C113.152 30.8787 112.952 30.9616 112.805 31.1088C112.658 31.2561 112.575 31.4558 112.574 31.6641V36.4785C112.575 36.6868 112.658 36.8865 112.805 37.0337C112.952 37.181 113.152 37.2638 113.36 37.2641H113.581C113.693 37.2632 113.803 37.2385 113.905 37.1915C114.006 37.1445 114.097 37.0764 114.17 36.9916L114.629 36.4664Z" fill="#CCCCCC"/>
<path d="M141.644 35.9536H127.209C124.997 35.9511 122.876 35.0711 121.312 33.5068C119.748 31.9426 118.868 29.8217 118.865 27.6094V10.8776C118.868 8.66536 119.748 6.54447 121.312 4.98021C122.876 3.41594 124.997 2.53605 127.209 2.53357H141.644C143.856 2.53605 145.977 3.41594 147.541 4.98021C149.105 6.54447 149.985 8.66536 149.988 10.8776V27.6094C149.985 29.8217 149.105 31.9426 147.541 33.5068C145.977 35.0711 143.856 35.9511 141.644 35.9536Z" fill="white"/>
<path d="M141.644 36.2154H127.209C124.928 36.2128 122.74 35.3053 121.127 33.6919C119.514 32.0785 118.606 29.8911 118.604 27.6094V10.8776C118.606 8.59594 119.514 6.4085 121.127 4.79515C122.74 3.1818 124.928 2.27429 127.209 2.27172H141.644C143.925 2.27429 146.113 3.1818 147.726 4.79515C149.339 6.4085 150.247 8.59594 150.25 10.8776V27.6094C150.247 29.8911 149.339 32.0785 147.726 33.6919C146.113 35.3053 143.925 36.2128 141.644 36.2154ZM127.209 2.79541C125.067 2.79783 123.012 3.65011 121.497 5.16529C119.982 6.68046 119.13 8.73479 119.127 10.8776V27.6094C119.13 29.7522 119.982 31.8066 121.497 33.3218C123.012 34.837 125.067 35.6893 127.209 35.6917H141.644C143.786 35.6893 145.841 34.837 147.356 33.3218C148.871 31.8066 149.723 29.7522 149.726 27.6094V10.8776C149.723 8.73479 148.871 6.68046 147.356 5.16529C145.841 3.65012 143.786 2.79783 141.644 2.79541L127.209 2.79541Z" fill="#CCCCCC"/>
<path d="M149.857 78.5962C153.753 78.5962 156.911 75.4376 156.911 71.5414C156.911 67.6452 153.753 64.4866 149.857 64.4866C145.96 64.4866 142.802 67.6452 142.802 71.5414C142.802 75.4376 145.96 78.5962 149.857 78.5962Z" fill="#BFBFBF"/>
<path d="M127.677 15.7223C130.108 15.7223 132.079 13.7517 132.079 11.3208C132.079 8.8899 130.108 6.91927 127.677 6.91927C125.247 6.91927 123.276 8.8899 123.276 11.3208C123.276 13.7517 125.247 15.7223 127.677 15.7223Z" fill="#2F2E41"/>
<path d="M127.677 31.5678C130.108 31.5678 132.079 29.5972 132.079 27.1663C132.079 24.7354 130.108 22.7648 127.677 22.7648C125.247 22.7648 123.276 24.7354 123.276 27.1663C123.276 29.5972 125.247 31.5678 127.677 31.5678Z" fill="#2F2E41"/>
<path d="M141.175 23.5663C143.606 23.5663 145.577 21.5957 145.577 19.1648C145.577 16.7339 143.606 14.7633 141.175 14.7633C138.745 14.7633 136.774 16.7339 136.774 19.1648C136.774 21.5957 138.745 23.5663 141.175 23.5663Z" fill="#2F2E41"/>
<path d="M127.678 12.8613C128.529 12.8613 129.218 12.1716 129.218 11.3208C129.218 10.47 128.529 9.78027 127.678 9.78027C126.827 9.78027 126.137 10.47 126.137 11.3208C126.137 12.1716 126.827 12.8613 127.678 12.8613Z" fill="#B3B3B3"/>
<path d="M127.677 13.1232C127.321 13.1232 126.972 13.0175 126.676 12.8195C126.38 12.6214 126.149 12.3399 126.012 12.0106C125.876 11.6812 125.84 11.3188 125.91 10.9692C125.979 10.6195 126.151 10.2984 126.403 10.0463C126.655 9.79424 126.976 9.62257 127.326 9.55301C127.675 9.48346 128.038 9.51914 128.367 9.65556C128.697 9.79197 128.978 10.023 129.176 10.3194C129.374 10.6158 129.48 10.9642 129.48 11.3207C129.479 11.7986 129.289 12.2568 128.951 12.5947C128.613 12.9326 128.155 13.1227 127.677 13.1232ZM127.677 10.0421C127.425 10.0421 127.177 10.1171 126.967 10.2576C126.757 10.3981 126.593 10.5978 126.496 10.8315C126.399 11.0651 126.374 11.3222 126.423 11.5703C126.473 11.8183 126.594 12.0462 126.773 12.225C126.952 12.4039 127.18 12.5256 127.428 12.575C127.676 12.6243 127.933 12.599 128.167 12.5022C128.4 12.4054 128.6 12.2415 128.741 12.0312C128.881 11.8209 128.956 11.5736 128.956 11.3207C128.956 10.9817 128.821 10.6567 128.581 10.417C128.341 10.1773 128.016 10.0424 127.677 10.0421Z" fill="#E6E6E6"/>
<path d="M141.175 20.7053C142.026 20.7053 142.716 20.0156 142.716 19.1648C142.716 18.314 142.026 17.6243 141.175 17.6243C140.324 17.6243 139.635 18.314 139.635 19.1648C139.635 20.0156 140.324 20.7053 141.175 20.7053Z" fill="#B3B3B3"/>
<path d="M141.176 20.9672C140.819 20.9672 140.471 20.8615 140.174 20.6635C139.878 20.4654 139.647 20.1839 139.51 19.8546C139.374 19.5252 139.338 19.1628 139.408 18.8132C139.477 18.4636 139.649 18.1424 139.901 17.8903C140.153 17.6382 140.474 17.4666 140.824 17.397C141.173 17.3275 141.536 17.3632 141.865 17.4996C142.195 17.636 142.476 17.867 142.674 18.1634C142.872 18.4598 142.978 18.8083 142.978 19.1647C142.977 19.6426 142.787 20.1008 142.449 20.4387C142.112 20.7766 141.653 20.9667 141.176 20.9672ZM141.176 17.8861C140.923 17.8861 140.675 17.9611 140.465 18.1016C140.255 18.2421 140.091 18.4418 139.994 18.6755C139.897 18.9091 139.872 19.1662 139.921 19.4143C139.971 19.6623 140.092 19.8902 140.271 20.069C140.45 20.2479 140.678 20.3696 140.926 20.419C141.174 20.4683 141.431 20.443 141.665 20.3462C141.899 20.2494 142.098 20.0855 142.239 19.8752C142.379 19.6649 142.454 19.4177 142.454 19.1647C142.454 18.8257 142.319 18.5007 142.079 18.261C141.84 18.0213 141.515 17.8864 141.176 17.8861V17.8861Z" fill="#E6E6E6"/>
<path d="M127.678 28.7068C128.529 28.7068 129.218 28.0171 129.218 27.1663C129.218 26.3155 128.529 25.6258 127.678 25.6258C126.827 25.6258 126.137 26.3155 126.137 27.1663C126.137 28.0171 126.827 28.7068 127.678 28.7068Z" fill="#B3B3B3"/>
<path d="M127.677 28.9687C127.321 28.9687 126.972 28.863 126.676 28.665C126.38 28.4669 126.149 28.1854 126.012 27.8561C125.876 27.5267 125.84 27.1643 125.91 26.8147C125.979 26.4651 126.151 26.1439 126.403 25.8918C126.655 25.6398 126.976 25.4681 127.326 25.3985C127.675 25.329 128.038 25.3647 128.367 25.5011C128.696 25.6375 128.978 25.8685 129.176 26.1649C129.374 26.4613 129.48 26.8098 129.48 27.1662C129.479 27.6441 129.289 28.1023 128.951 28.4402C128.613 28.7781 128.155 28.9682 127.677 28.9687ZM127.677 25.8876C127.425 25.8876 127.177 25.9626 126.967 26.1031C126.757 26.2436 126.593 26.4433 126.496 26.677C126.399 26.9106 126.374 27.1677 126.423 27.4158C126.473 27.6638 126.594 27.8917 126.773 28.0705C126.952 28.2494 127.18 28.3711 127.428 28.4205C127.676 28.4698 127.933 28.4445 128.167 28.3477C128.4 28.2509 128.6 28.087 128.741 27.8767C128.881 27.6664 128.956 27.4192 128.956 27.1662C128.956 26.8272 128.821 26.5022 128.581 26.2625C128.341 26.0228 128.016 25.8879 127.677 25.8876Z" fill="#E6E6E6"/>
<path d="M81.8187 47.4097L62.8737 76.8995C62.8111 76.997 62.7299 77.0812 62.6348 77.1474C62.5396 77.2135 62.4324 77.2602 62.3192 77.2849C62.2061 77.3096 62.0891 77.3117 61.9751 77.2912C61.8611 77.2707 61.7522 77.2279 61.6547 77.1653L61.6542 77.165L11.5933 45.0045C11.5575 44.9819 11.5237 44.9563 11.4923 44.9279C11.332 44.789 11.2272 44.5971 11.197 44.3872C11.1668 44.1773 11.2132 43.9635 11.3279 43.7851L30.273 14.2953C30.3355 14.1978 30.4167 14.1136 30.5118 14.0474C30.607 13.9813 30.7142 13.9346 30.8274 13.9099C30.9405 13.8852 31.0575 13.8831 31.1715 13.9036C31.2855 13.9241 31.3944 13.9669 31.4919 14.0295L31.4924 14.0298L81.5532 46.1903C81.6507 46.2528 81.7349 46.334 81.8011 46.4291C81.8672 46.5243 81.9139 46.6315 81.9386 46.7447C81.9633 46.8579 81.9654 46.9748 81.9449 47.0888C81.9244 47.2028 81.8816 47.3117 81.819 47.4092L81.8187 47.4097Z" fill="#E6E6E6"/>
<path d="M36.2888 40.422C40.5645 40.422 44.0307 36.9559 44.0307 32.6801C44.0307 28.4044 40.5645 24.9383 36.2888 24.9383C32.013 24.9383 28.5469 28.4044 28.5469 32.6801C28.5469 36.9559 32.013 40.422 36.2888 40.422Z" fill="#BFBFBF"/>
<path d="M43.8194 65.8747L11.8658 45.3468C11.8254 45.3216 11.7875 45.2928 11.7524 45.2606L43.682 28.7922C43.879 28.6884 44.1 28.6388 44.3224 28.6484C44.5448 28.6579 44.7607 28.7264 44.948 28.8467C45.1353 28.9671 45.2874 29.135 45.3885 29.3333C45.4897 29.5316 45.5364 29.7532 45.5239 29.9755L44.3809 54.0582L44.3268 55.211L43.8194 65.8747Z" fill="#3F3D56"/>
<path opacity="0.2" d="M43.8199 65.8747L32.9102 58.8659L43.2632 54.5274L44.0087 54.2147L44.3813 54.0582L44.3274 55.2111L43.8199 65.8747Z" fill="black"/>
<path d="M61.6114 77.3045L33.9741 59.5496L44.3272 55.211L45.0726 54.8982L58.5642 49.2438C59.4485 48.8733 60.5758 49.539 60.7408 50.4651C60.7515 50.5279 60.7582 50.5913 60.7608 50.655L61.6114 77.3045Z" fill="#3F3D56"/>
<path d="M88.4234 46.1175C88.5686 45.4814 88.5144 44.8161 88.2682 44.2119C88.022 43.6077 87.5957 43.094 87.0473 42.7406L32.0128 7.38485C31.6627 7.15972 31.2716 7.00581 30.8619 6.93189C30.4523 6.85797 30.0321 6.86549 29.6254 6.95404C29.2186 7.04259 28.8334 7.21043 28.4915 7.44795C28.1497 7.68548 27.858 7.98804 27.6331 8.33834L0.501636 50.5711C0.048499 51.2787 -0.105591 52.1371 0.0731459 52.958C0.251883 53.779 0.74886 54.4956 1.45513 54.9508L56.4897 90.3065C57.1972 90.7596 58.0556 90.9137 58.8766 90.735C59.6976 90.5563 60.4142 90.0593 60.8693 89.353L88.0008 47.1202C88.1989 46.813 88.3419 46.4737 88.4234 46.1175ZM60.5556 89.1515C60.1541 89.7748 59.5218 90.2134 58.7974 90.3711C58.0729 90.5288 57.3155 90.3928 56.6912 89.9928L1.65667 54.6371C1.03337 54.2356 0.594767 53.6033 0.43705 52.8788C0.279333 52.1544 0.415385 51.3969 0.815362 50.7727L27.9469 8.53988C28.3484 7.91658 28.9807 7.47798 29.7051 7.32026C30.4296 7.16254 31.187 7.29859 31.8112 7.69857L86.8458 43.0543C87.4691 43.4558 87.9077 44.0881 88.0654 44.8125C88.2231 45.537 88.0871 46.2944 87.6871 46.9187L60.5556 89.1515Z" fill="#3F3D56"/>
<path d="M86.612 59.5142C86.3904 58.9005 85.9852 58.3701 85.4515 57.9948C84.9178 57.6195 84.2815 57.4177 83.6291 57.4167H18.2163C17.8 57.4166 17.3878 57.4985 17.0032 57.6577C16.6186 57.8169 16.2692 58.0503 15.9748 58.3447C15.6805 58.639 15.447 58.9885 15.2878 59.3731C15.1286 59.7577 15.0467 60.1699 15.0469 60.5862V110.783C15.0481 111.623 15.3824 112.429 15.9765 113.023C16.5706 113.617 17.3761 113.951 18.2163 113.952H83.6291C84.4693 113.951 85.2747 113.617 85.8689 113.023C86.463 112.429 86.7973 111.623 86.7985 110.783V60.5862C86.7991 60.2207 86.736 59.858 86.612 59.5142Z" fill="white"/>
<path d="M86.612 59.5142C86.3904 58.9005 85.9852 58.3701 85.4515 57.9948C84.9178 57.6195 84.2815 57.4177 83.6291 57.4167H18.2163C17.8 57.4166 17.3878 57.4985 17.0032 57.6577C16.6186 57.8169 16.2692 58.0503 15.9748 58.3447C15.6805 58.639 15.447 58.9885 15.2878 59.3731C15.1286 59.7577 15.0467 60.1699 15.0469 60.5862V110.783C15.0481 111.623 15.3824 112.429 15.9765 113.023C16.5706 113.617 17.3761 113.951 18.2163 113.952H83.6291C84.4693 113.951 85.2747 113.617 85.8689 113.023C86.463 112.429 86.7973 111.623 86.7985 110.783V60.5862C86.7991 60.2207 86.736 59.858 86.612 59.5142ZM86.4256 110.783C86.4247 111.524 86.1298 112.235 85.6055 112.76C85.0813 113.284 84.3705 113.579 83.6291 113.58H18.2163C17.4749 113.579 16.7641 113.284 16.2398 112.76C15.7156 112.235 15.4207 111.524 15.4198 110.783V60.5862C15.4207 59.8448 15.7156 59.134 16.2398 58.6097C16.7641 58.0854 17.4749 57.7905 18.2163 57.7896H83.6291C84.3705 57.7905 85.0813 58.0854 85.6055 58.6097C86.1298 59.134 86.4247 59.8448 86.4256 60.5862V110.783Z" fill="#3F3D56"/>
<path d="M81.7539 64.1712V99.2222C81.7539 99.338 81.7311 99.4527 81.6868 99.5598C81.6425 99.6668 81.5776 99.7641 81.4957 99.846C81.4138 99.928 81.3166 99.993 81.2096 100.037C81.1026 100.082 80.9879 100.105 80.872 100.105H21.3702C21.3279 100.105 21.2856 100.102 21.2438 100.095C21.0339 100.065 20.8419 99.9597 20.7031 99.7994C20.5642 99.6392 20.4878 99.4342 20.4878 99.2222V64.1712C20.4878 64.0554 20.5105 63.9407 20.5548 63.8336C20.5991 63.7266 20.6641 63.6293 20.746 63.5474C20.8279 63.4654 20.9251 63.4004 21.0321 63.356C21.1391 63.3117 21.2538 63.2888 21.3696 63.2888H80.8714C80.9873 63.2887 81.102 63.3115 81.209 63.3558C81.3161 63.4001 81.4133 63.4651 81.4953 63.5469C81.5772 63.6288 81.6422 63.7261 81.6866 63.8331C81.731 63.9401 81.7538 64.0548 81.7539 64.1706V64.1712Z" fill="#E6E6E6"/>
<path d="M35.4865 84.1294C39.7622 84.1294 43.2284 80.6632 43.2284 76.3875C43.2284 72.1118 39.7622 68.6456 35.4865 68.6456C31.2108 68.6456 27.7446 72.1118 27.7446 76.3875C27.7446 80.6632 31.2108 84.1294 35.4865 84.1294Z" fill="#BFBFBF"/>
<path d="M59.7639 100.245H21.7845C21.7369 100.246 21.6894 100.242 21.6426 100.234L39.6051 69.1203C39.7147 68.9265 39.8738 68.7653 40.0661 68.6532C40.2584 68.541 40.4771 68.4819 40.6997 68.4819C40.9223 68.4819 41.141 68.541 41.3333 68.6532C41.5256 68.7653 41.6847 68.9265 41.7943 69.1203L53.8494 89.9999L54.427 90.999L59.7639 100.245Z" fill="#3F3D56"/>
<path opacity="0.2" d="M59.764 100.245H46.7969L53.1623 90.9989L53.6206 90.3331L53.8497 90L54.427 90.9989L59.764 100.245Z" fill="black"/>
<path d="M80.9105 100.245H48.0615L54.427 90.999L54.8851 90.333L63.1799 78.2835C63.7237 77.4938 65.0319 77.4446 65.6713 78.1346C65.7143 78.1816 65.7541 78.2314 65.7908 78.2835L80.9105 100.245Z" fill="#3F3D56"/>
<path d="M86.612 59.5142C86.3904 58.9005 85.9852 58.3701 85.4515 57.9948C84.9178 57.6195 84.2815 57.4177 83.6291 57.4167H18.2163C17.8 57.4166 17.3878 57.4985 17.0032 57.6577C16.6186 57.8169 16.2692 58.0503 15.9748 58.3447C15.6805 58.639 15.447 58.9885 15.2878 59.3731C15.1286 59.7577 15.0467 60.1699 15.0469 60.5862V110.783C15.0481 111.623 15.3824 112.429 15.9765 113.023C16.5706 113.617 17.3761 113.951 18.2163 113.952H83.6291C84.4693 113.951 85.2747 113.617 85.8689 113.023C86.463 112.429 86.7973 111.623 86.7985 110.783V60.5862C86.7991 60.2207 86.736 59.858 86.612 59.5142ZM86.4256 110.783C86.4247 111.524 86.1298 112.235 85.6055 112.76C85.0813 113.284 84.3705 113.579 83.6291 113.58H18.2163C17.4749 113.579 16.7641 113.284 16.2398 112.76C15.7156 112.235 15.4207 111.524 15.4198 110.783V60.5862C15.4207 59.8448 15.7156 59.134 16.2398 58.6097C16.7641 58.0854 17.4749 57.7905 18.2163 57.7896H83.6291C84.3705 57.7905 85.0813 58.0854 85.6055 58.6097C86.1298 59.134 86.4247 59.8448 86.4256 60.5862V110.783Z" fill="#3F3D56"/>
</g>
<defs>
<clipPath id="clip0">
<rect width="200" height="145.455" fill="white"/>
</clipPath>
</defs>
</svg>
