<svg width="88" height="84" viewBox="0 0 88 84" fill="none" xmlns="http://www.w3.org/2000/svg">
<g filter="url(#filter0_d)">
<ellipse cx="44" cy="38" rx="40" ry="38" fill="#3E3D3D"/>
</g>
<path d="M22.1836 49.8926H19.5703V57H17.8125V49.8926H15.2344V48.4688H22.1836V49.8926ZM25.4707 57.1172C24.541 57.1172 23.7832 56.832 23.1973 56.2617C22.6152 55.6914 22.3242 54.9316 22.3242 53.9824V53.8184C22.3242 53.1816 22.4473 52.6133 22.6934 52.1133C22.9395 51.6094 23.2871 51.2227 23.7363 50.9531C24.1895 50.6797 24.7051 50.543 25.2832 50.543C26.1504 50.543 26.832 50.8164 27.3281 51.3633C27.8281 51.9102 28.0781 52.6855 28.0781 53.6895V54.3809H24.041C24.0957 54.7949 24.2598 55.127 24.5332 55.377C24.8105 55.627 25.1602 55.752 25.582 55.752C26.2344 55.752 26.7441 55.5156 27.1113 55.043L27.9434 55.9746C27.6895 56.334 27.3457 56.6152 26.9121 56.8184C26.4785 57.0176 25.998 57.1172 25.4707 57.1172ZM25.2773 51.9141C24.9414 51.9141 24.668 52.0273 24.457 52.2539C24.25 52.4805 24.1172 52.8047 24.0586 53.2266H26.4141V53.0918C26.4062 52.7168 26.3047 52.4277 26.1094 52.2246C25.9141 52.0176 25.6367 51.9141 25.2773 51.9141ZM30.6328 50.6602L30.6855 51.3691C31.1348 50.8184 31.7422 50.543 32.5078 50.543C33.3242 50.543 33.8848 50.8652 34.1895 51.5098C34.6348 50.8652 35.2695 50.543 36.0938 50.543C36.7812 50.543 37.293 50.7441 37.6289 51.1465C37.9648 51.5449 38.1328 52.1465 38.1328 52.9512V57H36.4336V52.957C36.4336 52.5977 36.3633 52.3359 36.2227 52.1719C36.082 52.0039 35.834 51.9199 35.4785 51.9199C34.9707 51.9199 34.6191 52.1621 34.4238 52.6465L34.4297 57H32.7363V52.9629C32.7363 52.5957 32.6641 52.3301 32.5195 52.166C32.375 52.002 32.1289 51.9199 31.7812 51.9199C31.3008 51.9199 30.9531 52.1191 30.7383 52.5176V57H29.0449V50.6602H30.6328ZM45.1465 53.8887C45.1465 54.8652 44.9238 55.6484 44.4785 56.2383C44.0371 56.8242 43.4395 57.1172 42.6855 57.1172C42.0449 57.1172 41.5273 56.8945 41.1328 56.4492V59.4375H39.4395V50.6602H41.0098L41.0684 51.2812C41.4785 50.7891 42.0137 50.543 42.6738 50.543C43.4551 50.543 44.0625 50.832 44.4961 51.4102C44.9297 51.9883 45.1465 52.7852 45.1465 53.8008V53.8887ZM43.4531 53.7656C43.4531 53.1758 43.3477 52.7207 43.1367 52.4004C42.9297 52.0801 42.627 51.9199 42.2285 51.9199C41.6973 51.9199 41.332 52.123 41.1328 52.5293V55.125C41.3398 55.543 41.709 55.752 42.2402 55.752C43.0488 55.752 43.4531 55.0898 43.4531 53.7656ZM47.9883 57H46.2891V48H47.9883V57ZM53.0625 57C52.9844 56.8477 52.9277 56.6582 52.8926 56.4316C52.4824 56.8887 51.9492 57.1172 51.293 57.1172C50.6719 57.1172 50.1562 56.9375 49.7461 56.5781C49.3398 56.2188 49.1367 55.7656 49.1367 55.2188C49.1367 54.5469 49.3848 54.0312 49.8809 53.6719C50.3809 53.3125 51.1016 53.1309 52.043 53.127H52.8223V52.7637C52.8223 52.4707 52.7461 52.2363 52.5938 52.0605C52.4453 51.8848 52.209 51.7969 51.8848 51.7969C51.5996 51.7969 51.375 51.8652 51.2109 52.002C51.0508 52.1387 50.9707 52.3262 50.9707 52.5645H49.2773C49.2773 52.1973 49.3906 51.8574 49.6172 51.5449C49.8438 51.2324 50.1641 50.9883 50.5781 50.8125C50.9922 50.6328 51.457 50.543 51.9727 50.543C52.7539 50.543 53.373 50.7402 53.8301 51.1348C54.291 51.5254 54.5215 52.0762 54.5215 52.7871V55.5352C54.5254 56.1367 54.6094 56.5918 54.7734 56.9004V57H53.0625ZM51.6621 55.8223C51.9121 55.8223 52.1426 55.7676 52.3535 55.6582C52.5645 55.5449 52.7207 55.3945 52.8223 55.207V54.1172H52.1895C51.3418 54.1172 50.8906 54.4102 50.8359 54.9961L50.8301 55.0957C50.8301 55.3066 50.9043 55.4805 51.0527 55.6172C51.2012 55.7539 51.4043 55.8223 51.6621 55.8223ZM57.8496 49.1016V50.6602H58.9336V51.9023H57.8496V55.0664C57.8496 55.3008 57.8945 55.4688 57.9844 55.5703C58.0742 55.6719 58.2461 55.7227 58.5 55.7227C58.6875 55.7227 58.8535 55.709 58.998 55.6816V56.9648C58.666 57.0664 58.3242 57.1172 57.9727 57.1172C56.7852 57.1172 56.1797 56.5176 56.1562 55.3184V51.9023H55.2305V50.6602H56.1562V49.1016H57.8496ZM62.7949 57.1172C61.8652 57.1172 61.1074 56.832 60.5215 56.2617C59.9395 55.6914 59.6484 54.9316 59.6484 53.9824V53.8184C59.6484 53.1816 59.7715 52.6133 60.0176 52.1133C60.2637 51.6094 60.6113 51.2227 61.0605 50.9531C61.5137 50.6797 62.0293 50.543 62.6074 50.543C63.4746 50.543 64.1562 50.8164 64.6523 51.3633C65.1523 51.9102 65.4023 52.6855 65.4023 53.6895V54.3809H61.3652C61.4199 54.7949 61.584 55.127 61.8574 55.377C62.1348 55.627 62.4844 55.752 62.9062 55.752C63.5586 55.752 64.0684 55.5156 64.4355 55.043L65.2676 55.9746C65.0137 56.334 64.6699 56.6152 64.2363 56.8184C63.8027 57.0176 63.3223 57.1172 62.7949 57.1172ZM62.6016 51.9141C62.2656 51.9141 61.9922 52.0273 61.7812 52.2539C61.5742 52.4805 61.4414 52.8047 61.3828 53.2266H63.7383V53.0918C63.7305 52.7168 63.6289 52.4277 63.4336 52.2246C63.2383 52.0176 62.9609 51.9141 62.6016 51.9141ZM69.8027 55.248C69.8027 55.041 69.6992 54.8789 69.4922 54.7617C69.2891 54.6406 68.9609 54.5332 68.5078 54.4395C67 54.123 66.2461 53.4824 66.2461 52.5176C66.2461 51.9551 66.4785 51.4863 66.9434 51.1113C67.4121 50.7324 68.0234 50.543 68.7773 50.543C69.582 50.543 70.2246 50.7324 70.7051 51.1113C71.1895 51.4902 71.4316 51.9824 71.4316 52.5879H69.7383C69.7383 52.3457 69.6602 52.1465 69.5039 51.9902C69.3477 51.8301 69.1035 51.75 68.7715 51.75C68.4863 51.75 68.2656 51.8145 68.1094 51.9434C67.9531 52.0723 67.875 52.2363 67.875 52.4355C67.875 52.623 67.9629 52.7754 68.1387 52.8926C68.3184 53.0059 68.6191 53.1055 69.041 53.1914C69.4629 53.2734 69.8184 53.3672 70.1074 53.4727C71.002 53.8008 71.4492 54.3691 71.4492 55.1777C71.4492 55.7559 71.2012 56.2246 70.7051 56.584C70.209 56.9395 69.5684 57.1172 68.7832 57.1172C68.252 57.1172 67.7793 57.0234 67.3652 56.8359C66.9551 56.6445 66.6328 56.3848 66.3984 56.0566C66.1641 55.7246 66.0469 55.3672 66.0469 54.9844H67.6523C67.668 55.2852 67.7793 55.5156 67.9863 55.6758C68.1934 55.8359 68.4707 55.916 68.8184 55.916C69.1426 55.916 69.3867 55.8555 69.5508 55.7344C69.7188 55.6094 69.8027 55.4473 69.8027 55.248Z" fill="white"/>
<path d="M52.9375 21.0625V24.4375H36.0625V21.0625H52.9375ZM52.9375 19.375H36.0625C35.6149 19.375 35.1857 19.5528 34.8693 19.8693C34.5528 20.1857 34.375 20.6149 34.375 21.0625V24.4375C34.375 24.8851 34.5528 25.3143 34.8693 25.6307C35.1857 25.9472 35.6149 26.125 36.0625 26.125H52.9375C53.3851 26.125 53.8143 25.9472 54.1307 25.6307C54.4472 25.3143 54.625 24.8851 54.625 24.4375V21.0625C54.625 20.6149 54.4472 20.1857 54.1307 19.8693C53.8143 19.5528 53.3851 19.375 52.9375 19.375Z" fill="white"/>
<path d="M39.4375 29.5V37.9375H36.0625V29.5H39.4375ZM39.4375 27.8125H36.0625C35.6149 27.8125 35.1857 27.9903 34.8693 28.3068C34.5528 28.6232 34.375 29.0524 34.375 29.5V37.9375C34.375 38.3851 34.5528 38.8143 34.8693 39.1307C35.1857 39.4472 35.6149 39.625 36.0625 39.625H39.4375C39.8851 39.625 40.3143 39.4472 40.6307 39.1307C40.9472 38.8143 41.125 38.3851 41.125 37.9375V29.5C41.125 29.0524 40.9472 28.6232 40.6307 28.3068C40.3143 27.9903 39.8851 27.8125 39.4375 27.8125Z" fill="white"/>
<path d="M52.9375 29.5V37.9375H44.5V29.5H52.9375ZM52.9375 27.8125H44.5C44.0524 27.8125 43.6232 27.9903 43.3068 28.3068C42.9903 28.6232 42.8125 29.0524 42.8125 29.5V37.9375C42.8125 38.3851 42.9903 38.8143 43.3068 39.1307C43.6232 39.4472 44.0524 39.625 44.5 39.625H52.9375C53.3851 39.625 53.8143 39.4472 54.1307 39.1307C54.4472 38.8143 54.625 38.3851 54.625 37.9375V29.5C54.625 29.0524 54.4472 28.6232 54.1307 28.3068C53.8143 27.9903 53.3851 27.8125 52.9375 27.8125Z" fill="white"/>
<defs>
<filter id="filter0_d" x="0" y="0" width="88" height="84" filterUnits="userSpaceOnUse" color-interpolation-filters="sRGB">
<feFlood flood-opacity="0" result="BackgroundImageFix"/>
<feColorMatrix in="SourceAlpha" type="matrix" values="0 0 0 0 0 0 0 0 0 0 0 0 0 0 0 0 0 0 127 0"/>
<feOffset dy="4"/>
<feGaussianBlur stdDeviation="2"/>
<feColorMatrix type="matrix" values="0 0 0 0 0 0 0 0 0 0 0 0 0 0 0 0 0 0 0.25 0"/>
<feBlend mode="normal" in2="BackgroundImageFix" result="effect1_dropShadow"/>
<feBlend mode="normal" in="SourceGraphic" in2="effect1_dropShadow" result="shape"/>
</filter>
</defs>
</svg>
