<svg width="88" height="84" viewBox="0 0 88 84" fill="none" xmlns="http://www.w3.org/2000/svg">
<g filter="url(#filter0_d)">
<ellipse cx="44" cy="38" rx="40" ry="38" fill="#3E3D3D"/>
</g>
<path d="M38 28C39.1046 28 40 27.1046 40 26C40 24.8954 39.1046 24 38 24C36.8954 24 36 24.8954 36 26C36 27.1046 36.8954 28 38 28Z" fill="white"/>
<path d="M44 25C45.1046 25 46 24.1046 46 23C46 21.8954 45.1046 21 44 21C42.8954 21 42 21.8954 42 23C42 24.1046 42.8954 25 44 25Z" fill="white"/>
<path d="M50 28C51.1046 28 52 27.1046 52 26C52 24.8954 51.1046 24 50 24C48.8954 24 48 24.8954 48 26C48 27.1046 48.8954 28 50 28Z" fill="white"/>
<path d="M51 34C52.1046 34 53 33.1046 53 32C53 30.8954 52.1046 30 51 30C49.8954 30 49 30.8954 49 32C49 33.1046 49.8954 34 51 34Z" fill="white"/>
<path d="M47 39C48.1046 39 49 38.1046 49 37C49 35.8954 48.1046 35 47 35C45.8954 35 45 35.8954 45 37C45 38.1046 45.8954 39 47 39Z" fill="white"/>
<path d="M44.54 16C42.6566 15.9273 40.7778 16.2357 39.0165 16.9066C37.2551 17.5775 35.6473 18.5973 34.2895 19.9046C32.9318 21.2119 31.852 22.78 31.1149 24.5147C30.3778 26.2494 29.9986 28.1152 30 30C30 30.7413 30.1709 31.4727 30.4995 32.1372C30.8282 32.8017 31.3057 33.3814 31.8949 33.8313C32.4841 34.2812 33.1691 34.5891 33.8967 34.7311C34.6243 34.8731 35.3749 34.8453 36.09 34.65L37.21 34.34C37.6555 34.2184 38.1232 34.2013 38.5764 34.29C39.0296 34.3787 39.4563 34.5709 39.8231 34.8516C40.1898 35.1322 40.4869 35.4938 40.691 35.9081C40.8952 36.3223 41.0009 36.7782 41 37.24V41C41 41.7956 41.3161 42.5587 41.8787 43.1213C42.4413 43.6839 43.2044 44 44 44C45.8848 44.0014 47.7506 43.6222 49.4853 42.8851C51.22 42.148 52.7881 41.0682 54.0954 39.7105C55.4028 38.3527 56.4225 36.7449 57.0934 34.9835C57.7643 33.2222 58.0727 31.3434 58 29.46C57.8549 25.9367 56.3902 22.5967 53.8968 20.1033C51.4033 17.6098 48.0633 16.1451 44.54 16ZM52.65 38.31C51.5334 39.479 50.1909 40.409 48.7039 41.0433C47.217 41.6776 45.6166 42.0031 44 42C43.7348 42 43.4804 41.8946 43.2929 41.7071C43.1054 41.5196 43 41.2652 43 41V37.24C43 35.9139 42.4732 34.6421 41.5355 33.7045C40.5979 32.7668 39.3261 32.24 38 32.24C37.5507 32.2408 37.1034 32.3013 36.67 32.42L35.55 32.73C35.1317 32.8421 34.6932 32.8564 34.2684 32.7717C33.8437 32.687 33.4442 32.5056 33.1009 32.2416C32.7576 31.9776 32.4797 31.638 32.2888 31.2493C32.0979 30.8606 31.9991 30.4331 32 30C31.9988 28.3838 32.324 26.784 32.9563 25.2966C33.5885 23.8092 34.5147 22.4648 35.6792 21.3441C36.8438 20.2235 38.2227 19.3496 39.7333 18.7749C41.2439 18.2003 42.855 17.9367 44.47 18C47.4772 18.1566 50.3198 19.4217 52.4491 21.551C54.5783 23.6802 55.8434 26.5228 56 29.53C56.0688 31.146 55.8072 32.759 55.2312 34.2704C54.6552 35.7818 53.7769 37.1597 52.65 38.32V38.31Z" fill="white"/>
<path d="M34.459 58.1582C34.3926 59.0762 34.0527 59.7988 33.4395 60.3262C32.8301 60.8535 32.0254 61.1172 31.0254 61.1172C29.9316 61.1172 29.0703 60.75 28.4414 60.0156C27.8164 59.2773 27.5039 58.2656 27.5039 56.9805V56.459C27.5039 55.6387 27.6484 54.916 27.9375 54.291C28.2266 53.666 28.6387 53.1875 29.1738 52.8555C29.7129 52.5195 30.3379 52.3516 31.0488 52.3516C32.0332 52.3516 32.8262 52.6152 33.4277 53.1426C34.0293 53.6699 34.377 54.4102 34.4707 55.3633H32.7129C32.6699 54.8125 32.5156 54.4141 32.25 54.168C31.9883 53.918 31.5879 53.793 31.0488 53.793C30.4629 53.793 30.0234 54.0039 29.7305 54.4258C29.4414 54.8438 29.293 55.4941 29.2852 56.377V57.0215C29.2852 57.9434 29.4238 58.6172 29.7012 59.043C29.9824 59.4688 30.4238 59.6816 31.0254 59.6816C31.5684 59.6816 31.9727 59.5586 32.2383 59.3125C32.5078 59.0625 32.6621 58.6777 32.7012 58.1582H34.459ZM35.2383 57.7715C35.2383 57.1426 35.3594 56.582 35.6016 56.0898C35.8438 55.5977 36.1914 55.2168 36.6445 54.9473C37.1016 54.6777 37.6309 54.543 38.2324 54.543C39.0879 54.543 39.7852 54.8047 40.3242 55.3281C40.8672 55.8516 41.1699 56.5625 41.2324 57.4609L41.2441 57.8945C41.2441 58.8672 40.9727 59.6484 40.4297 60.2383C39.8867 60.8242 39.1582 61.1172 38.2441 61.1172C37.3301 61.1172 36.5996 60.8242 36.0527 60.2383C35.5098 59.6523 35.2383 58.8555 35.2383 57.8477V57.7715ZM36.9316 57.8945C36.9316 58.4961 37.0449 58.957 37.2715 59.2773C37.498 59.5938 37.8223 59.752 38.2441 59.752C38.6543 59.752 38.9746 59.5957 39.2051 59.2832C39.4355 58.9668 39.5508 58.4629 39.5508 57.7715C39.5508 57.1816 39.4355 56.7246 39.2051 56.4004C38.9746 56.0762 38.6504 55.9141 38.2324 55.9141C37.8184 55.9141 37.498 56.0762 37.2715 56.4004C37.0449 56.7207 36.9316 57.2188 36.9316 57.8945ZM44.0742 61H42.375V52H44.0742V61ZM45.2109 57.7715C45.2109 57.1426 45.332 56.582 45.5742 56.0898C45.8164 55.5977 46.1641 55.2168 46.6172 54.9473C47.0742 54.6777 47.6035 54.543 48.2051 54.543C49.0605 54.543 49.7578 54.8047 50.2969 55.3281C50.8398 55.8516 51.1426 56.5625 51.2051 57.4609L51.2168 57.8945C51.2168 58.8672 50.9453 59.6484 50.4023 60.2383C49.8594 60.8242 49.1309 61.1172 48.2168 61.1172C47.3027 61.1172 46.5723 60.8242 46.0254 60.2383C45.4824 59.6523 45.2109 58.8555 45.2109 57.8477V57.7715ZM46.9043 57.8945C46.9043 58.4961 47.0176 58.957 47.2441 59.2773C47.4707 59.5938 47.7949 59.752 48.2168 59.752C48.627 59.752 48.9473 59.5957 49.1777 59.2832C49.4082 58.9668 49.5234 58.4629 49.5234 57.7715C49.5234 57.1816 49.4082 56.7246 49.1777 56.4004C48.9473 56.0762 48.623 55.9141 48.2051 55.9141C47.791 55.9141 47.4707 56.0762 47.2441 56.4004C47.0176 56.7207 46.9043 57.2188 46.9043 57.8945ZM55.8223 56.248C55.5918 56.2168 55.3887 56.2012 55.2129 56.2012C54.5723 56.2012 54.1523 56.418 53.9531 56.8516V61H52.2598V54.6602H53.8594L53.9062 55.416C54.2461 54.834 54.7168 54.543 55.3184 54.543C55.5059 54.543 55.6816 54.5684 55.8457 54.6191L55.8223 56.248ZM60.0762 59.248C60.0762 59.041 59.9727 58.8789 59.7656 58.7617C59.5625 58.6406 59.2344 58.5332 58.7812 58.4395C57.2734 58.123 56.5195 57.4824 56.5195 56.5176C56.5195 55.9551 56.752 55.4863 57.2168 55.1113C57.6855 54.7324 58.2969 54.543 59.0508 54.543C59.8555 54.543 60.498 54.7324 60.9785 55.1113C61.4629 55.4902 61.7051 55.9824 61.7051 56.5879H60.0117C60.0117 56.3457 59.9336 56.1465 59.7773 55.9902C59.6211 55.8301 59.377 55.75 59.0449 55.75C58.7598 55.75 58.5391 55.8145 58.3828 55.9434C58.2266 56.0723 58.1484 56.2363 58.1484 56.4355C58.1484 56.623 58.2363 56.7754 58.4121 56.8926C58.5918 57.0059 58.8926 57.1055 59.3145 57.1914C59.7363 57.2734 60.0918 57.3672 60.3809 57.4727C61.2754 57.8008 61.7227 58.3691 61.7227 59.1777C61.7227 59.7559 61.4746 60.2246 60.9785 60.584C60.4824 60.9395 59.8418 61.1172 59.0566 61.1172C58.5254 61.1172 58.0527 61.0234 57.6387 60.8359C57.2285 60.6445 56.9062 60.3848 56.6719 60.0566C56.4375 59.7246 56.3203 59.3672 56.3203 58.9844H57.9258C57.9414 59.2852 58.0527 59.5156 58.2598 59.6758C58.4668 59.8359 58.7441 59.916 59.0918 59.916C59.416 59.916 59.6602 59.8555 59.8242 59.7344C59.9922 59.6094 60.0762 59.4473 60.0762 59.248Z" fill="white"/>
<defs>
<filter id="filter0_d" x="0" y="0" width="88" height="84" filterUnits="userSpaceOnUse" color-interpolation-filters="sRGB">
<feFlood flood-opacity="0" result="BackgroundImageFix"/>
<feColorMatrix in="SourceAlpha" type="matrix" values="0 0 0 0 0 0 0 0 0 0 0 0 0 0 0 0 0 0 127 0"/>
<feOffset dy="4"/>
<feGaussianBlur stdDeviation="2"/>
<feColorMatrix type="matrix" values="0 0 0 0 0 0 0 0 0 0 0 0 0 0 0 0 0 0 0.25 0"/>
<feBlend mode="normal" in2="BackgroundImageFix" result="effect1_dropShadow"/>
<feBlend mode="normal" in="SourceGraphic" in2="effect1_dropShadow" result="shape"/>
</filter>
</defs>
</svg>
