<svg width="88" height="84" viewBox="0 0 88 84" fill="none" xmlns="http://www.w3.org/2000/svg">
<g filter="url(#filter0_d)">
<ellipse cx="44" cy="38" rx="40" ry="38" fill="#3E3D3D"/>
</g>
<path d="M38.8945 57.6527H35.5195V59.9379H39.4805V61.35H33.7617V52.8188H39.4688V54.2426H35.5195V56.2758H38.8945V57.6527ZM40.0195 58.1332C40.0195 57.1449 40.2402 56.3578 40.6816 55.7719C41.127 55.1859 41.7344 54.893 42.5039 54.893C43.1211 54.893 43.6309 55.1234 44.0332 55.5844V52.35H45.7324V61.35H44.2031L44.1211 60.6762C43.6992 61.2035 43.1562 61.4672 42.4922 61.4672C41.7461 61.4672 41.1465 61.1742 40.6934 60.5883C40.2441 59.9984 40.0195 59.1801 40.0195 58.1332ZM41.7129 58.2563C41.7129 58.85 41.8164 59.3051 42.0234 59.6215C42.2305 59.9379 42.5312 60.0961 42.9258 60.0961C43.4492 60.0961 43.8184 59.8754 44.0332 59.434V56.932C43.8223 56.4906 43.457 56.2699 42.9375 56.2699C42.1211 56.2699 41.7129 56.932 41.7129 58.2563ZM48.832 61.35H47.1328V55.0102H48.832V61.35ZM47.0332 53.3695C47.0332 53.1156 47.1172 52.9066 47.2852 52.7426C47.457 52.5785 47.6895 52.4965 47.9824 52.4965C48.2715 52.4965 48.502 52.5785 48.6738 52.7426C48.8457 52.9066 48.9316 53.1156 48.9316 53.3695C48.9316 53.6273 48.8438 53.8383 48.668 54.0023C48.4961 54.1664 48.2676 54.2484 47.9824 54.2484C47.6973 54.2484 47.4668 54.1664 47.291 54.0023C47.1191 53.8383 47.0332 53.6273 47.0332 53.3695ZM52.2598 53.4516V55.0102H53.3438V56.2523H52.2598V59.4164C52.2598 59.6508 52.3047 59.8188 52.3945 59.9203C52.4844 60.0219 52.6562 60.0727 52.9102 60.0727C53.0977 60.0727 53.2637 60.059 53.4082 60.0316V61.3148C53.0762 61.4164 52.7344 61.4672 52.3828 61.4672C51.1953 61.4672 50.5898 60.8676 50.5664 59.6684V56.2523H49.6406V55.0102H50.5664V53.4516H52.2598Z" fill="white"/>
<path d="M56.4375 23.4688L52.5312 19.5625L36.9062 35.1875L35.3438 40.6562L40.8125 39.0938L56.4375 23.4688ZM49.4062 22.6875L53.3125 26.5938L49.4062 22.6875ZM36.9062 35.1875L40.8125 39.0938L36.9062 35.1875Z" stroke="white" stroke-width="2" stroke-linecap="round" stroke-linejoin="round"/>
<defs>
<filter id="filter0_d" x="0" y="0" width="88" height="84" filterUnits="userSpaceOnUse" color-interpolation-filters="sRGB">
<feFlood flood-opacity="0" result="BackgroundImageFix"/>
<feColorMatrix in="SourceAlpha" type="matrix" values="0 0 0 0 0 0 0 0 0 0 0 0 0 0 0 0 0 0 127 0"/>
<feOffset dy="4"/>
<feGaussianBlur stdDeviation="2"/>
<feColorMatrix type="matrix" values="0 0 0 0 0 0 0 0 0 0 0 0 0 0 0 0 0 0 0.25 0"/>
<feBlend mode="normal" in2="BackgroundImageFix" result="effect1_dropShadow"/>
<feBlend mode="normal" in="SourceGraphic" in2="effect1_dropShadow" result="shape"/>
</filter>
</defs>
</svg>
