<svg width="20" height="20" viewBox="0 0 20 20" fill="none" xmlns="http://www.w3.org/2000/svg">
<path d="M17.8447 5.55554H2.15577C1.87877 5.55554 1.61311 5.66558 1.41724 5.86145C1.22137 6.05732 1.11133 6.32298 1.11133 6.59999V16.7333C1.11133 17.0103 1.22137 17.276 1.41724 17.4719C1.61311 17.6677 1.87877 17.7778 2.15577 17.7778H17.8447C18.1217 17.7778 18.3873 17.6677 18.5832 17.4719C18.7791 17.276 18.8891 17.0103 18.8891 16.7333V6.59999C18.8891 6.32298 18.7791 6.05732 18.5832 5.86145C18.3873 5.66558 18.1217 5.55554 17.8447 5.55554ZM17.778 16.6667H2.22244V6.66665H17.778V16.6667Z" fill="black" fill-opacity="0.5"/>
<path d="M4.75554 10.8056C5.08517 10.8056 5.4074 10.7078 5.68149 10.5247C5.95557 10.3415 6.16919 10.0812 6.29534 9.7767C6.42148 9.47216 6.45449 9.13705 6.39018 8.81375C6.32587 8.49044 6.16713 8.19347 5.93405 7.96039C5.70096 7.7273 5.40399 7.56856 5.08069 7.50425C4.75738 7.43995 4.42227 7.47295 4.11773 7.5991C3.81319 7.72524 3.55289 7.93886 3.36975 8.21295C3.18662 8.48703 3.08887 8.80926 3.08887 9.1389C3.08887 9.58092 3.26446 10.0048 3.57702 10.3174C3.88958 10.63 4.31351 10.8056 4.75554 10.8056ZM4.75554 8.25001C4.93222 8.24559 5.10621 8.29394 5.25528 8.38889C5.40435 8.48384 5.52174 8.62107 5.59243 8.78305C5.66313 8.94504 5.68394 9.12442 5.65219 9.29829C5.62044 9.47215 5.53758 9.63261 5.4142 9.75915C5.29082 9.8857 5.13251 9.97259 4.95951 10.0087C4.7865 10.0449 4.60665 10.0286 4.44293 9.96203C4.2792 9.89546 4.13905 9.78159 4.04036 9.63497C3.94166 9.48835 3.88892 9.31564 3.88887 9.1389C3.8888 8.90695 3.97939 8.68416 4.14131 8.51809C4.30324 8.35201 4.52366 8.25581 4.75554 8.25001Z" fill="black" fill-opacity="0.5"/>
<path d="M4.38906 15.5556L7.72239 12.2222L9.48906 13.9889L7.9224 15.5556H9.03351L13.1779 11.4111L16.6668 14.8722V13.7611L13.4446 10.5556C13.3707 10.4823 13.2709 10.4412 13.1668 10.4412C13.0628 10.4412 12.9629 10.4823 12.8891 10.5556L10.0224 13.4222L7.98351 11.3889C7.90963 11.3156 7.80979 11.2745 7.70573 11.2745C7.60167 11.2745 7.50183 11.3156 7.42795 11.3889L3.28906 15.5556H4.38906Z" fill="black" fill-opacity="0.5"/>
<path d="M16.7445 1.66667C16.7445 1.51933 16.6859 1.37802 16.5817 1.27383C16.4776 1.16965 16.3363 1.11111 16.1889 1.11111H3.96669C3.81935 1.11111 3.67804 1.16965 3.57385 1.27383C3.46966 1.37802 3.41113 1.51933 3.41113 1.66667V2.22223H16.7445V1.66667Z" fill="black" fill-opacity="0.5"/>
<path d="M17.8446 3.8889C17.8446 3.74156 17.7861 3.60025 17.6819 3.49606C17.5777 3.39188 17.4364 3.33334 17.2891 3.33334H2.84462C2.69728 3.33334 2.55597 3.39188 2.45178 3.49606C2.34759 3.60025 2.28906 3.74156 2.28906 3.8889V4.44445H17.8446V3.8889Z" fill="black" fill-opacity="0.5"/>
</svg>
