<svg width="20" height="20" viewBox="0 0 20 20" fill="none" xmlns="http://www.w3.org/2000/svg">
<g clip-path="url(#clip0)">
<path d="M1.66683 15L5.8335 9.99999L8.3335 12.5L11.6668 8.33333L15.8335 13.3333M0.833496 0.833328H15.8335V15.8333H0.833496V0.833328ZM4.16683 15.8333V19.1667H19.1668V4.97499H15.8335L4.16683 15.8333ZM5.00016 6.66666C5.22118 6.66666 5.43314 6.57886 5.58942 6.42258C5.7457 6.2663 5.8335 6.05434 5.8335 5.83333C5.8335 5.61231 5.7457 5.40035 5.58942 5.24407C5.43314 5.08779 5.22118 4.99999 5.00016 4.99999C4.77915 4.99999 4.56719 5.08779 4.41091 5.24407C4.25463 5.40035 4.16683 5.61231 4.16683 5.83333C4.16683 6.05434 4.25463 6.2663 4.41091 6.42258C4.56719 6.57886 4.77915 6.66666 5.00016 6.66666Z" stroke="white" stroke-width="2"/>
</g>
<defs>
<clipPath id="clip0">
<rect width="20" height="20" fill="white"/>
</clipPath>
</defs>
</svg>
