<svg width="1333" height="196" viewBox="0 0 1333 196" fill="none" xmlns="http://www.w3.org/2000/svg">
<g filter="url(#filter0_i)">
<path d="M32.265 156.675C23.445 156.675 16.56 154.2 11.61 149.25C6.75 144.21 4.32 137.595 4.32 129.405C4.32 122.115 5.76 115.725 8.64 110.235C11.52 104.745 15.255 100.515 19.845 97.545C24.435 94.575 29.25 93.09 34.29 93.09C39.24 93.09 43.065 94.575 45.765 97.545C48.555 100.425 49.95 104.16 49.95 108.75C49.95 112.53 49.095 115.725 47.385 118.335C45.765 120.945 43.605 122.25 40.905 122.25C39.195 122.25 37.8 121.845 36.72 121.035C35.73 120.225 35.235 119.1 35.235 117.66C35.235 117.03 35.325 116.31 35.505 115.5C35.685 114.69 35.82 114.105 35.91 113.745C36.36 112.395 36.585 111.135 36.585 109.965C36.585 108.795 36.27 107.895 35.64 107.265C35.1 106.635 34.29 106.32 33.21 106.32C31.14 106.32 29.205 107.265 27.405 109.155C25.605 110.955 24.165 113.43 23.085 116.58C22.005 119.73 21.465 123.195 21.465 126.975C21.465 137.415 26.01 142.635 35.1 142.635C38.79 142.635 42.75 141.42 46.98 138.99C51.3 136.47 55.53 132.735 59.67 127.785C60.75 126.525 61.965 125.895 63.315 125.895C64.485 125.895 65.385 126.435 66.015 127.515C66.735 128.595 67.095 130.08 67.095 131.97C67.095 135.39 66.24 138.18 64.53 140.34C60.3 145.56 55.215 149.61 49.275 152.49C43.425 155.28 37.755 156.675 32.265 156.675ZM65.7671 156.675C62.3471 156.675 59.9171 154.875 58.4771 151.275C57.1271 147.675 56.4521 141.915 56.4521 133.995C56.4521 122.295 58.1171 111.18 61.4471 100.65C62.2571 98.04 63.5621 96.15 65.3621 94.98C67.2521 93.72 69.8621 93.09 73.1921 93.09C74.9921 93.09 76.2521 93.315 76.9721 93.765C77.6921 94.215 78.0521 95.07 78.0521 96.33C78.0521 97.77 77.3771 101.01 76.0271 106.05C75.1271 109.65 74.4071 112.8 73.8671 115.5C73.3271 118.2 72.8771 121.53 72.5172 125.49C75.4871 117.75 78.8171 111.45 82.5072 106.59C86.1971 101.73 89.7971 98.265 93.3072 96.195C96.9071 94.125 100.192 93.09 103.162 93.09C109.012 93.09 111.937 96.015 111.937 101.865C111.937 103.035 111.532 105.87 110.722 110.37C110.002 113.97 109.642 116.22 109.642 117.12C109.642 120.27 110.767 121.845 113.017 121.845C115.537 121.845 118.777 119.865 122.737 115.905C123.907 114.735 125.122 114.15 126.382 114.15C127.552 114.15 128.452 114.69 129.082 115.77C129.802 116.76 130.162 118.11 130.162 119.82C130.162 123.15 129.262 125.76 127.462 127.65C124.942 130.26 121.972 132.51 118.552 134.4C115.222 136.2 111.667 137.1 107.887 137.1C103.117 137.1 99.4722 135.885 96.9522 133.455C94.5222 131.025 93.3072 127.74 93.3072 123.6C93.3072 122.25 93.4421 120.9 93.7121 119.55C93.8921 117.75 93.9821 116.535 93.9821 115.905C93.9821 114.465 93.4871 113.745 92.4971 113.745C91.1471 113.745 89.3472 115.275 87.0971 118.335C84.9372 121.305 82.7772 125.265 80.6172 130.215C78.4572 135.165 76.7022 140.385 75.3522 145.875C74.3621 150.105 73.1921 152.985 71.8421 154.515C70.5821 155.955 68.5571 156.675 65.7671 156.675ZM177.828 125.895C178.998 125.895 179.898 126.435 180.528 127.515C181.248 128.595 181.608 130.08 181.608 131.97C181.608 135.57 180.753 138.36 179.043 140.34C175.713 144.39 170.988 148.125 164.868 151.545C158.838 154.965 152.358 156.675 145.428 156.675C135.978 156.675 128.643 154.11 123.423 148.98C118.203 143.85 115.593 136.83 115.593 127.92C115.593 121.71 116.898 115.95 119.508 110.64C122.118 105.24 125.718 100.965 130.308 97.815C134.988 94.665 140.253 93.09 146.103 93.09C151.323 93.09 155.508 94.665 158.658 97.815C161.808 100.875 163.383 105.06 163.383 110.37C163.383 116.58 161.133 121.935 156.633 126.435C152.223 130.845 144.708 134.355 134.088 136.965C136.338 141.105 140.613 143.175 146.913 143.175C150.963 143.175 155.553 141.78 160.683 138.99C165.903 136.11 170.403 132.375 174.183 127.785C175.263 126.525 176.478 125.895 177.828 125.895ZM143.808 106.32C140.478 106.32 137.643 108.255 135.303 112.125C133.053 115.995 131.928 120.675 131.928 126.165V126.435C137.238 125.175 141.423 123.285 144.483 120.765C147.543 118.245 149.073 115.32 149.073 111.99C149.073 110.28 148.578 108.93 147.588 107.94C146.688 106.86 145.428 106.32 143.808 106.32ZM186.562 156.675C180.982 156.675 176.527 154.65 173.197 150.6C169.867 146.55 168.202 141.24 168.202 134.67C168.202 127.47 169.867 120.675 173.197 114.285C176.527 107.805 180.937 102.63 186.427 98.76C192.007 94.8 197.902 92.82 204.112 92.82C206.092 92.82 207.397 93.225 208.027 94.035C208.747 94.755 209.332 96.105 209.782 98.085C211.672 97.725 213.652 97.545 215.722 97.545C220.132 97.545 222.337 99.12 222.337 102.27C222.337 104.16 221.662 108.66 220.312 115.77C218.242 126.12 217.207 133.32 217.207 137.37C217.207 138.72 217.522 139.8 218.152 140.61C218.872 141.42 219.772 141.825 220.852 141.825C222.562 141.825 224.632 140.745 227.062 138.585C229.492 136.335 232.777 132.735 236.917 127.785C237.997 126.525 239.212 125.895 240.562 125.895C241.732 125.895 242.632 126.435 243.262 127.515C243.982 128.595 244.342 130.08 244.342 131.97C244.342 135.57 243.487 138.36 241.777 140.34C238.087 144.93 234.172 148.8 230.032 151.95C225.892 155.1 221.887 156.675 218.017 156.675C215.047 156.675 212.302 155.685 209.782 153.705C207.352 151.635 205.507 148.845 204.247 145.335C199.567 152.895 193.672 156.675 186.562 156.675ZM191.422 143.04C193.402 143.04 195.292 141.87 197.092 139.53C198.892 137.19 200.197 134.085 201.007 130.215L206.002 105.375C202.222 105.465 198.712 106.905 195.472 109.695C192.322 112.395 189.802 115.995 187.912 120.495C186.022 124.995 185.077 129.765 185.077 134.805C185.077 137.595 185.617 139.665 186.697 141.015C187.867 142.365 189.442 143.04 191.422 143.04ZM293.58 125.895C294.75 125.895 295.65 126.435 296.28 127.515C297 128.595 297.36 130.08 297.36 131.97C297.36 135.57 296.505 138.36 294.795 140.34C290.925 145.11 286.695 149.025 282.105 152.085C277.515 155.145 272.25 156.675 266.31 156.675C247.95 156.675 238.77 143.76 238.77 117.93C238.77 113.97 238.905 109.965 239.175 105.915H233.91C231.21 105.915 229.365 105.42 228.375 104.43C227.475 103.44 227.025 101.865 227.025 99.705C227.025 94.665 229.05 92.145 233.1 92.145H240.795C242.325 82.245 244.665 73.2 247.815 65.01C250.965 56.82 254.745 50.295 259.155 45.435C263.655 40.575 268.47 38.145 273.6 38.145C277.38 38.145 280.35 39.81 282.51 43.14C284.67 46.47 285.75 50.655 285.75 55.695C285.75 69.645 279.9 81.795 268.2 92.145H283.32C284.76 92.145 285.795 92.46 286.425 93.09C287.055 93.72 287.37 94.89 287.37 96.6C287.37 102.81 282.285 105.915 272.115 105.915H255.645C255.465 110.415 255.375 113.925 255.375 116.445C255.375 125.805 256.455 132.375 258.615 136.155C260.865 139.935 264.375 141.825 269.145 141.825C273.015 141.825 276.435 140.655 279.405 138.315C282.375 135.975 285.885 132.465 289.935 127.785C291.015 126.525 292.23 125.895 293.58 125.895ZM269.955 51.105C268.605 51.105 267.075 52.815 265.365 56.235C263.745 59.565 262.17 64.245 260.64 70.275C259.2 76.215 257.985 82.83 256.995 90.12C262.305 85.53 266.265 80.4 268.875 74.73C271.575 68.97 272.925 63.75 272.925 59.07C272.925 53.76 271.935 51.105 269.955 51.105ZM346.578 125.895C347.748 125.895 348.648 126.435 349.278 127.515C349.998 128.595 350.358 130.08 350.358 131.97C350.358 135.57 349.503 138.36 347.793 140.34C344.463 144.39 339.738 148.125 333.618 151.545C327.588 154.965 321.108 156.675 314.178 156.675C304.728 156.675 297.393 154.11 292.173 148.98C286.953 143.85 284.343 136.83 284.343 127.92C284.343 121.71 285.648 115.95 288.258 110.64C290.868 105.24 294.468 100.965 299.058 97.815C303.738 94.665 309.003 93.09 314.853 93.09C320.073 93.09 324.258 94.665 327.408 97.815C330.558 100.875 332.133 105.06 332.133 110.37C332.133 116.58 329.883 121.935 325.383 126.435C320.973 130.845 313.458 134.355 302.838 136.965C305.088 141.105 309.363 143.175 315.663 143.175C319.713 143.175 324.303 141.78 329.433 138.99C334.653 136.11 339.153 132.375 342.933 127.785C344.013 126.525 345.228 125.895 346.578 125.895ZM312.558 106.32C309.228 106.32 306.393 108.255 304.053 112.125C301.803 115.995 300.678 120.675 300.678 126.165V126.435C305.988 125.175 310.173 123.285 313.233 120.765C316.293 118.245 317.823 115.32 317.823 111.99C317.823 110.28 317.328 108.93 316.338 107.94C315.438 106.86 314.178 106.32 312.558 106.32ZM373.386 156.675C367.176 156.675 361.551 155.145 356.511 152.085C351.561 149.025 347.646 144.615 344.766 138.855C341.886 133.005 340.446 126.12 340.446 118.2C340.446 104.52 343.371 91.875 349.221 80.265C355.071 68.565 363.711 59.205 375.141 52.185C386.571 45.075 400.296 41.52 416.316 41.52C420.456 41.52 424.866 41.835 429.546 42.465C434.316 43.095 438.636 44.04 442.506 45.3C445.026 46.02 446.286 47.82 446.286 50.7C446.286 53.04 445.386 55.245 443.586 57.315C441.876 59.385 439.851 60.42 437.511 60.42C436.791 60.42 436.251 60.375 435.891 60.285C431.211 59.205 427.206 58.44 423.876 57.99C420.546 57.45 417.036 57.18 413.346 57.18C401.916 57.18 392.196 59.97 384.186 65.55C376.176 71.04 370.191 78.33 366.231 87.42C362.271 96.51 360.291 106.32 360.291 116.85C360.291 124.5 361.776 130.44 364.746 134.67C367.806 138.81 371.766 140.88 376.626 140.88C382.116 140.88 386.931 138.63 391.071 134.13C395.211 129.63 398.991 122.34 402.411 112.26C405.831 102.18 409.206 88.5 412.536 71.22C413.076 68.7 414.156 66.99 415.776 66.09C417.396 65.19 419.556 64.74 422.256 64.74C428.646 64.74 431.841 66.81 431.841 70.95C431.841 71.67 431.706 72.57 431.436 73.65C429.096 82.38 426.936 92.055 424.956 102.675C423.066 113.205 422.121 121.215 422.121 126.705C422.121 131.565 422.841 135.12 424.281 137.37C425.721 139.53 427.926 140.61 430.896 140.61C433.776 140.61 436.521 139.665 439.131 137.775C441.741 135.795 445.026 132.465 448.986 127.785C450.066 126.525 451.281 125.895 452.631 125.895C453.801 125.895 454.701 126.435 455.331 127.515C456.051 128.595 456.411 130.08 456.411 131.97C456.411 135.48 455.556 138.27 453.846 140.34C449.436 145.65 445.116 149.7 440.886 152.49C436.656 155.28 431.481 156.675 425.361 156.675C419.061 156.675 413.976 154.875 410.106 151.275C406.236 147.585 403.806 142.41 402.816 135.75C396.156 149.7 386.346 156.675 373.386 156.675ZM546.204 114.96C546.474 114.87 546.924 114.825 547.554 114.825C548.904 114.825 549.939 115.275 550.659 116.175C551.379 117.075 551.739 118.29 551.739 119.82C551.739 122.61 551.199 124.815 550.119 126.435C549.039 127.965 547.419 129.09 545.259 129.81C541.119 131.16 536.709 131.835 532.029 131.835C528.069 131.835 524.334 131.295 520.824 130.215C518.214 134.445 515.334 138.81 512.184 143.31C508.584 148.44 505.479 151.95 502.869 153.84C500.349 155.73 497.469 156.675 494.229 156.675C490.629 156.675 487.884 155.28 485.994 152.49C484.194 149.7 483.069 145.11 482.619 138.72L481.944 128.865C479.154 136.425 476.634 142.185 474.384 146.145C472.224 150.105 470.019 152.85 467.769 154.38C465.609 155.91 463.044 156.675 460.074 156.675C456.384 156.675 453.459 155.235 451.299 152.355C449.229 149.475 447.924 144.93 447.384 138.72C446.304 126.12 445.764 115.095 445.764 105.645V100.92C445.854 97.95 446.664 95.88 448.194 94.71C449.724 93.54 452.019 92.955 455.079 92.955C457.419 92.955 459.129 93.495 460.209 94.575C461.379 95.565 461.964 97.275 461.964 99.705C461.964 110.055 462.594 123.51 463.854 140.07C469.974 127.2 475.599 113.79 480.729 99.84C481.719 97.14 482.889 95.34 484.239 94.44C485.679 93.45 487.389 92.955 489.369 92.955C491.799 92.955 493.464 93.45 494.364 94.44C495.354 95.43 495.849 97.185 495.849 99.705C495.849 110.055 496.479 123.51 497.739 140.07C503.139 132.06 507.189 125.67 509.889 120.9C508.539 118.29 507.864 115.185 507.864 111.585C507.864 108.525 508.539 105.555 509.889 102.675C511.239 99.795 513.084 97.455 515.424 95.655C517.764 93.855 520.419 92.955 523.389 92.955C525.999 92.955 528.114 93.9 529.734 95.79C531.354 97.59 532.164 100.245 532.164 103.755C532.164 107.805 531.084 112.44 528.924 117.66C532.344 117.48 536.889 116.805 542.559 115.635L546.204 114.96ZM600.23 125.895C601.4 125.895 602.3 126.435 602.93 127.515C603.65 128.595 604.01 130.08 604.01 131.97C604.01 135.57 603.155 138.36 601.445 140.34C598.115 144.39 593.39 148.125 587.27 151.545C581.24 154.965 574.76 156.675 567.83 156.675C558.38 156.675 551.045 154.11 545.825 148.98C540.605 143.85 537.995 136.83 537.995 127.92C537.995 121.71 539.3 115.95 541.91 110.64C544.52 105.24 548.12 100.965 552.71 97.815C557.39 94.665 562.655 93.09 568.505 93.09C573.725 93.09 577.91 94.665 581.06 97.815C584.21 100.875 585.785 105.06 585.785 110.37C585.785 116.58 583.535 121.935 579.035 126.435C574.625 130.845 567.11 134.355 556.49 136.965C558.74 141.105 563.015 143.175 569.315 143.175C573.365 143.175 577.955 141.78 583.085 138.99C588.305 136.11 592.805 132.375 596.585 127.785C597.665 126.525 598.88 125.895 600.23 125.895ZM566.21 106.32C562.88 106.32 560.045 108.255 557.705 112.125C555.455 115.995 554.33 120.675 554.33 126.165V126.435C559.64 125.175 563.825 123.285 566.885 120.765C569.945 118.245 571.475 115.32 571.475 111.99C571.475 110.28 570.98 108.93 569.99 107.94C569.09 106.86 567.83 106.32 566.21 106.32ZM618.128 159.645C613.448 159.645 609.848 158.565 607.328 156.405C604.898 154.245 603.683 151.815 603.683 149.115C603.683 146.775 604.538 144.75 606.248 143.04C607.958 141.33 610.478 140.475 613.808 140.475C614.978 140.475 616.328 140.61 617.858 140.88C619.478 141.06 620.693 141.195 621.503 141.285C621.413 138.945 620.873 136.74 619.883 134.67C618.983 132.6 617.813 130.62 616.373 128.73C614.933 126.75 613.583 125.04 612.323 123.6C609.533 128.91 606.743 133.32 603.953 136.83C601.253 140.34 598.283 143.67 595.043 146.82C593.423 148.44 591.713 149.25 589.913 149.25C588.473 149.25 587.303 148.755 586.403 147.765C585.503 146.685 585.053 145.38 585.053 143.85C585.053 142.05 585.683 140.385 586.943 138.855L588.698 136.695C593.648 130.575 597.383 125.535 599.903 121.575C601.433 118.965 603.233 115.5 605.303 111.18C607.373 106.77 609.398 102.225 611.378 97.545C613.088 93.585 616.643 91.605 622.043 91.605C624.563 91.605 626.318 91.83 627.308 92.28C628.298 92.73 628.793 93.45 628.793 94.44C628.793 94.98 628.613 95.835 628.253 97.005C627.893 98.175 627.398 99.345 626.768 100.515C625.148 103.755 624.338 106.5 624.338 108.75C624.338 110.1 624.788 111.585 625.688 113.205C626.678 114.825 628.163 116.85 630.143 119.28C633.023 123.06 635.183 126.3 636.623 129C638.153 131.61 638.918 134.49 638.918 137.64C638.918 138.54 638.828 139.8 638.648 141.42C643.058 139.71 648.233 135.165 654.173 127.785C655.253 126.525 656.468 125.895 657.818 125.895C658.988 125.895 659.888 126.435 660.518 127.515C661.238 128.595 661.598 130.08 661.598 131.97C661.598 135.39 660.743 138.18 659.033 140.34C654.533 145.92 650.213 149.745 646.073 151.815C642.023 153.795 636.983 154.875 630.953 155.055C627.353 158.115 623.078 159.645 618.128 159.645ZM719.48 114.555C720.65 114.555 721.55 115.14 722.18 116.31C722.81 117.48 723.125 118.965 723.125 120.765C723.125 125.085 721.82 127.65 719.21 128.46C713.81 130.35 707.87 131.43 701.39 131.7C699.68 139.26 696.305 145.335 691.265 149.925C686.225 154.425 680.51 156.675 674.12 156.675C668.72 156.675 664.085 155.37 660.215 152.76C656.435 150.15 653.555 146.685 651.575 142.365C649.595 138.045 648.605 133.365 648.605 128.325C648.605 121.485 649.91 115.41 652.52 110.1C655.13 104.7 658.73 100.515 663.32 97.545C667.91 94.485 672.995 92.955 678.575 92.955C685.415 92.955 690.905 95.34 695.045 100.11C699.275 104.79 701.75 110.595 702.47 117.525C706.7 117.255 711.74 116.355 717.59 114.825C718.31 114.645 718.94 114.555 719.48 114.555ZM675.2 142.365C678.08 142.365 680.555 141.195 682.625 138.855C684.785 136.515 686.225 133.14 686.945 128.73C684.155 126.84 681.995 124.365 680.465 121.305C679.025 118.245 678.305 115.005 678.305 111.585C678.305 110.145 678.44 108.705 678.71 107.265H678.035C674.435 107.265 671.42 109.02 668.99 112.53C666.65 115.95 665.48 120.81 665.48 127.11C665.48 132.06 666.425 135.84 668.315 138.45C670.295 141.06 672.59 142.365 675.2 142.365ZM721.124 156.675C717.704 156.675 715.274 154.875 713.834 151.275C712.484 147.675 711.809 141.915 711.809 133.995C711.809 122.295 713.474 111.18 716.804 100.65C717.614 98.04 718.919 96.15 720.719 94.98C722.609 93.72 725.219 93.09 728.549 93.09C730.349 93.09 731.609 93.315 732.329 93.765C733.049 94.215 733.409 95.07 733.409 96.33C733.409 97.77 732.734 101.01 731.384 106.05C730.484 109.65 729.764 112.8 729.224 115.5C728.684 118.11 728.234 121.395 727.874 125.355C730.304 118.335 733.184 112.395 736.514 107.535C739.934 102.675 743.399 99.075 746.909 96.735C750.509 94.305 753.884 93.09 757.034 93.09C760.184 93.09 762.389 93.81 763.649 95.25C764.999 96.69 765.674 98.895 765.674 101.865C765.674 104.745 764.819 109.965 763.109 117.525C762.389 120.765 761.894 123.195 761.624 124.815C766.124 113.745 771.119 105.69 776.609 100.65C782.099 95.61 787.229 93.09 791.999 93.09C797.849 93.09 800.774 96.015 800.774 101.865C800.774 105.375 799.784 111.72 797.804 120.9C796.094 128.73 795.239 133.905 795.239 136.425C795.239 140.025 796.544 141.825 799.154 141.825C800.954 141.825 803.069 140.745 805.499 138.585C808.019 136.335 811.349 132.735 815.489 127.785C816.569 126.525 817.784 125.895 819.134 125.895C820.304 125.895 821.204 126.435 821.834 127.515C822.554 128.595 822.914 130.08 822.914 131.97C822.914 135.57 822.059 138.36 820.349 140.34C816.479 145.11 812.294 149.025 807.794 152.085C803.384 155.145 798.344 156.675 792.674 156.675C788.084 156.675 784.619 155.37 782.279 152.76C779.939 150.06 778.769 146.19 778.769 141.15C778.769 138.63 779.399 134.13 780.659 127.65C781.829 121.98 782.414 118.065 782.414 115.905C782.414 114.465 781.919 113.745 780.929 113.745C779.759 113.745 778.094 115.275 775.934 118.335C773.774 121.305 771.614 125.265 769.454 130.215C767.294 135.165 765.539 140.385 764.189 145.875C763.199 150.195 762.029 153.075 760.679 154.515C759.419 155.955 757.349 156.675 754.469 156.675C751.499 156.675 749.249 155.28 747.719 152.49C746.279 149.61 745.559 146.145 745.559 142.095C745.559 138.675 746.009 133.725 746.909 127.245C747.629 121.485 747.989 117.705 747.989 115.905C747.989 114.465 747.494 113.745 746.504 113.745C745.154 113.745 743.444 115.365 741.374 118.605C739.304 121.845 737.279 125.985 735.299 131.025C733.409 136.065 731.879 141.015 730.709 145.875C729.719 150.105 728.549 152.985 727.199 154.515C725.939 155.955 723.914 156.675 721.124 156.675ZM872.208 125.895C873.378 125.895 874.278 126.435 874.908 127.515C875.628 128.595 875.988 130.08 875.988 131.97C875.988 135.57 875.133 138.36 873.423 140.34C870.093 144.39 865.368 148.125 859.248 151.545C853.218 154.965 846.738 156.675 839.808 156.675C830.358 156.675 823.023 154.11 817.803 148.98C812.583 143.85 809.973 136.83 809.973 127.92C809.973 121.71 811.278 115.95 813.888 110.64C816.498 105.24 820.098 100.965 824.688 97.815C829.368 94.665 834.633 93.09 840.483 93.09C845.703 93.09 849.888 94.665 853.038 97.815C856.188 100.875 857.763 105.06 857.763 110.37C857.763 116.58 855.513 121.935 851.013 126.435C846.603 130.845 839.088 134.355 828.468 136.965C830.718 141.105 834.993 143.175 841.293 143.175C845.343 143.175 849.933 141.78 855.063 138.99C860.283 136.11 864.783 132.375 868.563 127.785C869.643 126.525 870.858 125.895 872.208 125.895ZM838.188 106.32C834.858 106.32 832.023 108.255 829.683 112.125C827.433 115.995 826.308 120.675 826.308 126.165V126.435C831.618 125.175 835.803 123.285 838.863 120.765C841.923 118.245 843.453 115.32 843.453 111.99C843.453 110.28 842.958 108.93 841.968 107.94C841.068 106.86 839.808 106.32 838.188 106.32ZM899.016 156.675C892.806 156.675 887.181 155.145 882.141 152.085C877.191 149.025 873.276 144.615 870.396 138.855C867.516 133.005 866.076 126.12 866.076 118.2C866.076 104.52 869.001 91.875 874.851 80.265C880.701 68.565 889.341 59.205 900.771 52.185C912.201 45.075 925.926 41.52 941.946 41.52C946.086 41.52 950.496 41.835 955.176 42.465C959.946 43.095 964.266 44.04 968.136 45.3C970.656 46.02 971.916 47.82 971.916 50.7C971.916 53.04 971.016 55.245 969.216 57.315C967.506 59.385 965.481 60.42 963.141 60.42C962.421 60.42 961.881 60.375 961.521 60.285C956.841 59.205 952.836 58.44 949.506 57.99C946.176 57.45 942.666 57.18 938.976 57.18C927.546 57.18 917.826 59.97 909.816 65.55C901.806 71.04 895.821 78.33 891.861 87.42C887.901 96.51 885.921 106.32 885.921 116.85C885.921 124.5 887.406 130.44 890.376 134.67C893.436 138.81 897.396 140.88 902.256 140.88C907.746 140.88 912.561 138.63 916.701 134.13C920.841 129.63 924.621 122.34 928.041 112.26C931.461 102.18 934.836 88.5 938.166 71.22C938.706 68.7 939.786 66.99 941.406 66.09C943.026 65.19 945.186 64.74 947.886 64.74C954.276 64.74 957.471 66.81 957.471 70.95C957.471 71.67 957.336 72.57 957.066 73.65C954.726 82.38 952.566 92.055 950.586 102.675C948.696 113.205 947.751 121.215 947.751 126.705C947.751 131.565 948.471 135.12 949.911 137.37C951.351 139.53 953.556 140.61 956.526 140.61C959.406 140.61 962.151 139.665 964.761 137.775C967.371 135.795 970.656 132.465 974.616 127.785C975.696 126.525 976.911 125.895 978.261 125.895C979.431 125.895 980.331 126.435 980.961 127.515C981.681 128.595 982.041 130.08 982.041 131.97C982.041 135.48 981.186 138.27 979.476 140.34C975.066 145.65 970.746 149.7 966.516 152.49C962.286 155.28 957.111 156.675 950.991 156.675C944.691 156.675 939.606 154.875 935.736 151.275C931.866 147.585 929.436 142.41 928.446 135.75C921.786 149.7 911.976 156.675 899.016 156.675ZM1047.8 125.895C1048.97 125.895 1049.87 126.435 1050.5 127.515C1051.22 128.595 1051.58 130.08 1051.58 131.97C1051.58 135.57 1050.73 138.36 1049.02 140.34C1045.33 144.84 1041.28 148.71 1036.87 151.95C1032.46 155.1 1028.09 156.675 1023.77 156.675C1016.93 156.675 1011.71 152.67 1008.11 144.66C1004.33 149.43 1001 152.625 998.124 154.245C995.334 155.865 992.049 156.675 988.269 156.675C982.779 156.675 978.234 154.65 974.634 150.6C971.124 146.46 969.369 141.105 969.369 134.535C969.369 127.335 970.899 120.675 973.959 114.555C977.019 108.345 981.204 103.305 986.514 99.435C991.914 95.475 997.944 93.135 1004.6 92.415C1006.31 74.955 1009.55 60.06 1014.32 47.73C1019.18 35.31 1025.53 29.1 1033.36 29.1C1037.23 29.1 1040.42 30.855 1042.94 34.365C1045.55 37.875 1046.86 43.185 1046.86 50.295C1046.86 60.375 1044.38 72.165 1039.43 85.665C1034.48 99.165 1027.87 113.025 1019.59 127.245C1019.95 132.465 1020.71 136.2 1021.88 138.45C1023.14 140.7 1024.72 141.825 1026.61 141.825C1029.04 141.825 1031.51 140.745 1034.03 138.585C1036.55 136.425 1039.93 132.825 1044.16 127.785C1045.24 126.525 1046.45 125.895 1047.8 125.895ZM1031.87 42.33C1030.16 42.33 1028.45 45.39 1026.74 51.51C1025.03 57.54 1023.55 65.46 1022.29 75.27C1021.12 85.08 1020.26 95.34 1019.72 106.05C1029.8 84.09 1034.84 66.45 1034.84 53.13C1034.84 49.71 1034.53 47.055 1033.9 45.165C1033.36 43.275 1032.68 42.33 1031.87 42.33ZM992.994 143.04C994.704 143.04 996.414 142.365 998.124 141.015C999.834 139.575 1001.99 136.965 1004.6 133.185C1003.7 128.325 1003.25 122.88 1003.25 116.85C1003.25 114.69 1003.34 111.18 1003.52 106.32C998.574 107.85 994.434 111.18 991.104 116.31C987.864 121.35 986.244 126.975 986.244 133.185C986.244 139.755 988.494 143.04 992.994 143.04ZM1065.71 159.645C1061.03 159.645 1057.43 158.565 1054.91 156.405C1052.48 154.245 1051.27 151.815 1051.27 149.115C1051.27 146.775 1052.12 144.75 1053.83 143.04C1055.54 141.33 1058.06 140.475 1061.39 140.475C1062.56 140.475 1063.91 140.61 1065.44 140.88C1067.06 141.06 1068.28 141.195 1069.09 141.285C1069 138.945 1068.46 136.74 1067.47 134.67C1066.57 132.6 1065.4 130.62 1063.96 128.73C1062.52 126.75 1061.17 125.04 1059.91 123.6C1057.12 128.91 1054.33 133.32 1051.54 136.83C1048.84 140.34 1045.87 143.67 1042.63 146.82C1041.01 148.44 1039.3 149.25 1037.5 149.25C1036.06 149.25 1034.89 148.755 1033.99 147.765C1033.09 146.685 1032.64 145.38 1032.64 143.85C1032.64 142.05 1033.27 140.385 1034.53 138.855L1036.28 136.695C1041.23 130.575 1044.97 125.535 1047.49 121.575C1049.11 118.965 1050.73 115.86 1052.35 112.26C1054.06 108.66 1056.26 103.755 1058.96 97.545C1060.67 93.585 1064.23 91.605 1069.63 91.605C1072.15 91.605 1073.9 91.83 1074.89 92.28C1075.88 92.73 1076.38 93.45 1076.38 94.44C1076.38 94.98 1076.2 95.835 1075.84 97.005C1075.48 98.175 1074.98 99.345 1074.35 100.515C1072.73 103.755 1071.92 106.5 1071.92 108.75C1071.92 110.1 1072.37 111.585 1073.27 113.205C1074.26 114.825 1075.75 116.85 1077.73 119.28C1080.61 123.06 1082.77 126.3 1084.21 129C1085.74 131.61 1086.5 134.49 1086.5 137.64C1086.5 141.42 1085.6 145.02 1083.8 148.44C1082.09 151.77 1079.66 154.47 1076.51 156.54C1073.36 158.61 1069.76 159.645 1065.71 159.645ZM1107.13 156.675C1103.17 156.675 1100.16 155.595 1098.09 153.435C1096.11 151.275 1095.12 148.44 1095.12 144.93C1095.12 140.88 1096.24 137.64 1098.49 135.21C1100.83 132.78 1104.07 131.565 1108.21 131.565C1112.17 131.565 1115.14 132.555 1117.12 134.535C1119.19 136.425 1120.23 139.26 1120.23 143.04C1120.23 147.18 1119.06 150.51 1116.72 153.03C1114.38 155.46 1111.18 156.675 1107.13 156.675ZM1155.64 156.675C1146.82 156.675 1139.93 154.2 1134.98 149.25C1130.12 144.21 1127.69 137.595 1127.69 129.405C1127.69 122.115 1129.13 115.725 1132.01 110.235C1134.89 104.745 1138.63 100.515 1143.22 97.545C1147.81 94.575 1152.62 93.09 1157.66 93.09C1162.61 93.09 1166.44 94.575 1169.14 97.545C1171.93 100.425 1173.32 104.16 1173.32 108.75C1173.32 112.53 1172.47 115.725 1170.76 118.335C1169.14 120.945 1166.98 122.25 1164.28 122.25C1162.57 122.25 1161.17 121.845 1160.09 121.035C1159.1 120.225 1158.61 119.1 1158.61 117.66C1158.61 117.03 1158.7 116.31 1158.88 115.5C1159.06 114.69 1159.19 114.105 1159.28 113.745C1159.73 112.395 1159.96 111.135 1159.96 109.965C1159.96 108.795 1159.64 107.895 1159.01 107.265C1158.47 106.635 1157.66 106.32 1156.58 106.32C1154.51 106.32 1152.58 107.265 1150.78 109.155C1148.98 110.955 1147.54 113.43 1146.46 116.58C1145.38 119.73 1144.84 123.195 1144.84 126.975C1144.84 137.415 1149.38 142.635 1158.47 142.635C1162.16 142.635 1166.12 141.42 1170.35 138.99C1174.67 136.47 1178.9 132.735 1183.04 127.785C1184.12 126.525 1185.34 125.895 1186.69 125.895C1187.86 125.895 1188.76 126.435 1189.39 127.515C1190.11 128.595 1190.47 130.08 1190.47 131.97C1190.47 135.39 1189.61 138.18 1187.9 140.34C1183.67 145.56 1178.59 149.61 1172.65 152.49C1166.8 155.28 1161.13 156.675 1155.64 156.675ZM1248.41 114.555C1249.58 114.555 1250.48 115.14 1251.11 116.31C1251.74 117.48 1252.05 118.965 1252.05 120.765C1252.05 125.085 1250.75 127.65 1248.14 128.46C1242.74 130.35 1236.8 131.43 1230.32 131.7C1228.61 139.26 1225.23 145.335 1220.19 149.925C1215.15 154.425 1209.44 156.675 1203.05 156.675C1197.65 156.675 1193.01 155.37 1189.14 152.76C1185.36 150.15 1182.48 146.685 1180.5 142.365C1178.52 138.045 1177.53 133.365 1177.53 128.325C1177.53 121.485 1178.84 115.41 1181.45 110.1C1184.06 104.7 1187.66 100.515 1192.25 97.545C1196.84 94.485 1201.92 92.955 1207.5 92.955C1214.34 92.955 1219.83 95.34 1223.97 100.11C1228.2 104.79 1230.68 110.595 1231.4 117.525C1235.63 117.255 1240.67 116.355 1246.52 114.825C1247.24 114.645 1247.87 114.555 1248.41 114.555ZM1204.13 142.365C1207.01 142.365 1209.48 141.195 1211.55 138.855C1213.71 136.515 1215.15 133.14 1215.87 128.73C1213.08 126.84 1210.92 124.365 1209.39 121.305C1207.95 118.245 1207.23 115.005 1207.23 111.585C1207.23 110.145 1207.37 108.705 1207.64 107.265H1206.96C1203.36 107.265 1200.35 109.02 1197.92 112.53C1195.58 115.95 1194.41 120.81 1194.41 127.11C1194.41 132.06 1195.35 135.84 1197.24 138.45C1199.22 141.06 1201.52 142.365 1204.13 142.365ZM1250.05 156.675C1246.63 156.675 1244.2 154.875 1242.76 151.275C1241.41 147.675 1240.73 141.915 1240.73 133.995C1240.73 122.295 1242.4 111.18 1245.73 100.65C1246.54 98.04 1247.84 96.15 1249.64 94.98C1251.53 93.72 1254.14 93.09 1257.47 93.09C1259.27 93.09 1260.53 93.315 1261.25 93.765C1261.97 94.215 1262.33 95.07 1262.33 96.33C1262.33 97.77 1261.66 101.01 1260.31 106.05C1259.41 109.65 1258.69 112.8 1258.15 115.5C1257.61 118.11 1257.16 121.395 1256.8 125.355C1259.23 118.335 1262.11 112.395 1265.44 107.535C1268.86 102.675 1272.32 99.075 1275.83 96.735C1279.43 94.305 1282.81 93.09 1285.96 93.09C1289.11 93.09 1291.31 93.81 1292.57 95.25C1293.92 96.69 1294.6 98.895 1294.6 101.865C1294.6 104.745 1293.74 109.965 1292.03 117.525C1291.31 120.765 1290.82 123.195 1290.55 124.815C1293.52 117.255 1296.8 111.09 1300.4 106.32C1304.09 101.55 1307.69 98.175 1311.2 96.195C1314.71 94.125 1317.95 93.09 1320.92 93.09C1323.8 93.09 1325.96 93.855 1327.4 95.385C1328.93 96.825 1329.7 98.985 1329.7 101.865C1329.7 104.205 1329.2 108.615 1328.21 115.095C1327.31 120.585 1326.59 125.805 1326.05 130.755C1325.51 135.615 1325.24 141.06 1325.24 147.09C1325.24 150.51 1324.52 152.985 1323.08 154.515C1321.73 155.955 1319.48 156.675 1316.33 156.675C1313.36 156.675 1311.2 155.91 1309.85 154.38C1308.5 152.85 1307.83 150.555 1307.83 147.495C1307.83 143.895 1308.46 137.955 1309.72 129.675C1310.8 122.475 1311.34 117.885 1311.34 115.905C1311.34 114.465 1310.84 113.745 1309.85 113.745C1308.68 113.745 1307.02 115.275 1304.86 118.335C1302.7 121.305 1300.54 125.265 1298.38 130.215C1296.22 135.165 1294.46 140.385 1293.11 145.875C1292.12 150.195 1290.95 153.075 1289.6 154.515C1288.34 155.955 1286.27 156.675 1283.39 156.675C1280.42 156.675 1278.17 155.28 1276.64 152.49C1275.2 149.61 1274.48 146.145 1274.48 142.095C1274.48 138.675 1274.93 133.725 1275.83 127.245C1276.55 121.485 1276.91 117.705 1276.91 115.905C1276.91 114.465 1276.42 113.745 1275.43 113.745C1274.08 113.745 1272.37 115.365 1270.3 118.605C1268.23 121.845 1266.2 125.985 1264.22 131.025C1262.33 136.065 1260.8 141.015 1259.63 145.875C1258.64 150.105 1257.47 152.985 1256.12 154.515C1254.86 155.955 1252.84 156.675 1250.05 156.675Z" fill="url(#paint0_linear)"/>
</g>
<defs>
<filter id="filter0_i" x="4.32031" y="29.1" width="1325.38" height="130.545" filterUnits="userSpaceOnUse" color-interpolation-filters="sRGB">
<feFlood flood-opacity="0" result="BackgroundImageFix"/>
<feBlend mode="normal" in="SourceGraphic" in2="BackgroundImageFix" result="shape"/>
<feColorMatrix in="SourceAlpha" type="matrix" values="0 0 0 0 0 0 0 0 0 0 0 0 0 0 0 0 0 0 127 0" result="hardAlpha"/>
<feOffset dy="9"/>
<feComposite in2="hardAlpha" operator="arithmetic" k2="-1" k3="1"/>
<feColorMatrix type="matrix" values="0 0 0 0 0 0 0 0 0 0 0 0 0 0 0 0 0 0 0.25 0"/>
<feBlend mode="normal" in2="shape" result="effect1_innerShadow"/>
</filter>
<linearGradient id="paint0_linear" x1="0" y1="-20" x2="81.6922" y2="439.476" gradientUnits="userSpaceOnUse">
<stop stop-color="#D3274E"/>
<stop offset="1" stop-color="#334DA3"/>
</linearGradient>
</defs>
</svg>
