<svg width="473" height="237" viewBox="0 0 473 237" fill="none" xmlns="http://www.w3.org/2000/svg">
<g filter="url(#filter0_i)">
<path d="M95.727 118.295C91.0463 118.295 86.9753 117.449 83.514 115.758C80.0527 114.027 77.3977 111.589 75.549 108.442C73.7003 105.295 72.776 101.637 72.776 97.468C72.776 91.686 73.8577 86.553 76.021 82.069C78.2237 77.585 81.1933 74.1237 84.93 71.685C88.6667 69.207 92.8163 67.968 97.379 67.968C101.627 67.968 104.852 69.0693 107.055 71.272C109.258 73.4353 110.359 76.3067 110.359 79.886C110.359 82.2853 109.926 84.2127 109.061 85.668C108.235 87.1233 107.035 87.851 105.462 87.851C104.361 87.851 103.495 87.5953 102.866 87.084C102.237 86.5727 101.922 85.8253 101.922 84.842C101.922 84.488 102.001 83.839 102.158 82.895C102.394 81.715 102.512 80.771 102.512 80.063C102.512 76.4837 100.604 74.694 96.789 74.694C94.193 74.694 91.715 75.5397 89.355 77.231C86.995 78.9223 85.0873 81.42 83.632 84.724C82.1767 87.9887 81.449 91.8827 81.449 96.406C81.449 101.126 82.7667 104.784 85.402 107.38C88.0373 109.937 91.9313 111.215 97.084 111.215C99.6407 111.215 102.217 110.9 104.813 110.271C107.448 109.602 110.359 108.599 113.545 107.262C114.135 107.026 114.627 106.908 115.02 106.908C115.649 106.908 116.121 107.144 116.436 107.616C116.751 108.088 116.908 108.698 116.908 109.445C116.908 111.844 115.61 113.614 113.014 114.755C110.221 115.974 107.311 116.879 104.282 117.469C101.293 118.02 98.441 118.295 95.727 118.295ZM116.468 118.295C114.974 118.295 113.912 117.508 113.282 115.935C112.692 114.362 112.397 111.844 112.397 108.383C112.397 103.27 113.125 98.412 114.58 93.81C114.934 92.6693 115.505 91.8433 116.291 91.332C117.117 90.7813 118.258 90.506 119.713 90.506C120.5 90.506 121.051 90.6043 121.365 90.801C121.68 90.9977 121.837 91.3713 121.837 91.922C121.837 92.5513 121.542 93.9673 120.952 96.17C120.559 97.7433 120.244 99.12 120.008 100.3C119.772 101.48 119.576 102.935 119.418 104.666C120.716 101.283 122.172 98.53 123.784 96.406C125.397 94.282 126.97 92.7677 128.504 91.863C130.078 90.9583 131.513 90.506 132.811 90.506C135.368 90.506 136.646 91.7843 136.646 94.341C136.646 94.8523 136.469 96.0913 136.115 98.058C135.801 99.6313 135.643 100.615 135.643 101.008C135.643 102.385 136.135 103.073 137.118 103.073C138.22 103.073 139.636 102.208 141.366 100.477C141.878 99.9657 142.409 99.71 142.959 99.71C143.471 99.71 143.864 99.946 144.139 100.418C144.454 100.851 144.611 101.441 144.611 102.188C144.611 103.643 144.218 104.784 143.431 105.61C142.33 106.751 141.032 107.734 139.537 108.56C138.082 109.347 136.528 109.74 134.876 109.74C132.792 109.74 131.199 109.209 130.097 108.147C129.035 107.085 128.504 105.649 128.504 103.84C128.504 103.25 128.563 102.66 128.681 102.07C128.76 101.283 128.799 100.752 128.799 100.477C128.799 99.8477 128.583 99.533 128.15 99.533C127.56 99.533 126.774 100.202 125.79 101.539C124.846 102.837 123.902 104.568 122.958 106.731C122.014 108.894 121.247 111.176 120.657 113.575C120.225 115.424 119.713 116.682 119.123 117.351C118.573 117.98 117.688 118.295 116.468 118.295ZM165.443 104.843C165.954 104.843 166.348 105.079 166.623 105.551C166.938 106.023 167.095 106.672 167.095 107.498C167.095 109.071 166.721 110.291 165.974 111.156C164.519 112.926 162.454 114.558 159.779 116.053C157.144 117.548 154.312 118.295 151.283 118.295C147.153 118.295 143.947 117.174 141.666 114.932C139.385 112.69 138.244 109.622 138.244 105.728C138.244 103.014 138.814 100.497 139.955 98.176C141.096 95.816 142.669 93.9477 144.675 92.571C146.72 91.1943 149.021 90.506 151.578 90.506C153.859 90.506 155.688 91.1943 157.065 92.571C158.442 93.9083 159.13 95.7373 159.13 98.058C159.13 100.772 158.147 103.112 156.18 105.079C154.253 107.006 150.968 108.54 146.327 109.681C147.31 111.49 149.179 112.395 151.932 112.395C153.702 112.395 155.708 111.785 157.95 110.566C160.231 109.307 162.198 107.675 163.85 105.669C164.322 105.118 164.853 104.843 165.443 104.843ZM150.575 96.288C149.12 96.288 147.881 97.1337 146.858 98.825C145.875 100.516 145.383 102.562 145.383 104.961V105.079C147.704 104.528 149.533 103.702 150.87 102.601C152.207 101.5 152.876 100.221 152.876 98.766C152.876 98.0187 152.66 97.4287 152.227 96.996C151.834 96.524 151.283 96.288 150.575 96.288ZM169.26 118.295C166.821 118.295 164.874 117.41 163.419 115.64C161.964 113.87 161.236 111.549 161.236 108.678C161.236 105.531 161.964 102.562 163.419 99.769C164.874 96.937 166.802 94.6753 169.201 92.984C171.64 91.2533 174.216 90.388 176.93 90.388C177.795 90.388 178.366 90.565 178.641 90.919C178.956 91.2337 179.211 91.8237 179.408 92.689C180.234 92.5317 181.099 92.453 182.004 92.453C183.931 92.453 184.895 93.1413 184.895 94.518C184.895 95.344 184.6 97.3107 184.01 100.418C183.105 104.941 182.653 108.088 182.653 109.858C182.653 110.448 182.791 110.92 183.066 111.274C183.381 111.628 183.774 111.805 184.246 111.805C184.993 111.805 185.898 111.333 186.96 110.389C188.022 109.406 189.458 107.832 191.267 105.669C191.739 105.118 192.27 104.843 192.86 104.843C193.371 104.843 193.765 105.079 194.04 105.551C194.355 106.023 194.512 106.672 194.512 107.498C194.512 109.071 194.138 110.291 193.391 111.156C191.778 113.162 190.067 114.853 188.258 116.23C186.449 117.607 184.698 118.295 183.007 118.295C181.709 118.295 180.509 117.862 179.408 116.997C178.346 116.092 177.54 114.873 176.989 113.339C174.944 116.643 172.367 118.295 169.26 118.295ZM171.384 112.336C172.249 112.336 173.075 111.825 173.862 110.802C174.649 109.779 175.219 108.422 175.573 106.731L177.756 95.875C176.104 95.9143 174.57 96.5437 173.154 97.763C171.777 98.943 170.676 100.516 169.85 102.483C169.024 104.45 168.611 106.534 168.611 108.737C168.611 109.956 168.847 110.861 169.319 111.451C169.83 112.041 170.519 112.336 171.384 112.336ZM216.031 104.843C216.542 104.843 216.935 105.079 217.211 105.551C217.525 106.023 217.683 106.672 217.683 107.498C217.683 109.071 217.309 110.291 216.562 111.156C214.87 113.241 213.022 114.952 211.016 116.289C209.01 117.626 206.709 118.295 204.113 118.295C196.089 118.295 192.077 112.651 192.077 101.362C192.077 99.6313 192.136 97.881 192.254 96.111H189.953C188.773 96.111 187.966 95.8947 187.534 95.462C187.14 95.0293 186.944 94.341 186.944 93.397C186.944 91.1943 187.829 90.093 189.599 90.093H192.962C193.63 85.7663 194.653 81.8133 196.03 78.234C197.406 74.6547 199.058 71.803 200.986 69.679C202.952 67.555 205.057 66.493 207.299 66.493C208.951 66.493 210.249 67.2207 211.193 68.676C212.137 70.1313 212.609 71.9603 212.609 74.163C212.609 80.2597 210.052 85.5697 204.939 90.093H211.547C212.176 90.093 212.628 90.2307 212.904 90.506C213.179 90.7813 213.317 91.2927 213.317 92.04C213.317 94.754 211.094 96.111 206.65 96.111H199.452C199.373 98.0777 199.334 99.6117 199.334 100.713C199.334 104.804 199.806 107.675 200.75 109.327C201.733 110.979 203.267 111.805 205.352 111.805C207.043 111.805 208.538 111.294 209.836 110.271C211.134 109.248 212.668 107.714 214.438 105.669C214.91 105.118 215.441 104.843 216.031 104.843ZM205.706 72.157C205.116 72.157 204.447 72.9043 203.7 74.399C202.992 75.8543 202.303 77.8997 201.635 80.535C201.005 83.131 200.474 86.022 200.042 89.208C202.362 87.202 204.093 84.96 205.234 82.482C206.414 79.9647 207.004 77.6833 207.004 75.638C207.004 73.3173 206.571 72.157 205.706 72.157ZM234.001 106.613C234.512 106.613 234.906 106.849 235.181 107.321C235.496 107.793 235.653 108.442 235.653 109.268C235.653 110.684 235.319 111.903 234.65 112.926C233.549 114.617 232.093 115.935 230.284 116.879C228.514 117.823 226.39 118.295 223.912 118.295C220.136 118.295 217.206 117.174 215.121 114.932C213.036 112.651 211.994 109.583 211.994 105.728C211.994 103.014 212.564 100.497 213.705 98.176C214.846 95.816 216.419 93.9477 218.425 92.571C220.47 91.1943 222.771 90.506 225.328 90.506C227.609 90.506 229.438 91.1943 230.815 92.571C232.192 93.9083 232.88 95.7373 232.88 98.058C232.88 100.772 231.897 103.112 229.93 105.079C228.003 107.006 224.699 108.54 220.018 109.681C220.962 111.49 222.555 112.395 224.797 112.395C226.41 112.395 227.727 112.021 228.75 111.274C229.812 110.527 231.031 109.268 232.408 107.498C232.88 106.908 233.411 106.613 234.001 106.613ZM224.325 96.288C222.87 96.288 221.631 97.1337 220.608 98.825C219.625 100.516 219.133 102.562 219.133 104.961V105.079C221.454 104.528 223.283 103.702 224.62 102.601C225.957 101.5 226.626 100.221 226.626 98.766C226.626 98.0187 226.41 97.4287 225.977 96.996C225.584 96.524 225.033 96.288 224.325 96.288Z" fill="url(#paint0_linear)"/>
</g>
<g filter="url(#filter1_i)">
<path d="M18 176.3C15.24 176.3 12.74 175.62 10.5 174.26C8.3 172.9 6.56 170.94 5.28 168.38C4 165.78 3.36 162.72 3.36 159.2C3.36 153.12 4.66 147.5 7.26 142.34C9.86 137.14 13.7 132.98 18.78 129.86C23.86 126.7 29.96 125.12 37.08 125.12C38.92 125.12 40.88 125.26 42.96 125.54C45.08 125.82 47 126.24 48.72 126.8C49.84 127.12 50.4 127.92 50.4 129.2C50.4 130.24 50 131.22 49.2 132.14C48.44 133.06 47.54 133.52 46.5 133.52C46.18 133.52 45.94 133.5 45.78 133.46C43.7 132.98 41.92 132.64 40.44 132.44C38.96 132.2 37.4 132.08 35.76 132.08C30.68 132.08 26.36 133.32 22.8 135.8C19.24 138.24 16.58 141.48 14.82 145.52C13.06 149.56 12.18 153.92 12.18 158.6C12.18 162 12.84 164.64 14.16 166.52C15.52 168.36 17.28 169.28 19.44 169.28C21.88 169.28 24.02 168.28 25.86 166.28C27.7 164.28 29.38 161.04 30.9 156.56C32.42 152.08 33.92 146 35.4 138.32C35.64 137.2 36.12 136.44 36.84 136.04C37.56 135.64 38.52 135.44 39.72 135.44C42.56 135.44 43.98 136.36 43.98 138.2C43.98 138.52 43.92 138.92 43.8 139.4C42.76 143.28 41.8 147.58 40.92 152.3C40.08 156.98 39.66 160.54 39.66 162.98C39.66 165.14 39.98 166.72 40.62 167.72C41.26 168.68 42.24 169.16 43.56 169.16C44.84 169.16 46.06 168.74 47.22 167.9C48.38 167.02 49.84 165.54 51.6 163.46C52.08 162.9 52.62 162.62 53.22 162.62C53.74 162.62 54.14 162.86 54.42 163.34C54.74 163.82 54.9 164.48 54.9 165.32C54.9 166.88 54.52 168.12 53.76 169.04C51.8 171.4 49.88 173.2 48 174.44C46.12 175.68 43.82 176.3 41.1 176.3C38.3 176.3 36.04 175.5 34.32 173.9C32.6 172.26 31.52 169.96 31.08 167C28.12 173.2 23.76 176.3 18 176.3ZM94.808 157.76C94.928 157.72 95.128 157.7 95.408 157.7C96.008 157.7 96.468 157.9 96.788 158.3C97.108 158.7 97.268 159.24 97.268 159.92C97.268 161.16 97.028 162.14 96.548 162.86C96.068 163.54 95.348 164.04 94.388 164.36C92.548 164.96 90.588 165.26 88.508 165.26C86.748 165.26 85.088 165.02 83.528 164.54C82.368 166.42 81.088 168.36 79.688 170.36C78.088 172.64 76.708 174.2 75.548 175.04C74.428 175.88 73.148 176.3 71.708 176.3C70.108 176.3 68.888 175.68 68.048 174.44C67.248 173.2 66.748 171.16 66.548 168.32L66.248 163.94C65.008 167.3 63.888 169.86 62.888 171.62C61.928 173.38 60.948 174.6 59.948 175.28C58.988 175.96 57.848 176.3 56.528 176.3C54.888 176.3 53.588 175.66 52.628 174.38C51.708 173.1 51.128 171.08 50.888 168.32C50.408 162.72 50.168 157.82 50.168 153.62V151.52C50.208 150.2 50.568 149.28 51.248 148.76C51.928 148.24 52.948 147.98 54.308 147.98C55.348 147.98 56.108 148.22 56.588 148.7C57.108 149.14 57.368 149.9 57.368 150.98C57.368 155.58 57.648 161.56 58.208 168.92C60.928 163.2 63.428 157.24 65.708 151.04C66.148 149.84 66.668 149.04 67.268 148.64C67.908 148.2 68.668 147.98 69.548 147.98C70.628 147.98 71.368 148.2 71.768 148.64C72.208 149.08 72.428 149.86 72.428 150.98C72.428 155.58 72.708 161.56 73.268 168.92C75.668 165.36 77.468 162.52 78.668 160.4C78.068 159.24 77.768 157.86 77.768 156.26C77.768 154.9 78.068 153.58 78.668 152.3C79.268 151.02 80.088 149.98 81.128 149.18C82.168 148.38 83.348 147.98 84.668 147.98C85.828 147.98 86.768 148.4 87.488 149.24C88.208 150.04 88.568 151.22 88.568 152.78C88.568 154.58 88.088 156.64 87.128 158.96C88.648 158.88 90.668 158.58 93.188 158.06L94.808 157.76ZM118.82 162.62C119.34 162.62 119.74 162.86 120.02 163.34C120.34 163.82 120.5 164.48 120.5 165.32C120.5 166.92 120.12 168.16 119.36 169.04C117.88 170.84 115.78 172.5 113.06 174.02C110.38 175.54 107.5 176.3 104.42 176.3C100.22 176.3 96.9597 175.16 94.6397 172.88C92.3197 170.6 91.1597 167.48 91.1597 163.52C91.1597 160.76 91.7397 158.2 92.8997 155.84C94.0597 153.44 95.6597 151.54 97.6997 150.14C99.7797 148.74 102.12 148.04 104.72 148.04C107.04 148.04 108.9 148.74 110.3 150.14C111.7 151.5 112.4 153.36 112.4 155.72C112.4 158.48 111.4 160.86 109.4 162.86C107.44 164.82 104.1 166.38 99.3797 167.54C100.38 169.38 102.28 170.3 105.08 170.3C106.88 170.3 108.92 169.68 111.2 168.44C113.52 167.16 115.52 165.5 117.2 163.46C117.68 162.9 118.22 162.62 118.82 162.62ZM103.7 153.92C102.22 153.92 100.96 154.78 99.9197 156.5C98.9197 158.22 98.4197 160.3 98.4197 162.74V162.86C100.78 162.3 102.64 161.46 104 160.34C105.36 159.22 106.04 157.92 106.04 156.44C106.04 155.68 105.82 155.08 105.38 154.64C104.98 154.16 104.42 153.92 103.7 153.92ZM126.774 177.62C124.694 177.62 123.094 177.14 121.974 176.18C120.894 175.22 120.354 174.14 120.354 172.94C120.354 171.9 120.734 171 121.494 170.24C122.254 169.48 123.374 169.1 124.854 169.1C125.374 169.1 125.974 169.16 126.654 169.28C127.374 169.36 127.914 169.42 128.274 169.46C128.234 168.42 127.994 167.44 127.554 166.52C127.154 165.6 126.634 164.72 125.994 163.88C125.354 163 124.754 162.24 124.194 161.6C122.954 163.96 121.714 165.92 120.474 167.48C119.274 169.04 117.954 170.52 116.514 171.92C115.794 172.64 115.034 173 114.234 173C113.594 173 113.074 172.78 112.674 172.34C112.274 171.86 112.074 171.28 112.074 170.6C112.074 169.8 112.354 169.06 112.914 168.38L113.694 167.42C115.894 164.7 117.554 162.46 118.674 160.7C119.354 159.54 120.154 158 121.074 156.08C121.994 154.12 122.894 152.1 123.774 150.02C124.534 148.26 126.114 147.38 128.514 147.38C129.634 147.38 130.414 147.48 130.854 147.68C131.294 147.88 131.514 148.2 131.514 148.64C131.514 148.88 131.434 149.26 131.274 149.78C131.114 150.3 130.894 150.82 130.614 151.34C129.894 152.78 129.534 154 129.534 155C129.534 155.6 129.734 156.26 130.134 156.98C130.574 157.7 131.234 158.6 132.114 159.68C133.394 161.36 134.354 162.8 134.994 164C135.674 165.16 136.014 166.44 136.014 167.84C136.014 168.24 135.974 168.8 135.894 169.52C137.854 168.76 140.154 166.74 142.794 163.46C143.274 162.9 143.814 162.62 144.414 162.62C144.934 162.62 145.334 162.86 145.614 163.34C145.934 163.82 146.094 164.48 146.094 165.32C146.094 166.84 145.714 168.08 144.954 169.04C142.954 171.52 141.034 173.22 139.194 174.14C137.394 175.02 135.154 175.5 132.474 175.58C130.874 176.94 128.974 177.62 126.774 177.62ZM171.82 157.58C172.34 157.58 172.74 157.84 173.02 158.36C173.3 158.88 173.44 159.54 173.44 160.34C173.44 162.26 172.86 163.4 171.7 163.76C169.3 164.6 166.66 165.08 163.78 165.2C163.02 168.56 161.52 171.26 159.28 173.3C157.04 175.3 154.5 176.3 151.66 176.3C149.26 176.3 147.2 175.72 145.48 174.56C143.8 173.4 142.52 171.86 141.64 169.94C140.76 168.02 140.32 165.94 140.32 163.7C140.32 160.66 140.9 157.96 142.06 155.6C143.22 153.2 144.82 151.34 146.86 150.02C148.9 148.66 151.16 147.98 153.64 147.98C156.68 147.98 159.12 149.04 160.96 151.16C162.84 153.24 163.94 155.82 164.26 158.9C166.14 158.78 168.38 158.38 170.98 157.7C171.3 157.62 171.58 157.58 171.82 157.58ZM152.14 169.94C153.42 169.94 154.52 169.42 155.44 168.38C156.4 167.34 157.04 165.84 157.36 163.88C156.12 163.04 155.16 161.94 154.48 160.58C153.84 159.22 153.52 157.78 153.52 156.26C153.52 155.62 153.58 154.98 153.7 154.34H153.4C151.8 154.34 150.46 155.12 149.38 156.68C148.34 158.2 147.82 160.36 147.82 163.16C147.82 165.36 148.24 167.04 149.08 168.2C149.96 169.36 150.98 169.94 152.14 169.94ZM172.55 176.3C171.03 176.3 169.95 175.5 169.31 173.9C168.71 172.3 168.41 169.74 168.41 166.22C168.41 161.02 169.15 156.08 170.63 151.4C170.99 150.24 171.57 149.4 172.37 148.88C173.21 148.32 174.37 148.04 175.85 148.04C176.65 148.04 177.21 148.14 177.53 148.34C177.85 148.54 178.01 148.92 178.01 149.48C178.01 150.12 177.71 151.56 177.11 153.8C176.71 155.4 176.39 156.8 176.15 158C175.91 159.16 175.71 160.62 175.55 162.38C176.63 159.26 177.91 156.62 179.39 154.46C180.91 152.3 182.45 150.7 184.01 149.66C185.61 148.58 187.11 148.04 188.51 148.04C189.91 148.04 190.89 148.36 191.45 149C192.05 149.64 192.35 150.62 192.35 151.94C192.35 153.22 191.97 155.54 191.21 158.9C190.89 160.34 190.67 161.42 190.55 162.14C192.55 157.22 194.77 153.64 197.21 151.4C199.65 149.16 201.93 148.04 204.05 148.04C206.65 148.04 207.95 149.34 207.95 151.94C207.95 153.5 207.51 156.32 206.63 160.4C205.87 163.88 205.49 166.18 205.49 167.3C205.49 168.9 206.07 169.7 207.23 169.7C208.03 169.7 208.97 169.22 210.05 168.26C211.17 167.26 212.65 165.66 214.49 163.46C214.97 162.9 215.51 162.62 216.11 162.62C216.63 162.62 217.03 162.86 217.31 163.34C217.63 163.82 217.79 164.48 217.79 165.32C217.79 166.92 217.41 168.16 216.65 169.04C214.93 171.16 213.07 172.9 211.07 174.26C209.11 175.62 206.87 176.3 204.35 176.3C202.31 176.3 200.77 175.72 199.73 174.56C198.69 173.36 198.17 171.64 198.17 169.4C198.17 168.28 198.45 166.28 199.01 163.4C199.53 160.88 199.79 159.14 199.79 158.18C199.79 157.54 199.57 157.22 199.13 157.22C198.61 157.22 197.87 157.9 196.91 159.26C195.95 160.58 194.99 162.34 194.03 164.54C193.07 166.74 192.29 169.06 191.69 171.5C191.25 173.42 190.73 174.7 190.13 175.34C189.57 175.98 188.65 176.3 187.37 176.3C186.05 176.3 185.05 175.68 184.37 174.44C183.73 173.16 183.41 171.62 183.41 169.82C183.41 168.3 183.61 166.1 184.01 163.22C184.33 160.66 184.49 158.98 184.49 158.18C184.49 157.54 184.27 157.22 183.83 157.22C183.23 157.22 182.47 157.94 181.55 159.38C180.63 160.82 179.73 162.66 178.85 164.9C178.01 167.14 177.33 169.34 176.81 171.5C176.37 173.38 175.85 174.66 175.25 175.34C174.69 175.98 173.79 176.3 172.55 176.3ZM234.419 164.42C234.939 164.42 235.339 164.66 235.619 165.14C235.939 165.62 236.099 166.28 236.099 167.12C236.099 168.56 235.759 169.8 235.079 170.84C233.959 172.56 232.479 173.9 230.639 174.86C228.839 175.82 226.679 176.3 224.159 176.3C220.319 176.3 217.339 175.16 215.219 172.88C213.099 170.56 212.039 167.44 212.039 163.52C212.039 160.76 212.619 158.2 213.779 155.84C214.939 153.44 216.539 151.54 218.579 150.14C220.659 148.74 222.999 148.04 225.599 148.04C227.919 148.04 229.779 148.74 231.179 150.14C232.579 151.5 233.279 153.36 233.279 155.72C233.279 158.48 232.279 160.86 230.279 162.86C228.319 164.82 224.959 166.38 220.199 167.54C221.159 169.38 222.779 170.3 225.059 170.3C226.699 170.3 228.039 169.92 229.079 169.16C230.159 168.4 231.399 167.12 232.799 165.32C233.279 164.72 233.819 164.42 234.419 164.42ZM224.579 153.92C223.099 153.92 221.839 154.78 220.799 156.5C219.799 158.22 219.299 160.3 219.299 162.74V162.86C221.659 162.3 223.519 161.46 224.879 160.34C226.239 159.22 226.919 157.92 226.919 156.44C226.919 155.68 226.699 155.08 226.259 154.64C225.859 154.16 225.299 153.92 224.579 153.92Z" fill="url(#paint1_linear)"/>
</g>
<g filter="url(#filter2_i)">
<path d="M284.5 176.675C278.29 176.675 272.665 175.145 267.625 172.085C262.675 169.025 258.76 164.615 255.88 158.855C253 153.005 251.56 146.12 251.56 138.2C251.56 124.52 254.485 111.875 260.335 100.265C266.185 88.565 274.825 79.205 286.255 72.185C297.685 65.075 311.41 61.52 327.43 61.52C331.57 61.52 335.98 61.835 340.66 62.465C345.43 63.095 349.75 64.04 353.62 65.3C356.14 66.02 357.4 67.82 357.4 70.7C357.4 73.04 356.5 75.245 354.7 77.315C352.99 79.385 350.965 80.42 348.625 80.42C347.905 80.42 347.365 80.375 347.005 80.285C342.325 79.205 338.32 78.44 334.99 77.99C331.66 77.45 328.15 77.18 324.46 77.18C313.03 77.18 303.31 79.97 295.3 85.55C287.29 91.04 281.305 98.33 277.345 107.42C273.385 116.51 271.405 126.32 271.405 136.85C271.405 144.5 272.89 150.44 275.86 154.67C278.92 158.81 282.88 160.88 287.74 160.88C293.23 160.88 298.045 158.63 302.185 154.13C306.325 149.63 310.105 142.34 313.525 132.26C316.945 122.18 320.32 108.5 323.65 91.22C324.19 88.7 325.27 86.99 326.89 86.09C328.51 85.19 330.67 84.74 333.37 84.74C339.76 84.74 342.955 86.81 342.955 90.95C342.955 91.67 342.82 92.57 342.55 93.65C340.21 102.38 338.05 112.055 336.07 122.675C334.18 133.205 333.235 141.215 333.235 146.705C333.235 151.565 333.955 155.12 335.395 157.37C336.835 159.53 339.04 160.61 342.01 160.61C344.89 160.61 347.635 159.665 350.245 157.775C352.855 155.795 356.14 152.465 360.1 147.785C361.18 146.525 362.395 145.895 363.745 145.895C364.915 145.895 365.815 146.435 366.445 147.515C367.165 148.595 367.525 150.08 367.525 151.97C367.525 155.48 366.67 158.27 364.96 160.34C360.55 165.65 356.23 169.7 352 172.49C347.77 175.28 342.595 176.675 336.475 176.675C330.175 176.675 325.09 174.875 321.22 171.275C317.35 167.585 314.92 162.41 313.93 155.75C307.27 169.7 297.46 176.675 284.5 176.675ZM433.288 145.895C434.458 145.895 435.358 146.435 435.988 147.515C436.708 148.595 437.068 150.08 437.068 151.97C437.068 155.57 436.213 158.36 434.503 160.34C430.813 164.84 426.763 168.71 422.353 171.95C417.943 175.1 413.578 176.675 409.258 176.675C402.418 176.675 397.198 172.67 393.598 164.66C389.818 169.43 386.488 172.625 383.608 174.245C380.818 175.865 377.533 176.675 373.753 176.675C368.263 176.675 363.718 174.65 360.118 170.6C356.608 166.46 354.853 161.105 354.853 154.535C354.853 147.335 356.383 140.675 359.443 134.555C362.503 128.345 366.688 123.305 371.998 119.435C377.398 115.475 383.428 113.135 390.088 112.415C391.798 94.955 395.038 80.06 399.808 67.73C404.668 55.31 411.013 49.1 418.843 49.1C422.713 49.1 425.908 50.855 428.428 54.365C431.038 57.875 432.343 63.185 432.343 70.295C432.343 80.375 429.868 92.165 424.918 105.665C419.968 119.165 413.353 133.025 405.073 147.245C405.433 152.465 406.198 156.2 407.368 158.45C408.628 160.7 410.203 161.825 412.093 161.825C414.523 161.825 416.998 160.745 419.518 158.585C422.038 156.425 425.413 152.825 429.643 147.785C430.723 146.525 431.938 145.895 433.288 145.895ZM417.358 62.33C415.648 62.33 413.938 65.39 412.228 71.51C410.518 77.54 409.033 85.46 407.773 95.27C406.603 105.08 405.748 115.34 405.208 126.05C415.288 104.09 420.328 86.45 420.328 73.13C420.328 69.71 420.013 67.055 419.383 65.165C418.843 63.275 418.168 62.33 417.358 62.33ZM378.478 163.04C380.188 163.04 381.898 162.365 383.608 161.015C385.318 159.575 387.478 156.965 390.088 153.185C389.188 148.325 388.738 142.88 388.738 136.85C388.738 134.69 388.828 131.18 389.008 126.32C384.058 127.85 379.918 131.18 376.588 136.31C373.348 141.35 371.728 146.975 371.728 153.185C371.728 159.755 373.978 163.04 378.478 163.04ZM451.195 179.645C446.515 179.645 442.915 178.565 440.395 176.405C437.965 174.245 436.75 171.815 436.75 169.115C436.75 166.775 437.605 164.75 439.315 163.04C441.025 161.33 443.545 160.475 446.875 160.475C448.045 160.475 449.395 160.61 450.925 160.88C452.545 161.06 453.76 161.195 454.57 161.285C454.48 158.945 453.94 156.74 452.95 154.67C452.05 152.6 450.88 150.62 449.44 148.73C448 146.75 446.65 145.04 445.39 143.6C442.6 148.91 439.81 153.32 437.02 156.83C434.32 160.34 431.35 163.67 428.11 166.82C426.49 168.44 424.78 169.25 422.98 169.25C421.54 169.25 420.37 168.755 419.47 167.765C418.57 166.685 418.12 165.38 418.12 163.85C418.12 162.05 418.75 160.385 420.01 158.855L421.765 156.695C426.715 150.575 430.45 145.535 432.97 141.575C434.59 138.965 436.21 135.86 437.83 132.26C439.54 128.66 441.745 123.755 444.445 117.545C446.155 113.585 449.71 111.605 455.11 111.605C457.63 111.605 459.385 111.83 460.375 112.28C461.365 112.73 461.86 113.45 461.86 114.44C461.86 114.98 461.68 115.835 461.32 117.005C460.96 118.175 460.465 119.345 459.835 120.515C458.215 123.755 457.405 126.5 457.405 128.75C457.405 130.1 457.855 131.585 458.755 133.205C459.745 134.825 461.23 136.85 463.21 139.28C466.09 143.06 468.25 146.3 469.69 149C471.22 151.61 471.985 154.49 471.985 157.64C471.985 161.42 471.085 165.02 469.285 168.44C467.575 171.77 465.145 174.47 461.995 176.54C458.845 178.61 455.245 179.645 451.195 179.645Z" fill="url(#paint2_linear)"/>
</g>
<defs>
<filter id="filter0_i" x="72.7764" y="66.493" width="162.877" height="55.802" filterUnits="userSpaceOnUse" color-interpolation-filters="sRGB">
<feFlood flood-opacity="0" result="BackgroundImageFix"/>
<feBlend mode="normal" in="SourceGraphic" in2="BackgroundImageFix" result="shape"/>
<feColorMatrix in="SourceAlpha" type="matrix" values="0 0 0 0 0 0 0 0 0 0 0 0 0 0 0 0 0 0 127 0" result="hardAlpha"/>
<feOffset dy="4"/>
<feGaussianBlur stdDeviation="2"/>
<feComposite in2="hardAlpha" operator="arithmetic" k2="-1" k3="1"/>
<feColorMatrix type="matrix" values="0 0 0 0 0 0 0 0 0 0 0 0 0 0 0 0 0 0 0.25 0"/>
<feBlend mode="normal" in2="shape" result="effect1_innerShadow"/>
</filter>
<filter id="filter1_i" x="3.36035" y="125.12" width="232.739" height="56.5" filterUnits="userSpaceOnUse" color-interpolation-filters="sRGB">
<feFlood flood-opacity="0" result="BackgroundImageFix"/>
<feBlend mode="normal" in="SourceGraphic" in2="BackgroundImageFix" result="shape"/>
<feColorMatrix in="SourceAlpha" type="matrix" values="0 0 0 0 0 0 0 0 0 0 0 0 0 0 0 0 0 0 127 0" result="hardAlpha"/>
<feOffset dy="4"/>
<feGaussianBlur stdDeviation="2"/>
<feComposite in2="hardAlpha" operator="arithmetic" k2="-1" k3="1"/>
<feColorMatrix type="matrix" values="0 0 0 0 0 0 0 0 0 0 0 0 0 0 0 0 0 0 0.25 0"/>
<feBlend mode="normal" in2="shape" result="effect1_innerShadow"/>
</filter>
<filter id="filter2_i" x="251.56" y="49.1" width="220.425" height="130.545" filterUnits="userSpaceOnUse" color-interpolation-filters="sRGB">
<feFlood flood-opacity="0" result="BackgroundImageFix"/>
<feBlend mode="normal" in="SourceGraphic" in2="BackgroundImageFix" result="shape"/>
<feColorMatrix in="SourceAlpha" type="matrix" values="0 0 0 0 0 0 0 0 0 0 0 0 0 0 0 0 0 0 127 0" result="hardAlpha"/>
<feOffset dy="9"/>
<feComposite in2="hardAlpha" operator="arithmetic" k2="-1" k3="1"/>
<feColorMatrix type="matrix" values="0 0 0 0 0 0 0 0 0 0 0 0 0 0 0 0 0 0 0.25 0"/>
<feBlend mode="normal" in2="shape" result="effect1_innerShadow"/>
</filter>
<linearGradient id="paint0_linear" x1="69" y1="41" x2="162.582" y2="190.371" gradientUnits="userSpaceOnUse">
<stop stop-color="#AA1D3D"/>
<stop offset="1" stop-color="#1D3584"/>
</linearGradient>
<linearGradient id="paint1_linear" x1="0" y1="98" x2="78.2151" y2="273.053" gradientUnits="userSpaceOnUse">
<stop stop-color="#A51F3D"/>
<stop offset="1" stop-color="#1D3584"/>
</linearGradient>
<linearGradient id="paint2_linear" x1="244" y1="0" x2="480.86" y2="228.865" gradientUnits="userSpaceOnUse">
<stop stop-color="#D3274E"/>
<stop offset="1" stop-color="#334DA3"/>
</linearGradient>
</defs>
</svg>
