<svg width="88" height="84" viewBox="0 0 88 84" fill="none" xmlns="http://www.w3.org/2000/svg">
<g filter="url(#filter0_d)">
<ellipse cx="44" cy="38" rx="40" ry="38" fill="#3E3D3D"/>
</g>
<path d="M45.875 25.625L44.5344 26.9309L51.6406 34.0625H32.75V35.9375H51.6406L44.5344 43.0372L45.875 44.375L55.25 35L45.875 25.625Z" fill="white"/>
<path d="M38.6992 61H36.9414L33.5195 55.3867V61H31.7617V52.4688H33.5195L36.9473 58.0938V52.4688H38.6992V61ZM43.041 61.1172C42.1113 61.1172 41.3535 60.832 40.7676 60.2617C40.1855 59.6914 39.8945 58.9316 39.8945 57.9824V57.8184C39.8945 57.1816 40.0176 56.6133 40.2637 56.1133C40.5098 55.6094 40.8574 55.2227 41.3066 54.9531C41.7598 54.6797 42.2754 54.543 42.8535 54.543C43.7207 54.543 44.4023 54.8164 44.8984 55.3633C45.3984 55.9102 45.6484 56.6855 45.6484 57.6895V58.3809H41.6113C41.666 58.7949 41.8301 59.127 42.1035 59.377C42.3809 59.627 42.7305 59.752 43.1523 59.752C43.8047 59.752 44.3145 59.5156 44.6816 59.043L45.5137 59.9746C45.2598 60.334 44.916 60.6152 44.4824 60.8184C44.0488 61.0176 43.5684 61.1172 43.041 61.1172ZM42.8477 55.9141C42.5117 55.9141 42.2383 56.0273 42.0273 56.2539C41.8203 56.4805 41.6875 56.8047 41.6289 57.2266H43.9844V57.0918C43.9766 56.7168 43.875 56.4277 43.6797 56.2246C43.4844 56.0176 43.207 55.9141 42.8477 55.9141ZM49.0293 56.5527L50.0957 54.6602H51.9062L50.1016 57.7656L51.9824 61H50.166L49.0352 59.0078L47.9102 61H46.0879L47.9688 57.7656L46.1699 54.6602H47.9863L49.0293 56.5527ZM54.748 53.1016V54.6602H55.832V55.9023H54.748V59.0664C54.748 59.3008 54.793 59.4688 54.8828 59.5703C54.9727 59.6719 55.1445 59.7227 55.3984 59.7227C55.5859 59.7227 55.752 59.709 55.8965 59.6816V60.9648C55.5645 61.0664 55.2227 61.1172 54.8711 61.1172C53.6836 61.1172 53.0781 60.5176 53.0547 59.3184V55.9023H52.1289V54.6602H53.0547V53.1016H54.748Z" fill="white"/>
<defs>
<filter id="filter0_d" x="0" y="0" width="88" height="84" filterUnits="userSpaceOnUse" color-interpolation-filters="sRGB">
<feFlood flood-opacity="0" result="BackgroundImageFix"/>
<feColorMatrix in="SourceAlpha" type="matrix" values="0 0 0 0 0 0 0 0 0 0 0 0 0 0 0 0 0 0 127 0"/>
<feOffset dy="4"/>
<feGaussianBlur stdDeviation="2"/>
<feColorMatrix type="matrix" values="0 0 0 0 0 0 0 0 0 0 0 0 0 0 0 0 0 0 0.25 0"/>
<feBlend mode="normal" in2="BackgroundImageFix" result="effect1_dropShadow"/>
<feBlend mode="normal" in="SourceGraphic" in2="effect1_dropShadow" result="shape"/>
</filter>
</defs>
</svg>
