<svg width="200" height="157" viewBox="0 0 200 157" fill="none" xmlns="http://www.w3.org/2000/svg">
<g clip-path="url(#clip0)">
<path opacity="0.1" d="M70.1567 153.462C89.4243 153.462 105.044 150.503 105.044 146.853C105.044 143.203 89.4243 140.244 70.1567 140.244C50.889 140.244 35.2695 143.203 35.2695 146.853C35.2695 150.503 50.889 153.462 70.1567 153.462Z" fill="#C4C4C4"/>
<path opacity="0.1" d="M116.201 22.0695C103.38 21.6257 91.1681 17.4852 79.5073 12.9564C67.8466 8.4276 56.2968 3.41146 43.7822 1.01235C35.7329 -0.530931 26.5268 -0.750833 20.0426 3.56004C13.8002 7.72035 11.7834 14.882 10.6998 21.5326C9.88355 26.5368 9.40412 31.8046 11.6388 36.4899C13.192 39.7429 15.9457 42.4768 17.8515 45.5931C24.4823 56.4336 19.795 69.8021 12.6115 80.3871C9.24365 85.3518 5.33098 90.0945 2.72979 95.3741C0.128609 100.654 -1.07392 106.724 1.20237 112.124C3.45686 117.473 8.83158 121.483 14.654 124.306C26.4792 130.041 40.4083 131.682 54.0007 132.613C84.0797 134.669 114.317 133.78 144.476 132.886C155.637 132.557 166.846 132.223 177.825 130.497C183.923 129.538 190.217 128.017 194.645 124.344C200.263 119.682 201.656 111.79 197.89 105.945C191.574 96.1388 174.117 93.7041 169.697 83.1824C167.268 77.3897 169.762 70.9393 173.295 65.5685C180.87 54.0444 193.567 43.9349 194.235 30.7645C194.694 21.7188 188.591 12.6592 179.153 8.37808C169.261 3.89089 155.542 4.4555 148.248 11.8826C140.729 19.5218 127.523 22.4637 116.201 22.0695Z" fill="#C4C4C4"/>
<path d="M106.012 71.6643L99.9442 67.5734L103.005 63.0168L86.9779 61.739L81.2189 66.1925L74.0097 62.1511L67.997 62.8742L67.9257 61.2893C67.8513 59.6371 67.6853 57.9902 67.4284 56.3564C67.4542 55.8611 67.472 55.2925 67.47 54.6744C67.47 52.0693 67.1174 48.6162 65.5682 46.3142L65.9248 43.1087L63.0324 39.6914C63.4969 38.7661 64.0265 37.875 64.6173 37.0248C64.7163 36.8821 64.8154 36.7435 64.9223 36.6088C68.6765 36.3373 71.6383 33.2508 71.6383 29.4768C71.6383 29.3025 71.6383 29.1281 71.6185 28.9558C71.6185 28.8864 71.6046 28.8151 71.5967 28.7458C71.9632 28.9439 72.3336 29.142 72.7041 29.3401C72.7735 29.4392 72.8527 29.5382 72.9399 29.6551L72.9577 29.6769L73.0686 29.8136L73.1043 29.8552C73.1439 29.9027 73.1855 29.9483 73.2271 29.9958L73.2549 30.0275C73.3599 30.1444 73.4708 30.2633 73.5897 30.3802C73.6038 30.3917 73.6171 30.4043 73.6293 30.4178L73.7779 30.5565L73.8195 30.5941C73.9463 30.7071 74.081 30.816 74.2157 30.919L74.2593 30.9507L74.4296 31.0676L74.4851 31.1033C74.5505 31.1429 74.6179 31.1845 74.6832 31.2221L74.707 31.236C74.7843 31.2776 74.8635 31.3172 74.9428 31.3549L74.9824 31.3707C75.0497 31.3998 75.1158 31.4275 75.1805 31.4539L75.2419 31.4757C75.3112 31.4995 75.3786 31.5213 75.4499 31.5411L75.4935 31.553C75.5807 31.5748 75.6678 31.5926 75.757 31.6065H75.7669C75.8508 31.6201 75.9355 31.6287 76.0205 31.6322H76.0779C76.1538 31.6362 76.2299 31.6362 76.3058 31.6322H76.3553C76.4503 31.6268 76.5449 31.6155 76.6386 31.5986C77.0818 31.5403 77.5074 31.3876 77.8867 31.1508C77.9832 31.0863 78.0688 31.0067 78.1403 30.9151C78.5365 30.396 78.1006 29.8274 78.1006 29.8274C77.9461 29.459 76.9437 29.1994 76.9437 29.1994C76.9437 29.1994 73.7739 27.8761 73.7739 26.8221C73.7739 25.7682 72.9815 20.3003 64.8015 19.0503C64.8015 19.0503 59.4803 18.7511 57.9845 21.5999L57.9528 21.9328C57.513 22.2081 57.1485 22.7609 56.7147 22.9233C56.5272 22.9636 56.3464 23.0303 56.1778 23.1214V23.0838C56.1277 23.1276 56.0866 23.1808 56.0569 23.2403C55.9637 23.4257 55.9079 23.6277 55.8925 23.8346C55.8479 24.0874 55.7601 24.3307 55.633 24.5538C55.5975 24.6171 55.5578 24.678 55.5141 24.736L55.4804 24.7895C55.7104 24.8074 55.9414 24.7701 56.154 24.6806C56.1205 24.9518 56.054 25.2179 55.9559 25.473C56.0818 25.4771 56.2063 25.4449 56.3145 25.3803C56.4226 25.3156 56.51 25.2213 56.5661 25.1085V25.0926L56.5918 25.057C56.6416 24.9652 56.6828 24.8691 56.7147 24.7697L56.6929 24.7935C56.7325 24.6647 56.7681 24.5339 56.8117 24.4072C56.8317 24.3357 56.8646 24.2686 56.9088 24.209C56.9617 24.1557 57.0263 24.1156 57.0976 24.0919C57.1688 24.0681 57.2446 24.0614 57.3189 24.0724L57.2377 25.79H57.2733C57.2256 25.9149 57.1673 26.0355 57.099 26.1505C56.8177 26.6062 56.3065 26.9172 56.1183 27.4165C56.0372 27.6572 56.0062 27.9121 56.0272 28.1653C56.0272 28.3139 56.045 28.4645 56.0569 28.613V28.6011C56.0847 28.9974 56.0926 29.3738 55.8786 29.6927C55.732 29.9107 55.4963 30.0751 55.415 30.3227C55.3926 30.3917 55.3825 30.4642 55.3853 30.5367C55.4012 30.7538 55.4465 30.9677 55.52 31.1726C55.5209 31.1687 55.5209 31.1646 55.52 31.1607C55.5695 31.3115 55.581 31.472 55.5537 31.6283C55.4646 32.0245 54.9832 32.3553 55.0069 32.7337C55.0056 32.7835 55.013 32.8331 55.0287 32.8803C55.1214 33.0651 55.2817 33.2071 55.4765 33.2765C55.7819 33.4502 56.1327 33.5276 56.4829 33.4984C56.6141 33.4747 56.741 33.4313 56.8593 33.3697C56.7206 33.6886 56.578 34.0036 56.4333 34.3028C56.4115 34.3503 56.3878 34.3978 56.364 34.4454C56.364 34.4454 55.1397 33.6272 54.4443 35.2953C54.2413 35.6419 54.0961 36.0193 54.0144 36.4126C53.9796 36.57 53.9305 36.7238 53.8678 36.8722C53.5591 37.3949 53.0971 37.8099 52.5444 38.0609C51.126 38.7107 45.3966 45.8565 45.2956 47.7069C45.246 48.4292 45.1239 49.1447 44.9311 49.8425C44.4801 51.4859 44.3642 53.2032 44.5903 54.8923C44.6611 55.4382 44.7784 55.9771 44.941 56.503C45.5492 58.3513 45.9553 61.8004 45.9553 61.8004L46.613 67.7873C46.5886 68.6136 46.6244 69.4406 46.72 70.2617C46.0484 71.0284 43.3521 74.2239 44.3823 75.0936C45.1747 75.7791 46.5615 75.6662 47.3401 75.5255C46.6843 77.148 45.6522 79.9691 45.5155 81.9066C45.3174 84.7733 45.8543 88.571 46.7041 90.0291C47.554 91.4872 50.387 95.2275 50.387 95.2275C50.387 95.2275 50.2543 100.359 51.2666 102.223C52.279 104.087 52.6871 107.954 52.6871 107.954C52.6871 107.954 53.6321 111.219 53.1586 112.42C52.6851 113.62 54.0362 114.619 52.6177 115.417C51.1993 116.215 49.3846 134.21 49.3846 134.21C49.3846 134.21 48.6536 146.003 49.3846 146.603C49.4237 146.632 49.4655 146.656 49.5094 146.677V150.639C49.5094 150.639 49.0022 151.471 51.0645 151.639C52.4771 151.752 56.4809 152.008 58.8562 152.156L60.6967 152.271C60.6967 152.271 65.0551 153.139 66.9807 152.271C68.9063 151.404 72.3198 151.423 71.8126 149.131C71.7454 148.819 71.6553 148.513 71.5432 148.214C70.9865 146.792 70.0415 146.629 68.3001 146.233C68.1991 146.211 68.102 146.191 68.0129 146.176C66.1784 145.857 65.5761 146.71 64.5479 145.599C63.6544 144.638 60.8096 143.562 59.8408 143.222C59.8646 143.15 59.8943 143.081 59.9181 143.008C59.6438 142.961 59.3886 142.837 59.1831 142.649L61.8081 142.816L63.3711 142.913C63.3711 142.913 67.0758 143.652 68.7201 142.913C70.3644 142.174 73.2568 142.193 72.825 140.246C72.7681 139.981 72.6919 139.72 72.5971 139.466C72.1236 138.257 71.3193 138.124 69.8394 137.79C69.7543 137.772 69.675 137.754 69.5958 137.74C68.0366 137.469 67.5255 138.194 66.6519 137.251C65.903 136.446 63.5395 135.545 62.6897 135.238C62.6897 134.798 62.0953 134.172 61.7209 133.544C61.2811 132.811 62.0933 130.245 62.0933 130.245L62.5569 119.601C62.7335 119.522 62.9202 119.469 63.1116 119.443C63.1116 119.443 65.2076 117.442 64.7341 115.31C64.6377 114.665 64.5874 114.014 64.5836 113.363C65.273 112.723 66.2219 111.778 66.4914 111.195C66.9312 110.246 66.4914 105.648 66.4914 105.648V88.0659L69.9979 88.4205L73.1796 88.7474L74.1483 88.8464L77.33 89.1674L84.6422 89.9063L91.2314 88.6582L94.0822 88.1194L99.9442 87.0099V72.6668L106.012 71.6643ZM57.7508 24.1357L57.3427 24.0922C57.4774 24.0981 57.62 24.1239 57.7508 24.1357Z" fill="url(#paint0_linear)"/>
<path d="M91.7902 80.9775C89.8091 83.8125 82.6871 82.3108 82.6871 82.3108L77.1677 77.146L76.4248 76.4467L77.6709 73.7999C77.6709 73.7999 78.0671 73.9089 78.7467 74.1031C82.3146 75.1392 93.4623 78.5942 91.7902 80.9775Z" fill="#EFB7B9"/>
<path opacity="0.1" d="M78.7427 74.1031C78.499 74.951 77.8314 76.2209 77.1677 77.146L76.4248 76.4467L77.6709 73.7999C77.6709 73.7999 78.0711 73.9089 78.7427 74.1031Z" fill="black"/>
<path d="M59.8135 44.2558C59.8135 44.2558 54.7261 46.5123 54.9757 52.0534C55.1553 55.6233 55.5443 59.1795 56.1406 62.7038C56.1406 62.7038 55.1005 71.0423 59.4312 73.1918C63.7619 75.3412 67.7696 77.1084 67.7696 77.1084C67.7696 77.1084 74.545 77.8374 75.387 78.1386C76.2289 78.4397 78.8598 73.8356 78.3745 73.1184C77.8891 72.4013 71.6704 70.8976 70.878 69.701C70.0855 68.5045 68.253 67.7655 68.253 67.7655C68.253 67.7655 66.3611 66.6204 66.2323 65.5863C66.1035 64.5522 66.6028 63.7815 66.7296 63.3279C66.8563 62.8742 67.1773 58.494 67.1773 58.494C67.1773 58.494 69.3129 42.9027 59.8135 44.2558Z" fill="#DCE6F2"/>
<path opacity="0.1" d="M63.1712 62.476C63.1712 62.476 56.1918 63.6448 56.8673 66.0875C56.8673 66.0875 59.4012 63.4507 63.1712 62.476Z" fill="black"/>
<path opacity="0.1" d="M63.225 63.4646C63.225 63.4646 59.3876 66.5967 60.1384 66.7571C60.8892 66.9176 63.225 63.4646 63.225 63.4646Z" fill="black"/>
<path opacity="0.1" d="M65.0694 64.5561C65.0694 64.5561 64.0412 66.662 64.6732 66.5194C65.3051 66.3768 65.0694 64.5561 65.0694 64.5561Z" fill="black"/>
<path opacity="0.1" d="M78.9997 74.3269L78.5757 74.2061C78.6966 73.8099 78.7303 73.4889 78.6312 73.3403C78.1458 72.6232 71.9311 71.1215 71.1407 69.9229C70.3502 68.7244 68.5157 67.9874 68.5157 67.9874C68.5157 67.9874 66.6238 66.8423 66.495 65.8082C66.3662 64.7741 66.8654 64.0034 66.9922 63.5497C67.119 63.0961 67.44 58.7139 67.44 58.7139C67.44 58.7139 69.5697 43.1246 60.0703 44.4777C60.0703 44.4777 54.9828 46.7361 55.2304 52.2773C55.4101 55.8472 55.7997 59.4035 56.3973 62.9277C56.3973 62.9277 55.3572 71.2661 59.6879 73.4156C64.0186 75.5651 68.0264 77.3323 68.0264 77.3323C68.0264 77.3323 74.7998 78.0593 75.6437 78.3624C75.9627 78.4773 76.5392 77.885 77.1038 77.0708L77.4247 77.3699L82.9441 82.5326C82.9441 82.5326 90.0661 84.0363 92.0472 81.2014C93.7212 78.8161 82.5756 75.3611 78.9997 74.3269Z" fill="black"/>
<path d="M56.885 23.4582C56.6911 23.4961 56.5053 23.5679 56.3362 23.6702C56.1381 23.8346 56.1381 24.1159 56.0886 24.3616C56.0304 24.7033 55.8949 25.0272 55.6924 25.3086C55.9178 25.3251 56.1439 25.2877 56.3521 25.1996C56.3182 25.4708 56.2517 25.7368 56.154 25.992C56.2774 25.9952 56.3991 25.9626 56.5046 25.8983C56.61 25.834 56.6946 25.7407 56.7483 25.6295C56.8531 25.4063 56.9361 25.1734 56.996 24.9341C57.0146 24.8626 57.0469 24.7953 57.091 24.736C57.2733 24.5201 57.6121 24.6172 57.8934 24.6449C58.1275 24.6646 58.3626 24.6214 58.5744 24.5197C58.7862 24.418 58.967 24.2615 59.0979 24.0664C59.3971 23.6127 59.4149 22.4518 58.7017 22.329C57.9568 22.2062 57.4932 23.2324 56.885 23.4582Z" fill="#965D7B"/>
<g opacity="0.1">
<path opacity="0.1" d="M56.3169 23.9139C56.3347 23.8168 56.3466 23.7158 56.3684 23.6187C56.1802 23.7831 56.1703 24.0625 56.1208 24.3101C56.0958 24.453 56.0567 24.593 56.0039 24.7281C56.1599 24.4795 56.2662 24.203 56.3169 23.9139Z" fill="black"/>
<path opacity="0.1" d="M56.3804 25.5503C56.479 25.2954 56.5456 25.0292 56.5785 24.7578C56.3801 24.8413 56.1654 24.8786 55.9505 24.8668C55.8879 25.0061 55.8116 25.1388 55.7227 25.263C55.9473 25.2804 56.1728 25.2437 56.3804 25.156C56.3475 25.4274 56.2809 25.6936 56.1823 25.9485C56.3057 25.9514 56.4273 25.9187 56.5327 25.8544C56.638 25.7902 56.7227 25.697 56.7766 25.5859C56.826 25.4959 56.8658 25.4009 56.8955 25.3026C56.8373 25.3839 56.7597 25.4491 56.6696 25.4924C56.5796 25.5357 56.4801 25.5556 56.3804 25.5503Z" fill="black"/>
<path opacity="0.1" d="M58.1198 24.2031C57.8385 24.1754 57.4978 24.0783 57.3155 24.2942C57.2721 24.354 57.2399 24.4211 57.2204 24.4923C57.2026 24.5439 57.1867 24.5973 57.1729 24.6508C57.3611 24.5023 57.6661 24.5815 57.9217 24.6073C58.1557 24.6264 58.3907 24.5829 58.6023 24.4812C58.814 24.3795 58.9948 24.2234 59.1262 24.0288C59.1863 23.9326 59.231 23.8277 59.2589 23.7177C59.1233 23.8857 58.9485 24.0177 58.7499 24.1024C58.5512 24.187 58.3349 24.2216 58.1198 24.2031Z" fill="black"/>
</g>
<path d="M62.8484 39.8201L65.8696 43.4535L65.4754 47.1205L61.8242 41.405L62.8484 39.8201Z" fill="#DCE6F2"/>
<path opacity="0.1" d="M65.8676 43.4535L65.4972 46.9026L65.4734 47.1205L62.1788 41.9617L61.8242 41.405L61.9272 41.2445L62.8465 39.8201L63.0505 40.0658L65.8676 43.4535Z" fill="black"/>
<path d="M67.4366 34.901C66.4143 35.1942 65.4377 36.2006 64.5878 37.423C64.0133 38.2664 63.4996 39.1495 63.0504 40.0658C62.7711 40.6244 62.5254 41.1613 62.3214 41.6289L62.1787 41.9617C61.834 42.7759 61.6419 43.3207 61.6419 43.3207C61.6419 43.3207 53.8165 37.4368 55.0547 37.0406C55.4707 36.9079 56.0175 36.0164 56.5584 34.8931L56.6257 34.7505C56.9685 34.0294 57.3052 33.225 57.6044 32.4683C58.2165 30.9131 58.6702 29.562 58.6702 29.562C58.6702 29.562 70.5568 34.0095 67.4366 34.901Z" fill="#EFB7B9"/>
<path d="M72.1182 29.2311C72.1182 29.2311 73.9249 32.5 76.3518 32.0542C78.7786 31.6085 77.7801 30.299 77.7801 30.299L72.1182 29.2311Z" fill="#444053"/>
<path d="M68.6176 142.382C67.0168 143.113 63.3974 142.382 63.3974 142.382L61.8719 142.287C59.8908 142.16 56.5745 141.946 55.4016 141.851C53.69 141.71 54.11 141.009 54.11 141.009V136.771L62.4147 134.667C62.4147 134.667 65.6974 135.791 66.5969 136.771C67.4507 137.706 67.9499 136.987 69.4734 137.257C69.5487 137.27 69.6279 137.286 69.7111 137.306C71.1573 137.637 71.9419 137.768 72.4054 138.966C72.4986 139.218 72.5734 139.476 72.6293 139.739C73.0572 141.668 70.2163 141.655 68.6176 142.382Z" fill="#A36468"/>
<path opacity="0.1" d="M72.4054 138.966C72.1078 139.152 71.795 139.313 71.4704 139.446C70.3807 139.943 69.3446 140.549 68.2431 141.019C67.1417 141.488 65.955 141.823 64.7623 141.734C64.1383 141.688 63.5004 141.536 62.9041 141.714C62.5353 141.856 62.188 142.049 61.8719 142.287C59.8908 142.16 56.5745 141.946 55.4016 141.851C53.69 141.71 54.11 141.009 54.11 141.009V140.513C54.1714 140.513 54.2407 140.496 54.32 140.49C54.73 140.483 55.1382 140.544 55.5284 140.67C56.3882 140.904 57.2441 141.134 58.1039 141.363C58.1746 141.097 58.2989 140.847 58.4692 140.63C58.6395 140.412 58.8522 140.232 59.0944 140.099C59.5852 139.839 60.136 139.713 60.6912 139.733C62.0245 139.751 63.2864 140.383 64.6177 140.446C64.9899 140.48 65.3646 140.418 65.7054 140.264C65.8876 140.173 66.0481 140.04 66.2264 139.939C66.5117 139.801 66.8132 139.699 67.1238 139.636C67.9968 139.419 68.854 139.142 69.6893 138.808C69.9271 138.715 70.2044 138.546 70.1727 138.293C70.1311 137.956 69.6022 137.916 69.4635 137.607C69.439 137.551 69.4277 137.491 69.4305 137.43C69.4332 137.369 69.4499 137.31 69.4793 137.257C69.5546 137.27 69.6339 137.286 69.7171 137.306C71.1573 137.637 71.9419 137.768 72.4054 138.966Z" fill="black"/>
<path d="M66.9257 151.653C65.0436 152.513 60.7843 151.653 60.7843 151.653L58.9914 151.548C56.6695 151.4 52.7588 151.152 51.378 151.035C49.3632 150.869 49.8585 150.045 49.8585 150.045V145.05L59.6313 142.574C59.6313 142.574 63.4944 143.895 64.5523 145.05C65.5567 146.15 66.1372 145.304 67.938 145.621C68.0272 145.637 68.1203 145.656 68.2174 145.678C69.9191 146.074 70.8423 146.223 71.3871 147.634C71.4974 147.93 71.5855 148.234 71.6506 148.543C72.1419 150.813 68.8077 150.795 66.9257 151.653Z" fill="#A36468"/>
<path opacity="0.1" d="M71.3832 147.634C71.0331 147.852 70.6653 148.041 70.2836 148.198C69.0019 148.783 67.7815 149.496 66.4859 150.049C65.1902 150.601 63.7936 150.994 62.389 150.89C61.6559 150.837 60.9051 150.653 60.2097 150.867C59.774 151.036 59.364 151.266 58.9914 151.548C56.6695 151.4 52.7588 151.152 51.378 151.035C49.3632 150.869 49.8585 150.045 49.8585 150.045V149.462C49.9405 149.449 50.0232 149.439 50.1061 149.434C50.5888 149.426 51.0695 149.497 51.5286 149.646L54.5577 150.463C54.642 150.148 54.7897 149.853 54.9917 149.598C55.1937 149.342 55.4458 149.13 55.7325 148.975C56.3099 148.667 56.9587 148.518 57.6125 148.543C59.1816 148.565 60.6654 149.308 62.2324 149.383C62.6689 149.423 63.1082 149.35 63.5083 149.171C63.7242 149.062 63.9045 148.905 64.1224 148.789C64.4575 148.624 64.8124 148.505 65.1783 148.432C66.2 148.174 67.2034 147.849 68.1817 147.457C68.461 147.346 68.7879 147.148 68.7503 146.851C68.7007 146.455 68.0787 146.407 67.9142 146.043C67.8865 145.977 67.8739 145.906 67.8774 145.834C67.8808 145.763 67.9002 145.694 67.9341 145.631C68.0232 145.647 68.1163 145.666 68.2134 145.688C69.9152 146.068 70.8384 146.223 71.3832 147.634Z" fill="black"/>
<path d="M62.6659 117.382L62.1369 129.829C62.1369 129.829 61.3445 132.371 61.7744 133.098C62.2043 133.825 62.9294 134.55 62.6659 134.98C62.4024 135.41 59.2326 140.058 58.2084 138.275C57.1842 136.492 56.1738 128.766 56.1738 128.766L57.1188 119.223L62.6659 117.382Z" fill="#444053"/>
<path d="M64.9599 86.37L66.4299 88.3353V105.428C66.4299 105.428 66.8598 109.985 66.4299 110.926C66 111.867 63.8208 113.749 63.8208 113.749L61.9883 104.339L62.3845 94.3836L64.9599 86.37Z" fill="#444053"/>
<path opacity="0.1" d="M62.6659 117.382L62.1369 129.829C62.1369 129.829 61.3445 132.371 61.7744 133.098C62.2043 133.825 62.9294 134.55 62.6659 134.98C62.4024 135.41 59.2326 140.058 58.2084 138.275C57.1842 136.492 56.1738 128.766 56.1738 128.766L57.1188 119.223L62.6659 117.382Z" fill="black"/>
<path opacity="0.1" d="M64.9599 86.37L66.4299 88.3353V105.428C66.4299 105.428 66.8598 109.985 66.4299 110.926C66 111.867 63.8208 113.749 63.8208 113.749L61.9883 104.339L62.3845 94.3836L64.9599 86.37Z" fill="black"/>
<path d="M66.4303 79.0796V88.3254L64.78 95.5227C64.78 95.5227 64.251 112.891 64.7126 115.003C65.1742 117.115 63.1278 119.098 63.1278 119.098C63.1278 119.098 61.9391 119.231 61.9391 120.154C61.9391 121.077 59.958 123.72 59.958 123.72L60.0234 128.871C60.0234 128.871 60.8832 138.513 59.5618 140.361C58.2404 142.209 60.0234 142.475 60.0234 142.475C58.3731 147.889 50.4487 146.635 49.7335 146.041C49.0184 145.446 49.7335 133.758 49.7335 133.758C49.7335 133.758 51.5046 115.928 52.8914 115.136C54.2782 114.343 52.9588 113.353 53.4204 112.164C53.882 110.975 52.9588 107.74 52.9588 107.74C52.9588 107.74 52.5625 103.909 51.572 102.06C50.5814 100.212 50.7122 95.1265 50.7122 95.1265C50.7122 95.1265 47.9387 91.4278 47.1145 89.9756C46.2904 88.5235 45.7594 84.7594 45.9576 81.9185C46.0923 79.9988 47.1007 77.2035 47.7405 75.5948C48.0476 74.8242 48.2695 74.3249 48.2695 74.3249L48.4577 74.3745L59.2785 77.2074L66.4303 79.0796Z" fill="#444053"/>
<path opacity="0.1" d="M67.4367 34.901C66.4145 35.1943 65.4378 36.2007 64.5879 37.423H64.366C63.1203 37.4239 61.8964 37.0959 60.818 36.4722C59.7396 35.8485 58.845 34.9511 58.2246 33.8709C57.9653 33.4233 57.7567 32.9482 57.6025 32.4544C58.2147 30.8992 58.6684 29.5481 58.6684 29.5481C58.6684 29.5481 70.557 34.0096 67.4367 34.901Z" fill="black"/>
<path d="M71.4481 29.9483C71.4498 31.0323 71.2028 32.1022 70.7259 33.0756C70.249 34.0491 69.555 34.9001 68.6974 35.563C67.8398 36.226 66.8415 36.6833 65.7793 36.8997C64.7171 37.116 63.6195 37.0857 62.5709 36.811C61.5223 36.5363 60.5507 36.0246 59.7311 35.3153C58.9114 34.6059 58.2655 33.7179 57.8431 32.7196C57.4207 31.7213 57.233 30.6394 57.2947 29.5572C57.3563 28.4749 57.6655 27.4213 58.1985 26.4774C58.4132 26.0939 58.6639 25.7317 58.9473 25.3957C59.4145 24.8392 59.9636 24.3569 60.5758 23.9654C61.6098 23.3083 62.7966 22.9306 64.0203 22.8694C65.2439 22.8081 66.4625 23.0653 67.557 23.6159C68.6515 24.1664 69.5844 24.9915 70.2647 26.0104C70.945 27.0293 71.3493 28.2073 71.4382 29.4292C71.4421 29.6036 71.4481 29.7759 71.4481 29.9483Z" fill="#EFB7B9"/>
<path opacity="0.1" d="M65.4971 46.9025L65.4733 47.1205L62.1787 41.9696C61.834 42.7838 61.6419 43.3286 61.6419 43.3286C61.6419 43.3286 53.8165 37.4369 55.0547 37.0406C55.4707 36.9079 56.0175 36.0164 56.5584 34.8931L56.6257 34.7505C57.2002 36.4622 60.5384 39.8835 61.9271 41.2544C62.0876 41.4129 62.2203 41.5437 62.3234 41.6388L62.5353 41.8369L62.6463 41.9478C63.1515 42.4688 65.2831 44.7669 65.4971 46.9025Z" fill="black"/>
<path d="M67.96 64.3798L67.5995 75.9831L67.5361 78.0494C67.5361 78.0494 63.2648 77.6532 59.2788 77.2173C56.0695 76.8667 53.0443 76.4883 52.5788 76.2664C51.9844 75.9871 50.7106 75.7711 49.7062 75.6344C48.9296 75.5294 48.3194 75.474 48.3194 75.474C48.3194 75.474 48.0916 75.5413 47.7409 75.6047C46.9762 75.7434 45.633 75.8563 44.8505 75.1768C43.85 74.3071 46.479 71.1472 47.1347 70.3885L47.2793 70.2241L47.0317 67.9359L46.3878 62.0025C46.3878 62.0025 45.9916 58.5851 45.3973 56.7526C45.2384 56.2316 45.1237 55.6981 45.0545 55.1578C44.8337 53.4841 44.9468 51.7832 45.3874 50.1535C45.5756 49.461 45.695 48.7517 45.744 48.0357C45.843 46.2032 51.4396 39.1208 52.8264 38.4769C53.4502 38.186 53.9522 37.6854 54.2449 37.0624C54.3415 36.8665 54.414 36.6596 54.4608 36.4463C55.0551 33.8709 56.5588 34.8931 56.5588 34.8931C56.9213 36.9079 62.5338 42.241 62.5338 42.241L62.6447 42.352C63.2014 42.9225 65.6817 45.601 65.5054 47.8872C65.4702 48.7381 65.5973 49.5879 65.8799 50.3913C67.0215 53.9859 67.6777 57.717 67.8312 61.4854L67.96 64.3798Z" fill="#DCE6F2"/>
<path opacity="0.1" d="M60.0079 50.6013C60.0079 50.6013 58.6211 53.9691 57.581 54.5139C56.541 55.0587 60.5032 55.663 60.0079 50.6013Z" fill="black"/>
<path opacity="0.1" d="M61.0477 56.8913C61.0477 56.8913 57.8779 57.2875 57.8779 57.8818C57.8779 58.4762 61.0477 56.8913 61.0477 56.8913Z" fill="black"/>
<path opacity="0.1" d="M64.3657 60.7544C64.3657 60.7544 59.7597 70.5608 58.472 70.858C57.1842 71.1552 64.3657 60.7544 64.3657 60.7544Z" fill="black"/>
<path opacity="0.1" d="M62.4468 42.7383L58.6372 44.3945L54.0391 37.4487C54.1357 37.2528 54.2082 37.046 54.255 36.8326C54.8493 34.2572 56.353 35.2794 56.353 35.2794C56.7155 37.2942 62.328 42.6273 62.328 42.6273L62.4468 42.7383Z" fill="black"/>
<path d="M62.6451 42.3421L58.8354 43.9983L54.2373 37.0525C54.3339 36.8566 54.4064 36.6497 54.4532 36.4364C55.0476 33.861 56.5512 34.8832 56.5512 34.8832C56.9138 36.898 62.5262 42.2311 62.5262 42.2311L62.6451 42.3421Z" fill="#DCE6F2"/>
<path opacity="0.1" d="M67.5361 78.0494C67.5361 78.0494 63.2649 77.6532 59.2789 77.2174L66.4307 79.0895V81.2687C66.1177 81.552 65.8463 81.6986 65.6699 81.6233C64.8458 81.2766 58.12 80.187 58.12 80.187C58.12 80.187 54.2132 78.2059 49.9975 75.8286C49.8951 75.7719 49.7959 75.7098 49.7003 75.6424C49.2087 75.3086 48.7852 74.8844 48.4522 74.3923C47.6736 73.2651 47.2933 71.8169 47.1288 70.3964C47.0364 69.5824 47.002 68.7628 47.0258 67.9438C47.0462 67.0152 47.131 66.0892 47.2794 65.1723C46.8717 61.621 46.6732 58.0489 46.6851 54.4743C46.7346 48.9272 51.935 46.9461 51.935 46.9461C61.4938 46.1042 58.5301 61.5568 58.5301 61.5568C58.5301 61.5568 57.9773 65.9152 57.8268 66.3609C57.6762 66.8067 57.1354 67.5496 57.2087 68.5897C57.282 69.6298 59.1085 70.8739 59.1085 70.8739C59.1085 70.8739 60.8915 71.7099 61.6265 72.9481C62.1614 73.8614 65.6363 75.0996 67.5995 75.9831L67.5361 78.0494Z" fill="black"/>
<path opacity="0.1" d="M70.7372 25.5502C70.7409 25.8766 70.6732 26.1997 70.5391 26.4972C70.4375 26.74 70.3197 26.9756 70.1865 27.2025C69.978 27.6199 69.682 27.9874 69.3187 28.2802C68.8611 28.6071 68.2826 28.6982 67.7339 28.8309C67.1851 28.9637 66.6145 29.1757 66.3015 29.6432C66.1319 29.9438 66.0184 30.2727 65.9667 30.6139C65.9142 30.9549 65.7781 31.2775 65.5705 31.553C65.4624 31.6875 65.3127 31.7823 65.1448 31.8224C64.977 31.8626 64.8006 31.8459 64.6433 31.7749C64.4777 31.6632 64.352 31.5014 64.2848 31.3133C64.0589 30.8041 64.0015 30.2395 63.9103 29.6907C63.8192 29.142 63.6904 28.5774 63.3536 28.1356C63.0169 27.6938 62.4205 27.4026 61.8916 27.5749C61.7145 27.6431 61.5531 27.7463 61.4169 27.8784C61.2807 28.0105 61.1727 28.1687 61.0992 28.3436C60.9528 28.6937 60.8522 29.0613 60.8 29.4372C60.5543 30.7817 60.2644 32.1183 59.9303 33.4469C59.9201 33.5014 59.8978 33.5528 59.8649 33.5975C59.8123 33.65 59.7412 33.6798 59.6668 33.6807C59.223 33.7401 58.7971 33.4291 58.3494 33.4628C58.3032 33.4658 58.2575 33.4731 58.2127 33.4846C57.4888 32.2265 57.1692 30.7763 57.2971 29.3305C57.425 27.8846 57.9943 26.5131 58.9279 25.4017L58.9635 25.3918C59.2613 25.286 59.532 25.1155 59.756 24.8925C60.0419 24.6063 60.3068 24.2998 60.5484 23.9753L60.7069 23.7772C61.1623 23.2286 61.6809 22.7358 62.2521 22.3092C62.4081 22.1814 62.5869 22.0846 62.7791 22.0239C62.9436 21.9918 63.1122 21.9865 63.2784 22.008C63.9625 22.0902 64.6523 22.116 65.3407 22.0853C65.8204 22.0099 66.3038 21.961 66.7889 21.9387C68.0429 21.9744 69.1127 22.8599 69.9051 23.8307C70.3311 24.3279 70.7115 24.9004 70.7372 25.5502Z" fill="black"/>
<path d="M57.2735 26.6656C56.9982 27.1173 56.5009 27.4244 56.3147 27.9196C56.0413 28.6388 56.5029 29.5342 56.0789 30.1761C55.9383 30.3921 55.7065 30.5525 55.6272 30.8002C55.4925 31.2182 55.861 31.6639 55.7659 32.0938C55.6708 32.5237 55.1042 32.8863 55.2548 33.3063C55.3438 33.4894 55.4998 33.6313 55.6906 33.7025C55.9908 33.8747 56.3363 33.9514 56.6812 33.9224C57.222 33.8332 57.6242 33.3023 58.173 33.2627C58.6187 33.231 59.0446 33.54 59.4884 33.4826C59.5628 33.48 59.6335 33.4496 59.6865 33.3974C59.7202 33.3532 59.7426 33.3016 59.7519 33.2468C60.0847 31.9195 60.3753 30.5829 60.6236 29.2371C60.6742 28.8611 60.7741 28.4934 60.9207 28.1435C60.9948 27.969 61.1031 27.8111 61.2392 27.679C61.3753 27.547 61.5365 27.4436 61.7132 27.3748C62.2421 27.2045 62.8365 27.4937 63.1752 27.9355C63.514 28.3773 63.6428 28.9419 63.7339 29.4907C63.825 30.0394 63.8825 30.604 64.1063 31.1132C64.1744 31.302 64.3006 31.4643 64.4669 31.5768C64.7641 31.7491 65.1643 31.6124 65.3921 31.3549C65.6008 31.0793 65.737 30.7557 65.7883 30.4138C65.84 30.0732 65.9534 29.7449 66.1231 29.4451C66.4361 28.9776 67.0087 28.7656 67.5554 28.6328C68.1022 28.5001 68.6787 28.407 69.1403 28.0801C69.5031 27.7877 69.799 27.4208 70.008 27.0044C70.3012 26.4933 70.5746 25.9385 70.5509 25.3502C70.5251 24.7083 70.1447 24.1357 69.7386 23.6365C68.9462 22.6658 67.8744 21.7802 66.6204 21.7465C66.1352 21.7668 65.6516 21.8158 65.1722 21.8931C64.4837 21.9241 63.7939 21.8976 63.1099 21.8139C62.9435 21.794 62.7751 21.8 62.6106 21.8317C62.4182 21.8905 62.2396 21.9875 62.0856 22.117C61.5139 22.5429 60.9945 23.035 60.5384 23.583C60.2443 23.973 59.9253 24.3436 59.5835 24.6924C59.3594 24.9158 59.0889 25.0869 58.7911 25.1936C58.5929 25.2491 58.3948 25.2095 58.2066 25.2709C57.6222 25.4552 57.5449 26.2179 57.2735 26.6656Z" fill="#965D7B"/>
<path opacity="0.1" d="M76.3518 32.0522C74.7669 32.3434 73.4534 31.0617 72.7264 30.1266C72.5031 29.8426 72.2998 29.5434 72.1182 29.2311L77.5583 30.2573L77.7782 30.299C77.7782 30.299 78.7786 31.6085 76.3518 32.0522Z" fill="black"/>
<g opacity="0.1">
<path opacity="0.1" d="M55.7655 31.5272C55.7877 31.2681 55.7483 31.0075 55.6506 30.7665C55.6506 30.7863 55.6328 30.8061 55.6268 30.8259C55.5416 31.0914 55.6565 31.3668 55.7298 31.6421C55.7456 31.6051 55.7575 31.5666 55.7655 31.5272Z" fill="black"/>
<path opacity="0.1" d="M56.2377 28.2842C56.2173 28.5581 56.2226 28.8334 56.2536 29.1063C56.2739 28.8324 56.2686 28.5571 56.2377 28.2842Z" fill="black"/>
<path opacity="0.1" d="M69.9961 26.4318C69.7875 26.8492 69.4916 27.2168 69.1283 27.5096C68.6707 27.8364 68.0942 27.9276 67.5435 28.0603C66.9927 28.193 66.4241 28.405 66.1111 28.8726C65.9418 29.1732 65.8283 29.5021 65.7763 29.8433C65.7247 30.1851 65.5885 30.5086 65.3801 30.7843C65.1523 31.0419 64.7521 31.1805 64.4549 31.0062C64.2886 30.8938 64.1624 30.7315 64.0944 30.5426C63.8705 30.0335 63.8111 29.4708 63.7219 28.9201C63.6328 28.3694 63.5 27.8067 63.1632 27.3649C62.8264 26.9231 62.2301 26.6319 61.7012 26.8043C61.5243 26.8727 61.363 26.9761 61.2269 27.1081C61.0907 27.2402 60.9825 27.3982 60.9087 27.573C60.7621 27.9228 60.6622 28.2905 60.6116 28.6665C60.3646 30.0123 60.074 31.3489 59.7399 32.6763C59.7306 32.731 59.7082 32.7827 59.6745 32.8268C59.6215 32.879 59.5508 32.9094 59.4764 32.912C59.0326 32.9695 58.6067 32.6604 58.1609 32.6921C57.6122 32.7317 57.21 33.2627 56.6692 33.3498C56.3242 33.3808 55.9781 33.304 55.6786 33.1299C55.5409 33.0707 55.4174 32.9829 55.3161 32.8724C55.2697 32.9388 55.239 33.0148 55.2263 33.0948C55.2136 33.1747 55.2193 33.2565 55.2428 33.334C55.33 33.5184 55.4867 33.6609 55.6786 33.7302C55.9781 33.9042 56.3242 33.9811 56.6692 33.9501C57.21 33.8629 57.6122 33.332 58.1609 33.2924C58.6067 33.2607 59.0326 33.5697 59.4764 33.5123C59.5508 33.5097 59.6215 33.4793 59.6745 33.4271C59.7082 33.383 59.7306 33.3313 59.7399 33.2765C60.0727 31.9558 60.3633 30.6192 60.6116 29.2668C60.6622 28.8908 60.7621 28.5231 60.9087 28.1732C60.9825 27.9985 61.0907 27.8404 61.2269 27.7084C61.363 27.5763 61.5243 27.473 61.7012 27.4046C62.2301 27.2322 62.8245 27.5234 63.1632 27.9652C63.502 28.407 63.6308 28.9716 63.7219 29.5204C63.813 30.0691 63.8705 30.6338 64.0944 31.1429C64.1624 31.3317 64.2886 31.4941 64.4549 31.6065C64.7521 31.7788 65.1523 31.6421 65.3801 31.3846C65.5885 31.1088 65.7247 30.7854 65.7763 30.4436C65.8283 30.1024 65.9418 29.7735 66.1111 29.4728C66.4241 29.0053 66.9967 28.7953 67.5435 28.6606C68.0902 28.5259 68.6667 28.4367 69.1283 28.1098C69.4916 27.8171 69.7875 27.4495 69.9961 27.0321C70.2893 26.523 70.5627 25.9683 70.5389 25.3799C70.535 25.3042 70.527 25.2288 70.5151 25.154C70.4195 25.6075 70.2437 26.0402 69.9961 26.4318Z" fill="black"/>
</g>
<path opacity="0.1" d="M70.5465 26.4913C71.0546 27.3946 71.3557 28.3994 71.4281 29.4332C69.663 28.4427 68.0028 27.355 67.1648 26.9766C65.7047 26.3169 60.2448 26.416 58.1924 26.4774C58.4071 26.0939 58.6578 25.7317 58.9412 25.3957C59.4102 24.8387 59.9613 24.3564 60.5756 23.9654C61.3892 23.4491 62.2994 23.1041 63.2508 22.9515C64.2022 22.799 65.1747 22.842 66.1089 23.0781C67.043 23.3141 67.9192 23.7382 68.684 24.3244C69.4487 24.9106 70.0858 25.6465 70.5564 26.4873L70.5465 26.4913Z" fill="black"/>
<path opacity="0.1" d="M76.8471 31.2122C75.8941 31.5054 74.339 30.9389 72.7264 30.1266C72.5031 29.8426 72.2998 29.5434 72.1182 29.2311L77.5583 30.2574C77.9188 30.503 78.01 30.8537 76.8471 31.2122Z" fill="black"/>
<path d="M64.7887 19.6228C64.7887 19.6228 59.5883 19.3256 58.1263 22.1487L57.8905 24.6508L57.4943 24.6073L57.415 26.309C57.415 26.309 65.3632 25.9623 67.172 26.7785C68.9807 27.5947 74.6011 31.7075 76.8536 31.0141C79.1061 30.3207 76.6555 29.6769 76.6555 29.6769C76.6555 29.6769 73.5551 28.3634 73.5551 27.3332C73.5551 26.3031 72.7864 20.861 64.7887 19.6228Z" fill="#444053"/>
<path opacity="0.1" d="M54.7568 112.378C54.7568 112.378 58.0752 115.597 59.5115 115.35C59.5115 115.35 55.4502 115.003 54.7568 112.378Z" fill="black"/>
<path opacity="0.1" d="M54.0635 113.87C54.0635 113.87 54.3606 115.526 55.1531 115.363C55.9455 115.201 54.0635 113.87 54.0635 113.87Z" fill="black"/>
<path opacity="0.1" d="M59.2647 141.55C59.2647 141.55 54.5536 145.215 55.3481 145.314C56.1425 145.413 59.2647 141.55 59.2647 141.55Z" fill="black"/>
<path d="M65.5664 68.8096L80.8209 66.3272V80.7695L66.3271 80.0107L65.5664 68.8096Z" fill="#C4C4C4"/>
<path opacity="0.05" d="M65.5664 68.8096L80.8209 66.3272V80.7695L66.3271 80.0107L65.5664 68.8096Z" fill="black"/>
<path d="M80.8213 66.3272L99.1148 67.6962L98.1024 80.2643L80.8213 80.7695V66.3272Z" fill="#C4C4C4"/>
<path opacity="0.1" d="M80.8213 66.3272L99.1148 67.6962L98.1024 80.2643L80.8213 80.7695V66.3272Z" fill="black"/>
<path d="M86.4456 61.9193L80.8213 66.3272L99.1148 67.6962L102.104 63.1852L86.4456 61.9193Z" fill="#C4C4C4"/>
<path d="M60.043 63.9955L73.776 62.3234L80.8207 66.3272L65.5663 68.8096L60.043 63.9955Z" fill="#C4C4C4"/>
<path d="M84.165 70.0775V89.8231L77.0191 89.0901L73.9108 88.7731L72.9638 88.6741L69.8575 88.3551L65.5664 87.9153V68.8096L80.8189 69.8477L84.165 70.0775Z" fill="#C4C4C4"/>
<path d="M99.1144 67.6962V86.9525L93.3871 88.052L90.6016 88.5869L84.165 89.8231V70.0775L99.1144 67.6962Z" fill="#C4C4C4"/>
<path opacity="0.05" d="M99.1144 67.6962V86.9525L93.3871 88.052L90.6016 88.5869L84.165 89.8231V70.0775L99.1144 67.6962Z" fill="black"/>
<path d="M60.043 72.9659L65.5663 68.8096L84.1648 70.0775L81.427 74.6895L60.043 72.9659Z" fill="#C4C4C4"/>
<path opacity="0.1" d="M60.043 72.9659L65.5663 68.8096L84.1648 70.0775L81.427 74.6895L60.043 72.9659Z" fill="white"/>
<path d="M99.1144 67.6962L84.165 70.0775L89.0306 74.4359L105.044 71.7495L99.1144 67.6962Z" fill="#C4C4C4"/>
<path opacity="0.1" d="M99.1144 67.6962L84.165 70.0775L89.0306 74.4359L105.044 71.7495L99.1144 67.6962Z" fill="white"/>
<path opacity="0.1" d="M93.387 88.052L90.6016 88.5869V84.4721L93.2107 83.8144L93.387 88.052Z" fill="white"/>
<path opacity="0.1" d="M77.0195 86.368V89.0901L73.9111 88.7731V86.368H77.0195Z" fill="white"/>
<path opacity="0.1" d="M72.9638 87.2259V88.6741L69.8574 88.3551V87.2259H72.9638Z" fill="white"/>
<path opacity="0.1" d="M82.2943 84.9238C80.1646 87.6478 73.1317 85.7658 73.1317 85.7658L67.9055 80.3138L67.1963 79.5749L68.5831 76.9994C68.5831 76.9994 68.9793 77.1302 69.641 77.36C73.1436 78.5843 84.0872 82.6317 82.2943 84.9238Z" fill="black"/>
<path d="M82.096 84.5276C79.9663 87.2516 72.9334 85.3696 72.9334 85.3696L67.7073 79.9176L66.998 79.1786L68.3848 76.6032C68.3848 76.6032 68.781 76.734 69.4427 76.9638C72.9453 78.1881 83.8889 82.2355 82.096 84.5276Z" fill="#EFB7B9"/>
<path opacity="0.1" d="M69.4349 76.9638C69.1457 77.7958 68.4107 79.0281 67.6995 79.9176L66.9902 79.1786L68.377 76.6032C68.377 76.6032 68.7752 76.734 69.4349 76.9638Z" fill="black"/>
<path d="M52.1322 46.1537C52.1322 46.1537 46.9319 48.1348 46.8823 53.6819C46.8705 57.2564 47.069 60.8286 47.4767 64.3798C47.4767 64.3798 45.9908 72.6509 50.2007 75.0282C54.4105 77.4056 58.3232 79.3867 58.3232 79.3867C58.3232 79.3867 65.049 80.4763 65.8751 80.823C66.7013 81.1697 69.5719 76.7122 69.1261 75.9693C68.6804 75.2264 62.5568 73.3938 61.8297 72.1557C61.1027 70.9175 59.3118 70.0834 59.3118 70.0834C59.3118 70.0834 57.4852 68.8373 57.4119 67.7972C57.3386 66.7571 57.8774 66.0142 58.03 65.5685C58.1825 65.1227 58.7353 60.7643 58.7353 60.7643C58.7353 60.7643 61.6911 45.3018 52.1322 46.1537Z" fill="#DCE6F2"/>
<path opacity="0.1" d="M54.5104 64.5185C54.5104 64.5185 47.4775 65.3109 48.0223 67.7873C48.0223 67.7873 50.6948 65.2891 54.5104 64.5185Z" fill="black"/>
<path opacity="0.1" d="M54.5099 65.509C54.5099 65.509 50.518 68.4312 51.251 68.6293C51.984 68.8274 54.5099 65.509 54.5099 65.509Z" fill="black"/>
<path opacity="0.1" d="M56.293 66.6977C56.293 66.6977 55.1539 68.7462 55.7978 68.6392C56.4416 68.5322 56.293 66.6977 56.293 66.6977Z" fill="black"/>
<path d="M129.518 22.2656C129.518 22.2656 121.99 21.8119 122.869 27.0935C122.869 27.0935 122.693 28.0266 123.539 28.4506C123.539 28.4506 123.553 28.0544 124.312 28.1911C124.582 28.2365 124.856 28.2498 125.13 28.2307C125.5 28.206 125.852 28.0605 126.132 27.8166C126.132 27.8166 128.25 26.943 129.074 23.48C129.074 23.48 129.684 22.7232 129.668 22.5291L128.397 23.0739C128.397 23.0739 128.83 23.9911 128.488 24.7538C128.488 24.7538 128.448 23.1076 128.202 23.1452C128.153 23.1452 127.543 23.4642 127.543 23.4642C127.543 23.4642 128.29 25.0609 127.725 26.2238C127.725 26.2238 127.939 24.2546 127.309 23.5791L126.414 24.1021C126.414 24.1021 127.287 25.7523 126.695 27.0995C126.695 27.0995 126.847 25.0332 126.225 24.2289L125.413 24.8608C125.413 24.8608 126.235 26.4893 125.734 27.6066C125.734 27.6066 125.669 25.2016 125.237 25.0193C125.237 25.0193 124.528 25.6453 124.421 25.9029C124.421 25.9029 124.981 27.0915 124.633 27.7077C124.633 27.7077 124.419 26.105 124.236 26.097C124.236 26.097 123.529 27.1589 123.456 27.88C123.49 27.2077 123.7 26.5561 124.064 25.9901C123.656 26.0672 123.28 26.2621 122.982 26.5507C122.982 26.5507 123.091 25.7999 124.238 25.7345C124.238 25.7345 124.833 24.9282 124.979 24.8787C124.979 24.8787 123.838 24.7836 123.147 25.0906C123.147 25.0906 123.755 24.3834 125.189 24.6944L125.982 24.0407C125.982 24.0407 124.48 23.8425 123.842 24.0624C123.842 24.0624 124.575 23.4364 126.198 23.8921L127.069 23.371C127.069 23.371 125.789 23.0937 125.027 23.1947C125.027 23.1947 125.831 22.7609 127.325 23.2304L127.949 22.951C127.949 22.951 127.01 22.7668 126.736 22.7371C126.463 22.7074 126.447 22.6321 126.447 22.6321C127.041 22.5332 127.651 22.6018 128.208 22.8302C128.208 22.8302 129.546 22.3488 129.518 22.2656Z" fill="#C4C4C4"/>
<path opacity="0.1" d="M152.392 48.6816C152.392 48.6816 144.864 48.2279 145.743 53.5095C145.743 53.5095 145.567 54.4426 146.413 54.8666C146.413 54.8666 146.427 54.4704 147.188 54.607C147.458 54.6525 147.732 54.6658 148.006 54.6467C148.372 54.6201 148.719 54.4755 148.996 54.2346C148.996 54.2346 151.116 53.359 151.94 49.896C151.94 49.896 152.548 49.1412 152.525 48.947L151.253 49.4899C151.253 49.4899 151.687 50.4071 151.346 51.1698C151.346 51.1698 151.304 49.5235 151.061 49.5612C151.011 49.5612 150.399 49.8801 150.399 49.8801C150.399 49.8801 151.148 51.4789 150.583 52.6398C150.583 52.6398 150.797 50.6706 150.165 49.995L149.28 50.5121C149.28 50.5121 150.153 52.1624 149.561 53.5095C149.561 53.5095 149.713 51.4432 149.091 50.6389L148.281 51.2729C148.281 51.2729 149.101 52.8993 148.602 54.0167C148.602 54.0167 148.537 51.6116 148.105 51.4294C148.105 51.4294 147.396 52.0554 147.287 52.3129C147.287 52.3129 147.849 53.5016 147.501 54.1177C147.501 54.1177 147.287 52.515 147.104 52.5071C147.104 52.5071 146.397 53.5689 146.324 54.2901C146.359 53.6177 146.57 52.9662 146.934 52.4001C146.526 52.4774 146.149 52.6723 145.85 52.9607C145.85 52.9607 145.961 52.2099 147.108 52.1445C147.108 52.1445 147.693 51.3382 147.849 51.2887C147.849 51.2887 146.708 51.1936 146.017 51.5007C146.017 51.5007 146.625 50.7934 148.057 51.1144L148.85 50.4606C148.85 50.4606 147.346 50.2625 146.71 50.4824C146.71 50.4824 147.443 49.8564 149.066 50.312L149.937 49.791C149.937 49.791 148.656 49.5156 147.893 49.6147C147.893 49.6147 148.699 49.1808 150.193 49.6503L150.817 49.371C150.817 49.371 149.878 49.1868 149.603 49.157C149.327 49.1273 149.313 49.052 149.313 49.052C149.908 48.9531 150.519 49.0217 151.077 49.2502C151.077 49.2502 152.416 48.7648 152.392 48.6816Z" fill="#C4C4C4"/>
<path opacity="0.1" d="M106.659 43.9923C106.659 43.9923 108.392 36.6444 103.035 36.6187C103.035 36.6187 102.146 36.2858 101.585 37.0466C101.585 37.0466 101.968 37.1278 101.708 37.8529C101.618 38.1093 101.558 38.3752 101.53 38.6453C101.491 39.0136 101.574 39.3843 101.765 39.7012C101.765 39.7012 102.267 41.9399 105.53 43.3425C105.53 43.3425 106.171 44.0715 106.366 44.0795L106.049 42.7343C106.049 42.7343 105.07 43.0057 104.377 42.5362C104.377 42.5362 106.007 42.7759 106.009 42.5362C106.009 42.4867 105.811 41.8309 105.811 41.8309C105.811 41.8309 104.109 42.2945 103.059 41.5397C103.059 41.5397 104.963 42.0865 105.738 41.5813L105.381 40.6066C105.381 40.6066 103.598 41.1871 102.378 40.3728C102.378 40.3728 104.388 40.876 105.288 40.4006L104.802 39.4932C104.802 39.4932 103.059 40.0242 102.043 39.3407C102.043 39.3407 104.42 39.6854 104.678 39.2931C104.678 39.2931 104.182 38.4868 103.947 38.3363C103.947 38.3363 102.687 38.6889 102.132 38.2392C102.132 38.2392 103.747 38.3006 103.784 38.1302C103.784 38.1302 102.859 37.2526 102.154 37.0545C102.811 37.2041 103.418 37.5223 103.915 37.9777C103.908 37.5625 103.78 37.1584 103.546 36.8148C103.546 36.8148 104.268 37.0525 104.141 38.2016C104.141 38.2016 104.834 38.9147 104.856 39.0772C104.856 39.0772 105.143 37.9698 104.959 37.2348C104.959 37.2348 105.553 37.9559 104.993 39.3129L105.5 40.2143C105.5 40.2143 105.959 38.7681 105.843 38.1025C105.843 38.1025 106.336 38.9306 105.609 40.4521L105.975 41.401C105.975 41.401 106.465 40.1846 106.496 39.4199C106.496 39.4199 106.788 40.2877 106.068 41.6804L106.239 42.342C106.239 42.342 106.58 41.4486 106.655 41.1831C106.73 40.9176 106.807 40.9157 106.807 40.9157C106.804 41.5184 106.634 42.1083 106.314 42.6194C106.314 42.6194 106.574 44.0022 106.659 43.9923Z" fill="#C4C4C4"/>
<path opacity="0.1" d="M90.1714 46.4964C90.1714 46.4964 84.1251 41.9736 81.9637 46.8728C81.9637 46.8728 81.304 47.5563 81.7775 48.3745C81.7775 48.3745 82.0033 48.0556 82.5699 48.5845C82.7706 48.7712 82.9927 48.9335 83.2316 49.0679C83.5552 49.2481 83.9287 49.3176 84.2955 49.266C84.2955 49.266 86.546 49.6999 89.1373 47.2611C89.1373 47.2611 90.0625 46.964 90.1496 46.7896L88.7847 46.5499C88.7847 46.5499 88.642 47.5543 87.9387 48.0041C87.9387 48.0041 88.8084 46.6054 88.5826 46.5044C88.537 46.4826 87.8555 46.4053 87.8555 46.4053C87.8555 46.4053 87.6019 48.1526 86.4925 48.8123C86.4925 48.8123 87.7545 47.2849 87.598 46.3736L86.5619 46.3181C86.5619 46.3181 86.3855 48.1784 85.1493 48.9788C85.1493 48.9788 86.4113 47.3364 86.338 46.3221L85.3118 46.4053C85.3118 46.4053 85.1038 48.2141 84.0716 48.8718C84.0716 48.8718 85.3375 46.8273 85.078 46.439C85.078 46.439 84.141 46.5717 83.9092 46.7262C83.9092 46.7262 83.7289 48.0219 83.0949 48.3507C83.0949 48.3507 83.7982 46.8946 83.6556 46.7936C83.6556 46.7936 82.4808 47.2909 82.0192 47.8575C82.4185 47.315 82.9525 46.8861 83.5684 46.6133C83.1852 46.454 82.7639 46.41 82.356 46.4865C82.356 46.4865 82.8592 45.9199 83.8537 46.4964C83.8537 46.4964 84.7848 46.1458 84.9433 46.1894C84.9433 46.1894 84.0419 45.4821 83.295 45.3593C83.295 45.3593 84.1944 45.1017 85.2147 46.1517L86.2429 46.0467C86.2429 46.0467 85.0998 45.0562 84.4441 44.8898C84.4441 44.8898 85.4009 44.7689 86.5044 46.0408L87.5187 46.0863C87.5187 46.0863 86.6015 45.1513 85.9101 44.8145C85.9101 44.8145 86.8194 44.8937 87.8099 46.1081L88.4855 46.2171C88.4855 46.2171 87.802 45.5475 87.5881 45.3731C87.3741 45.1988 87.4038 45.1255 87.4038 45.1255C87.955 45.3696 88.4275 45.7619 88.7688 46.2587C88.7688 46.2587 90.1457 46.5777 90.1714 46.4964Z" fill="#C4C4C4"/>
<path opacity="0.1" d="M110.301 4.4753C110.301 4.4753 104.255 -0.0495319 102.094 4.85171C102.094 4.85171 101.434 5.53519 101.907 6.35338C101.907 6.35338 102.133 6.03443 102.7 6.56338C102.902 6.74912 103.124 6.91068 103.363 7.04479C103.687 7.22509 104.061 7.29467 104.427 7.2429C104.427 7.2429 106.678 7.67676 109.269 5.23604C109.269 5.23604 110.194 4.94086 110.28 4.76454L108.915 4.52879C108.915 4.52879 108.774 5.53321 108.069 5.98292C108.069 5.98292 108.94 4.58426 108.714 4.48323C108.669 4.46143 107.987 4.38417 107.987 4.38417C107.987 4.38417 107.726 6.13546 106.616 6.79121C106.616 6.79121 107.876 5.26378 107.722 4.35247L106.686 4.297C106.686 4.297 106.507 6.15725 105.273 6.95564C105.273 6.95564 106.535 5.31331 106.462 4.29898L105.438 4.38219C105.438 4.38219 105.228 6.19291 104.196 6.85064C104.196 6.85064 105.463 4.80614 105.204 4.41785C105.204 4.41785 104.267 4.55058 104.035 4.70511C104.035 4.70511 103.855 6.00075 103.221 6.32961C103.221 6.32961 103.924 4.8735 103.782 4.77048C103.782 4.77048 102.607 5.26972 102.145 5.83632C102.544 5.29324 103.078 4.86425 103.694 4.59219C103.311 4.43173 102.888 4.38763 102.48 4.4654C102.48 4.4654 102.985 3.8988 103.98 4.4753C103.98 4.4753 104.911 4.12267 105.069 4.16823C105.069 4.16823 104.168 3.46098 103.421 3.33617C103.421 3.33617 104.318 3.08061 105.339 4.12861L106.367 4.02361C106.367 4.02361 105.226 3.03306 104.568 2.86467C104.568 2.86467 105.525 2.7458 106.63 4.01767L107.645 4.06125C107.645 4.06125 106.727 3.12617 106.034 2.79137C106.034 2.79137 106.945 2.87061 107.936 4.08502L108.609 4.19398C108.609 4.19398 107.924 3.5323 107.71 3.36192C107.496 3.19155 107.526 3.11627 107.526 3.11627C108.077 3.36006 108.55 3.75242 108.891 4.24946C108.891 4.24946 110.268 4.55058 110.301 4.4753Z" fill="#C4C4C4"/>
<path opacity="0.1" d="M133.405 10.2066C133.405 10.2066 130.988 3.05288 126.429 5.86406C126.429 5.86406 125.498 6.06217 125.425 6.99527C125.425 6.99527 125.791 6.86056 125.954 7.61338C126.014 7.88117 126.105 8.14109 126.225 8.38799C126.389 8.72026 126.656 8.99061 126.986 9.15863C126.986 9.15863 128.595 10.793 132.113 10.2522C132.113 10.2522 133.042 10.5335 133.213 10.4364L132.222 9.46372C132.222 9.46372 131.536 10.2106 130.7 10.1809C130.7 10.1809 132.212 9.52316 132.087 9.31118C132.061 9.26958 131.544 8.81987 131.544 8.81987C131.544 8.81987 130.344 10.1135 129.056 10.0283C129.056 10.0283 130.96 9.48552 131.348 8.64157L130.528 8.0096C130.528 8.0096 129.328 9.43995 127.856 9.39637C127.856 9.39637 129.837 8.76043 130.338 7.88082L129.446 7.36772C129.446 7.36772 128.258 8.74062 127.026 8.69704C127.026 8.69704 129.229 7.73224 129.234 7.2647C129.234 7.2647 128.389 6.84273 128.109 6.83877C128.109 6.83877 127.226 7.80356 126.524 7.71639C126.524 7.71639 127.927 6.91405 127.867 6.74962C127.867 6.74962 126.619 6.49405 125.916 6.70009C126.552 6.47861 127.235 6.42739 127.897 6.55151C127.671 6.20263 127.348 5.92725 126.968 5.75907C126.968 5.75907 127.705 5.57879 128.198 6.61688C128.198 6.61688 129.165 6.8566 129.268 6.9814C129.268 6.9814 128.927 5.88982 128.383 5.36285C128.383 5.36285 129.268 5.66199 129.51 7.11018L130.417 7.60545C130.417 7.60545 130.043 6.13746 129.591 5.62435C129.591 5.62435 130.449 6.06812 130.635 7.74215L131.447 8.35431C131.447 8.35431 131.221 7.06263 130.841 6.39302C130.841 6.39302 131.546 6.97546 131.673 8.53855L132.166 9.01005C132.166 9.01005 131.984 8.07101 131.909 7.80554C131.834 7.54008 131.895 7.52225 131.895 7.52225C132.21 8.03617 132.377 8.62721 132.376 9.22995C132.376 9.22995 133.335 10.2581 133.405 10.2066Z" fill="#C4C4C4"/>
<path opacity="0.1" d="M117.632 10.5593C117.632 10.5593 110.123 9.72324 110.743 15.0504C110.743 15.0504 110.52 15.9736 111.338 16.4372C111.338 16.4372 111.371 16.041 112.13 16.2193C112.398 16.277 112.672 16.3042 112.946 16.3005C113.317 16.2938 113.675 16.1665 113.967 15.9379C113.967 15.9379 116.128 15.1713 117.136 11.7539C117.136 11.7539 117.782 11.0308 117.768 10.8346L116.471 11.3141C116.471 11.3141 116.867 12.2511 116.471 12.996C116.471 12.996 116.512 11.3497 116.273 11.3755C116.223 11.3755 115.597 11.6608 115.597 11.6608C115.597 11.6608 116.263 13.2952 115.641 14.4343C115.641 14.4343 115.954 12.477 115.357 11.7717L114.436 12.2472C114.436 12.2472 115.229 13.941 114.565 15.2564C114.565 15.2564 114.823 13.2001 114.242 12.366L113.4 12.9604C113.4 12.9604 114.137 14.6265 113.58 15.718C113.58 15.718 113.638 13.313 113.216 13.1089C113.216 13.1089 112.475 13.7033 112.354 13.9489C112.354 13.9489 112.855 15.1574 112.477 15.7616C112.477 15.7616 112.344 14.151 112.17 14.1351C112.17 14.1351 111.409 15.1594 111.298 15.8825C111.367 15.2121 111.61 14.5714 112.003 14.0242C111.592 14.081 111.207 14.2566 110.894 14.5294C110.894 14.5294 111.041 13.7865 112.19 13.7785C112.19 13.7785 112.814 13.0039 112.982 12.9623C112.982 12.9623 111.847 12.8098 111.14 13.0812C111.14 13.0812 111.784 12.4037 113.198 12.7979L114.032 12.1857C114.032 12.1857 112.524 11.8807 111.887 12.0788C111.887 12.0788 112.651 11.4844 114.248 12.0292L115.145 11.5518C115.145 11.5518 113.88 11.211 113.113 11.2725C113.113 11.2725 113.939 10.8762 115.407 11.425L116.045 11.1774C116.045 11.1774 115.116 10.9456 114.842 10.902C114.569 10.8584 114.559 10.7831 114.559 10.7831C115.158 10.7144 115.764 10.8132 116.31 11.0684C116.31 11.0684 117.646 10.6425 117.632 10.5593Z" fill="#C4C4C4"/>
<path opacity="0.1" d="M183.325 68.8373C183.325 68.8373 175.821 68.0013 176.441 73.3225C176.441 73.3225 176.217 74.2457 177.035 74.7093C177.035 74.7093 177.069 74.3131 177.827 74.4894C178.095 74.549 178.369 74.5763 178.644 74.5706C179.014 74.5649 179.373 74.4375 179.664 74.2081C179.664 74.2081 181.825 73.4414 182.824 70.0259C182.824 70.0259 183.47 69.3009 183.456 69.1067L182.158 69.5842C182.158 69.5842 182.554 70.5232 182.158 71.2681C182.158 71.2681 182.2 69.6198 181.96 69.6476C181.911 69.6476 181.285 69.9309 181.285 69.9309C181.285 69.9309 181.95 71.5653 181.328 72.7044C181.328 72.7044 181.641 70.749 181.045 70.0418L180.124 70.5192C180.124 70.5192 180.916 72.2131 180.254 73.5285C180.254 73.5285 180.51 71.4722 179.929 70.6361L179.087 71.2305C179.087 71.2305 179.824 72.8966 179.268 73.9862C179.268 73.9862 179.325 71.5811 178.903 71.379C178.903 71.379 178.164 71.9734 178.041 72.219C178.041 72.219 178.545 73.4275 178.164 74.0317C178.164 74.0317 178.032 72.4211 177.857 72.4053C177.857 72.4053 177.096 73.4295 176.986 74.1526C177.054 73.4822 177.297 72.8415 177.691 72.2943C177.279 72.3501 176.894 72.5258 176.581 72.7995C176.581 72.7995 176.728 72.0546 177.877 72.0467C177.877 72.0467 178.503 71.2721 178.669 71.2324C178.669 71.2324 177.534 71.0779 176.827 71.3493C176.827 71.3493 177.471 70.6738 178.887 71.068L179.719 70.4559C179.719 70.4559 178.23 70.1745 177.582 70.3687C177.582 70.3687 178.347 69.7743 179.943 70.3172L180.841 69.8417C180.841 69.8417 179.575 69.501 178.808 69.5624C178.808 69.5624 179.634 69.1662 181.102 69.7149L181.74 69.4653C181.74 69.4653 180.811 69.2335 180.538 69.1919C180.264 69.1503 180.254 69.073 180.254 69.073C180.853 69.0031 181.459 69.1012 182.006 69.3563C182.006 69.3563 183.345 68.9225 183.325 68.8373Z" fill="#C4C4C4"/>
<path opacity="0.1" d="M194.798 75.8464C194.798 75.8464 187.293 75.0124 187.913 80.3316C187.913 80.3316 187.691 81.2548 188.508 81.7184C188.508 81.7184 188.541 81.3222 189.3 81.5005C189.568 81.5587 189.841 81.5853 190.114 81.5797C190.483 81.5722 190.84 81.4457 191.131 81.2192C191.131 81.2192 193.29 80.4525 194.289 77.0351C194.289 77.0351 194.936 76.312 194.921 76.1159L193.623 76.5933C193.623 76.5933 194.019 77.5323 193.623 78.2772C193.623 78.2772 193.665 76.6309 193.425 76.6567C193.375 76.6567 192.749 76.94 192.749 76.94C192.749 76.94 193.415 78.5744 192.793 79.7135C192.793 79.7135 193.106 77.7582 192.51 77.0529L191.588 77.5284C191.588 77.5284 192.381 79.2222 191.719 80.5377C191.719 80.5377 191.975 78.4813 191.394 77.6473L190.552 78.2416C190.552 78.2416 191.289 79.9077 190.734 80.9993C190.734 80.9993 190.79 78.5922 190.368 78.3902C190.368 78.3902 189.629 78.9845 189.506 79.2302C189.506 79.2302 190.009 80.4386 189.629 81.0429C189.629 81.0429 189.496 79.4322 189.322 79.4164C189.322 79.4164 188.561 80.4406 188.452 81.1637C188.521 80.4936 188.763 79.853 189.156 79.3054C188.744 79.3622 188.359 79.5378 188.046 79.8106C188.046 79.8106 188.195 79.0657 189.344 79.0598C189.344 79.0598 189.968 78.2852 190.136 78.2436C190.136 78.2436 189.001 78.091 188.294 78.3624C188.294 78.3624 188.938 77.6849 190.354 78.0791L191.186 77.467C191.186 77.467 189.696 77.1857 189.049 77.3798C189.049 77.3798 189.813 76.7855 191.41 77.3303L192.307 76.8528C192.307 76.8528 191.042 76.5121 190.275 76.5735C190.275 76.5735 191.101 76.1773 192.569 76.726L193.207 76.4784C193.207 76.4784 192.278 76.2466 192.006 76.203C191.735 76.1594 191.721 76.0842 191.721 76.0842C192.32 76.0154 192.926 76.1142 193.472 76.3694C193.472 76.3694 194.818 75.9316 194.798 75.8464Z" fill="#C4C4C4"/>
<path opacity="0.1" d="M169.327 16.8077C169.327 16.8077 163.28 12.2848 161.119 17.1841C161.119 17.1841 160.459 17.8675 160.933 18.6857C160.933 18.6857 161.159 18.3668 161.725 18.8957C161.926 19.0824 162.148 19.2447 162.387 19.3791C162.71 19.5592 163.084 19.6287 163.451 19.5772C163.451 19.5772 165.701 20.0111 168.294 17.5724C168.294 17.5724 169.218 17.2752 169.305 17.1009L167.944 16.8552C167.944 16.8552 167.801 17.8596 167.098 18.3093C167.098 18.3093 167.968 16.9107 167.742 16.8096C167.696 16.7878 167.017 16.7106 167.017 16.7106C167.017 16.7106 166.761 18.4579 165.652 19.1176C165.652 19.1176 166.914 17.5902 166.757 16.6789L165.721 16.6234C165.721 16.6234 165.545 18.4837 164.309 19.284C164.309 19.284 165.572 17.6417 165.497 16.6274L164.471 16.7106C164.471 16.7106 164.273 18.5193 163.231 19.177C163.231 19.177 164.499 17.1326 164.237 16.7443C164.237 16.7443 163.3 16.877 163.068 17.0315C163.068 17.0315 162.89 18.3272 162.256 18.656C162.256 18.656 162.957 17.1999 162.815 17.0989C162.815 17.0989 161.64 17.5961 161.178 18.1627C161.578 17.6202 162.112 17.1914 162.728 16.9186C162.344 16.7593 161.923 16.7153 161.515 16.7918C161.515 16.7918 162.02 16.2252 163.015 16.8017C163.015 16.8017 163.944 16.4511 164.103 16.4946C164.103 16.4946 163.201 15.7874 162.454 15.6646C162.454 15.6646 163.354 15.407 164.374 16.457L165.402 16.352C165.402 16.352 164.261 15.3614 163.603 15.195C163.603 15.195 164.56 15.0742 165.664 16.3461L166.68 16.3916C166.68 16.3916 165.761 15.4565 165.069 15.1198C165.069 15.1198 165.981 15.199 166.969 16.4134L167.645 16.5224C167.645 16.5224 166.961 15.8528 166.747 15.6784C166.533 15.5041 166.565 15.4466 166.565 15.4466C167.115 15.6911 167.587 16.0834 167.928 16.5798C167.928 16.5798 169.301 16.8889 169.327 16.8077Z" fill="#C4C4C4"/>
<path opacity="0.1" d="M173.998 49.4601C173.998 49.4601 171.914 42.2034 167.227 44.8085C167.227 44.8085 166.288 44.9532 166.171 45.8922C166.171 45.8922 166.543 45.7753 166.672 46.5341C166.72 46.8067 166.8 47.0726 166.91 47.3265C167.057 47.6679 167.311 47.9518 167.635 48.1348C167.635 48.1348 169.168 49.8385 172.707 49.4582C172.707 49.4582 173.622 49.7791 173.796 49.6919L172.859 48.6736C172.859 48.6736 172.14 49.3908 171.308 49.3234C171.308 49.3234 172.845 48.7291 172.726 48.5171C172.703 48.4736 172.207 48.0001 172.207 48.0001C172.207 48.0001 170.951 49.2402 169.668 49.0956C169.668 49.0956 171.595 48.64 172.019 47.8198L171.227 47.1502C171.227 47.1502 169.963 48.5251 168.495 48.4181C168.495 48.4181 170.492 47.8693 171.042 47.0155L170.175 46.4627C170.175 46.4627 168.917 47.7802 167.696 47.6811C167.696 47.6811 169.941 46.8154 169.969 46.3498C169.969 46.3498 169.141 45.8902 168.861 45.8744C168.861 45.8744 167.936 46.7976 167.233 46.6787C167.233 46.6787 168.671 45.9397 168.62 45.7733C168.62 45.7733 167.383 45.4623 166.672 45.6347C167.316 45.4436 167.999 45.4238 168.653 45.5772C168.444 45.2187 168.134 44.9295 167.762 44.7451C167.762 44.7451 168.507 44.5966 168.95 45.6564C168.95 45.6564 169.903 45.9378 170.002 46.0685C170.002 46.0685 169.711 44.9611 169.19 44.4123C169.19 44.4123 170.062 44.7491 170.238 46.2072L171.122 46.7441C171.122 46.7441 170.813 45.2582 170.385 44.7352C170.385 44.7352 171.221 45.2166 171.334 46.8966L172.126 47.5444C172.126 47.5444 171.958 46.2448 171.609 45.5633C171.609 45.5633 172.289 46.1775 172.344 47.7425L172.816 48.2378C172.816 48.2378 172.677 47.2908 172.617 47.0214C172.558 46.752 172.617 46.7143 172.617 46.7143C172.911 47.2413 173.051 47.8395 173.024 48.4419C173.024 48.4419 173.927 49.5077 173.998 49.4601Z" fill="#C4C4C4"/>
<path opacity="0.1" d="M127.557 65.8121C127.557 65.8121 123.51 59.437 119.751 63.2526C119.751 63.2526 118.892 63.6488 119.042 64.5898C119.042 64.5898 119.369 64.3719 119.706 65.0653C119.827 65.311 119.977 65.5412 120.154 65.7507C120.39 66.0368 120.713 66.2372 121.075 66.3213C121.075 66.3213 123.026 67.5258 126.315 66.1628C126.315 66.1628 127.284 66.2143 127.426 66.0816L126.237 65.3684C126.237 65.3684 125.748 66.2599 124.93 66.4283C124.93 66.4283 126.241 65.4377 126.065 65.2554C126.031 65.2198 125.421 64.9068 125.421 64.9068C125.421 64.9068 124.563 66.4481 123.292 66.6719C123.292 66.6719 125.013 65.6913 125.191 64.7839L124.243 64.3659C124.243 64.3659 123.416 66.04 121.978 66.347C121.978 66.347 123.741 65.2594 124.029 64.2847L123.038 63.9994C123.038 63.9994 122.202 65.618 121.003 65.8656C121.003 65.8656 122.913 64.4036 122.808 63.9479C122.808 63.9479 121.885 63.7399 121.62 63.8033C121.62 63.8033 120.992 64.9504 120.282 65.0336C120.282 65.0336 121.455 63.9202 121.358 63.7736C121.358 63.7736 120.084 63.8231 119.45 64.1896C120.016 63.8233 120.667 63.6115 121.34 63.5755C121.039 63.2904 120.661 63.0996 120.253 63.0267C120.253 63.0267 120.924 62.6761 121.639 63.5676C121.639 63.5676 122.63 63.5676 122.767 63.6666C122.767 63.6666 122.172 62.6761 121.52 62.3056C121.52 62.3056 122.452 62.3848 123.03 63.734L124.031 63.9994C124.031 63.9994 123.315 62.6622 122.759 62.2798C122.759 62.2798 123.696 62.5057 124.276 64.0886L125.211 64.4848C125.211 64.4848 124.684 63.2862 124.155 62.7256C124.155 62.7256 124.979 63.1218 125.473 64.6096L126.067 64.9523C126.067 64.9523 125.671 64.0826 125.53 63.8429C125.39 63.6032 125.445 63.5477 125.445 63.5477C125.874 63.9712 126.176 64.5055 126.319 65.091C126.319 65.091 127.503 65.8795 127.557 65.8121Z" fill="#C4C4C4"/>
<path d="M154.158 33.2389C154.158 33.2389 150.309 26.7429 146.432 30.4396C146.432 30.4396 145.56 30.816 145.683 31.7551C145.683 31.7551 146.014 31.5451 146.331 32.2484C146.444 32.4984 146.587 32.7338 146.757 32.9497C146.984 33.2418 147.302 33.4507 147.66 33.544C147.66 33.544 149.572 34.8079 152.902 33.544C152.902 33.544 153.869 33.6252 154.015 33.4964L152.852 32.7476C152.852 32.7476 152.337 33.6213 151.513 33.7659C151.513 33.7659 152.854 32.809 152.686 32.6287C152.65 32.5911 152.052 32.2583 152.052 32.2583C152.052 32.2583 151.147 33.7738 149.873 33.958C149.873 33.958 151.624 33.0309 151.828 32.1315L150.893 31.6917C150.893 31.6917 150.015 33.3419 148.567 33.6054C148.567 33.6054 150.364 32.5733 150.681 31.6085L149.702 31.2915C149.702 31.2915 148.815 32.8764 147.61 33.0943C147.61 33.0943 149.564 31.6917 149.473 31.234C149.473 31.234 148.557 30.9963 148.284 31.0518C148.284 31.0518 147.62 32.179 146.909 32.2404C146.909 32.2404 148.116 31.1667 148.024 31.0161C148.024 31.0161 146.749 31.026 146.105 31.3727C146.681 31.0248 147.339 30.8336 148.013 30.818C147.72 30.5235 147.347 30.321 146.941 30.2356C146.941 30.2356 147.624 29.9047 148.328 30.818C148.328 30.818 149.318 30.8517 149.451 30.9527C149.451 30.9527 148.89 29.9622 148.248 29.5541C148.248 29.5541 149.175 29.661 149.712 31.028L150.703 31.3252C150.703 31.3252 150.031 29.9661 149.484 29.5659C149.484 29.5659 150.416 29.8215 150.947 31.4203L151.868 31.8502C151.868 31.8502 151.378 30.6357 150.877 30.0672C150.877 30.0672 151.687 30.4891 152.137 31.9908L152.718 32.3514C152.718 32.3514 152.345 31.4698 152.214 31.2261C152.084 30.9824 152.139 30.9289 152.139 30.9289C152.554 31.3654 152.84 31.9086 152.965 32.498C152.965 32.498 154.1 33.3043 154.158 33.2389Z" fill="#C4C4C4"/>
<path d="M129.804 46.8986C129.804 46.8986 130.002 39.3506 124.758 40.4144C124.758 40.4144 123.819 40.2698 123.423 41.1296C123.423 41.1296 123.819 41.1296 123.708 41.8923C123.672 42.1643 123.668 42.4396 123.696 42.7125C123.732 43.0827 123.889 43.4308 124.142 43.7031C124.142 43.7031 125.087 45.7912 128.576 46.5004C128.576 46.5004 129.35 47.0848 129.544 47.0531L128.95 45.8011C128.95 45.8011 128.049 46.2646 127.274 45.9496C127.274 45.9496 128.918 45.8526 128.873 45.6109C128.873 45.5613 128.532 44.9591 128.532 44.9591C128.532 44.9591 126.959 45.7614 125.78 45.2345C125.78 45.2345 127.761 45.383 128.409 44.7313L127.857 43.8536C127.857 43.8536 126.236 44.7808 124.869 44.234C124.869 44.234 126.939 44.3172 127.724 43.6694L127.064 42.877C127.064 42.877 125.465 43.7526 124.332 43.289C124.332 43.289 126.733 43.1444 126.908 42.7066C126.908 42.7066 126.258 42.0191 125.996 41.9141C125.996 41.9141 124.835 42.5085 124.201 42.1875C124.201 42.1875 125.786 41.9221 125.796 41.7457C125.796 41.7457 124.713 41.0742 123.982 41.0246C124.656 41.0367 125.315 41.2252 125.893 41.5714C125.803 41.1665 125.596 40.7967 125.299 40.5076C125.299 40.5076 126.054 40.5927 126.157 41.7358C126.157 41.7358 126.983 42.2945 127.036 42.449C127.036 42.449 127.094 41.3059 126.763 40.6244C126.763 40.6244 127.492 41.2089 127.219 42.6511L127.898 43.4317C127.898 43.4317 128.053 41.9221 127.805 41.2941C127.805 41.2941 128.455 42.0053 128.055 43.6417L128.603 44.4955C128.603 44.4955 128.837 43.2058 128.712 42.4471C128.712 42.4471 129.172 43.2395 128.752 44.7471L129.053 45.3613C129.053 45.3613 129.206 44.4163 129.225 44.1409C129.245 43.8655 129.321 43.8477 129.321 43.8477C129.44 44.4387 129.393 45.0512 129.184 45.6168C129.184 45.6168 129.717 46.9243 129.804 46.8986Z" fill="#C4C4C4"/>
<path opacity="0.1" d="M138.473 142.808C141.419 142.808 143.808 142.404 143.808 141.906C143.808 141.408 141.419 141.005 138.473 141.005C135.526 141.005 133.138 141.408 133.138 141.906C133.138 142.404 135.526 142.808 138.473 142.808Z" fill="#C4C4C4"/>
<path opacity="0.1" d="M119.025 156.493C121.971 156.493 124.36 156.089 124.36 155.592C124.36 155.094 121.971 154.69 119.025 154.69C116.078 154.69 113.689 155.094 113.689 155.592C113.689 156.089 116.078 156.493 119.025 156.493Z" fill="#C4C4C4"/>
<path opacity="0.1" d="M18.4523 149.482C21.3988 149.482 23.7874 149.078 23.7874 148.581C23.7874 148.083 21.3988 147.679 18.4523 147.679C15.5058 147.679 13.1172 148.083 13.1172 148.581C13.1172 149.078 15.5058 149.482 18.4523 149.482Z" fill="#C4C4C4"/>
<path opacity="0.1" d="M159.49 155.592C162.437 155.592 164.825 155.188 164.825 154.69C164.825 154.192 162.437 153.789 159.49 153.789C156.544 153.789 154.155 154.192 154.155 154.69C154.155 155.188 156.544 155.592 159.49 155.592Z" fill="#C4C4C4"/>
<path d="M165.046 144.601C169.446 144.601 173.012 143.997 173.012 143.253C173.012 142.509 169.446 141.906 165.046 141.906C160.647 141.906 157.08 142.509 157.08 143.253C157.08 143.997 160.647 144.601 165.046 144.601Z" fill="#C4C4C4"/>
<path d="M168.347 141.048C168.711 140.753 168.976 140.353 169.106 139.903C169.205 139.448 169.011 138.903 168.577 138.736C168.09 138.55 167.569 138.887 167.172 139.228C166.776 139.569 166.327 139.959 165.809 139.887C166.075 139.646 166.273 139.341 166.386 139C166.498 138.66 166.521 138.296 166.451 137.944C166.429 137.798 166.367 137.661 166.273 137.548C166.002 137.259 165.512 137.383 165.187 137.611C164.157 138.336 163.87 139.735 163.864 140.995C163.761 140.541 163.848 140.068 163.846 139.608C163.844 139.149 163.715 138.618 163.321 138.376C163.079 138.241 162.806 138.173 162.529 138.178C162.065 138.162 161.548 138.207 161.233 138.546C160.837 138.966 160.942 139.674 161.283 140.131C161.623 140.589 162.144 140.884 162.624 141.205C163.008 141.434 163.335 141.746 163.583 142.118C163.611 142.17 163.634 142.224 163.652 142.281H166.556C167.207 141.953 167.809 141.539 168.347 141.048Z" fill="#C4C4C4"/>
<path d="M14.8701 144.391C14.8701 144.391 17.9111 144.297 18.8323 143.644C19.7535 142.99 23.5137 142.211 23.7415 143.259C23.9693 144.307 28.3139 148.468 24.8786 148.495C21.4434 148.523 16.8968 147.96 15.9815 147.402C15.0662 146.843 14.8701 144.391 14.8701 144.391Z" fill="#A8A8A8"/>
<path opacity="0.2" d="M24.9361 148.131C21.5009 148.159 16.9542 147.596 16.039 147.037C15.3416 146.613 15.0643 145.09 14.9712 144.387H14.8701C14.8701 144.387 15.0682 146.841 15.9776 147.398C16.8869 147.955 21.4394 148.519 24.8747 148.491C25.8652 148.491 26.2079 148.131 26.1901 147.608C26.0514 147.927 25.6731 148.125 24.9361 148.131Z" fill="black"/>
</g>
<defs>
<linearGradient id="paint0_linear" x1="44.1763" y1="85.8649" x2="106.012" y2="85.8649" gradientUnits="userSpaceOnUse">
<stop stop-color="#808080" stop-opacity="0.25"/>
<stop offset="0.54" stop-color="#808080" stop-opacity="0.12"/>
<stop offset="1" stop-color="#808080" stop-opacity="0.1"/>
</linearGradient>
<clipPath id="clip0">
<rect width="200" height="156.493" fill="white"/>
</clipPath>
</defs>
</svg>
