<svg width="88" height="84" viewBox="0 0 88 84" fill="none" xmlns="http://www.w3.org/2000/svg">
<g filter="url(#filter0_d)">
<ellipse cx="44" cy="38" rx="40" ry="38" fill="#3E3D3D"/>
</g>
<path d="M31.9199 60.877H30.5195V64H28.7617V55.4688H31.9316C32.9395 55.4688 33.7168 55.6934 34.2637 56.1426C34.8105 56.5918 35.084 57.2266 35.084 58.0469C35.084 58.6289 34.957 59.1152 34.7031 59.5059C34.4531 59.8926 34.0723 60.2012 33.5605 60.4316L35.4062 63.918V64H33.5195L31.9199 60.877ZM30.5195 59.4531H31.9375C32.3789 59.4531 32.7207 59.3418 32.9629 59.1191C33.2051 58.8926 33.3262 58.582 33.3262 58.1875C33.3262 57.7852 33.2109 57.4688 32.9805 57.2383C32.7539 57.0078 32.4043 56.8926 31.9316 56.8926H30.5195V59.4531ZM39.2324 64.1172C38.3027 64.1172 37.5449 63.832 36.959 63.2617C36.377 62.6914 36.0859 61.9316 36.0859 60.9824V60.8184C36.0859 60.1816 36.209 59.6133 36.4551 59.1133C36.7012 58.6094 37.0488 58.2227 37.498 57.9531C37.9512 57.6797 38.4668 57.543 39.0449 57.543C39.9121 57.543 40.5938 57.8164 41.0898 58.3633C41.5898 58.9102 41.8398 59.6855 41.8398 60.6895V61.3809H37.8027C37.8574 61.7949 38.0215 62.127 38.2949 62.377C38.5723 62.627 38.9219 62.752 39.3438 62.752C39.9961 62.752 40.5059 62.5156 40.873 62.043L41.7051 62.9746C41.4512 63.334 41.1074 63.6152 40.6738 63.8184C40.2402 64.0176 39.7598 64.1172 39.2324 64.1172ZM39.0391 58.9141C38.7031 58.9141 38.4297 59.0273 38.2188 59.2539C38.0117 59.4805 37.8789 59.8047 37.8203 60.2266H40.1758V60.0918C40.168 59.7168 40.0664 59.4277 39.8711 59.2246C39.6758 59.0176 39.3984 58.9141 39.0391 58.9141ZM46.2402 62.248C46.2402 62.041 46.1367 61.8789 45.9297 61.7617C45.7266 61.6406 45.3984 61.5332 44.9453 61.4395C43.4375 61.123 42.6836 60.4824 42.6836 59.5176C42.6836 58.9551 42.916 58.4863 43.3809 58.1113C43.8496 57.7324 44.4609 57.543 45.2148 57.543C46.0195 57.543 46.6621 57.7324 47.1426 58.1113C47.627 58.4902 47.8691 58.9824 47.8691 59.5879H46.1758C46.1758 59.3457 46.0977 59.1465 45.9414 58.9902C45.7852 58.8301 45.541 58.75 45.209 58.75C44.9238 58.75 44.7031 58.8145 44.5469 58.9434C44.3906 59.0723 44.3125 59.2363 44.3125 59.4355C44.3125 59.623 44.4004 59.7754 44.5762 59.8926C44.7559 60.0059 45.0566 60.1055 45.4785 60.1914C45.9004 60.2734 46.2559 60.3672 46.5449 60.4727C47.4395 60.8008 47.8867 61.3691 47.8867 62.1777C47.8867 62.7559 47.6387 63.2246 47.1426 63.584C46.6465 63.9395 46.0059 64.1172 45.2207 64.1172C44.6895 64.1172 44.2168 64.0234 43.8027 63.8359C43.3926 63.6445 43.0703 63.3848 42.8359 63.0566C42.6016 62.7246 42.4844 62.3672 42.4844 61.9844H44.0898C44.1055 62.2852 44.2168 62.5156 44.4238 62.6758C44.6309 62.8359 44.9082 62.916 45.2559 62.916C45.5801 62.916 45.8242 62.8555 45.9883 62.7344C46.1562 62.6094 46.2402 62.4473 46.2402 62.248ZM51.9004 64.1172C50.9707 64.1172 50.2129 63.832 49.627 63.2617C49.0449 62.6914 48.7539 61.9316 48.7539 60.9824V60.8184C48.7539 60.1816 48.877 59.6133 49.123 59.1133C49.3691 58.6094 49.7168 58.2227 50.166 57.9531C50.6191 57.6797 51.1348 57.543 51.7129 57.543C52.5801 57.543 53.2617 57.8164 53.7578 58.3633C54.2578 58.9102 54.5078 59.6855 54.5078 60.6895V61.3809H50.4707C50.5254 61.7949 50.6895 62.127 50.9629 62.377C51.2402 62.627 51.5898 62.752 52.0117 62.752C52.6641 62.752 53.1738 62.5156 53.541 62.043L54.373 62.9746C54.1191 63.334 53.7754 63.6152 53.3418 63.8184C52.9082 64.0176 52.4277 64.1172 51.9004 64.1172ZM51.707 58.9141C51.3711 58.9141 51.0977 59.0273 50.8867 59.2539C50.6797 59.4805 50.5469 59.8047 50.4883 60.2266H52.8438V60.0918C52.8359 59.7168 52.7344 59.4277 52.5391 59.2246C52.3438 59.0176 52.0664 58.9141 51.707 58.9141ZM57.502 56.1016V57.6602H58.5859V58.9023H57.502V62.0664C57.502 62.3008 57.5469 62.4688 57.6367 62.5703C57.7266 62.6719 57.8984 62.7227 58.1523 62.7227C58.3398 62.7227 58.5059 62.709 58.6504 62.6816V63.9648C58.3184 64.0664 57.9766 64.1172 57.625 64.1172C56.4375 64.1172 55.832 63.5176 55.8086 62.3184V58.9023H54.8828V57.6602H55.8086V56.1016H57.502Z" fill="white"/>
<path d="M44.875 46.25C47.1 46.25 49.2751 45.5902 51.1252 44.354C52.9752 43.1179 54.4172 41.3609 55.2686 39.3052C56.1201 37.2495 56.3429 34.9875 55.9088 32.8052C55.4748 30.623 54.4033 28.6184 52.83 27.0451C51.2566 25.4717 49.2521 24.4003 47.0698 23.9662C44.8875 23.5321 42.6255 23.7549 40.5698 24.6064C38.5141 25.4578 36.7571 26.8998 35.521 28.7498C34.2848 30.5999 33.625 32.775 33.625 35V40.8125L30.25 37.4375L28.9375 38.75L34.5625 44.375L40.1875 38.75L38.875 37.4375L35.5 40.8125V35C35.5 33.1458 36.0498 31.3332 37.08 29.7915C38.1101 28.2498 39.5743 27.0482 41.2873 26.3386C43.0004 25.6291 44.8854 25.4434 46.704 25.8051C48.5225 26.1669 50.193 27.0598 51.5041 28.3709C52.8152 29.682 53.7081 31.3525 54.0699 33.171C54.4316 34.9896 54.2459 36.8746 53.5364 38.5877C52.8268 40.3007 51.6252 41.7649 50.0835 42.795C48.5418 43.8252 46.7292 44.375 44.875 44.375V46.25Z" fill="white"/>
<defs>
<filter id="filter0_d" x="0" y="0" width="88" height="84" filterUnits="userSpaceOnUse" color-interpolation-filters="sRGB">
<feFlood flood-opacity="0" result="BackgroundImageFix"/>
<feColorMatrix in="SourceAlpha" type="matrix" values="0 0 0 0 0 0 0 0 0 0 0 0 0 0 0 0 0 0 127 0"/>
<feOffset dy="4"/>
<feGaussianBlur stdDeviation="2"/>
<feColorMatrix type="matrix" values="0 0 0 0 0 0 0 0 0 0 0 0 0 0 0 0 0 0 0.25 0"/>
<feBlend mode="normal" in2="BackgroundImageFix" result="effect1_dropShadow"/>
<feBlend mode="normal" in="SourceGraphic" in2="effect1_dropShadow" result="shape"/>
</filter>
</defs>
</svg>
