<svg width="55" height="55" viewBox="0 0 55 55" fill="none" xmlns="http://www.w3.org/2000/svg">
<circle cx="27.5" cy="27.5" r="27.5" fill="#C4C4C4"/>
<path d="M39.4686 37.2757L33.0966 30.9037C34.6279 29.0654 35.3915 26.7076 35.2285 24.3207C35.0656 21.9338 33.9887 19.7016 32.2219 18.0884C30.4551 16.4753 28.1343 15.6054 25.7425 15.6598C23.3506 15.7141 21.0718 16.6885 19.3801 18.3802C17.6884 20.0719 16.714 22.3508 16.6596 24.7426C16.6053 27.1345 17.4752 29.4552 19.0883 31.222C20.7014 32.9888 22.9337 34.0657 25.3206 34.2286C27.7075 34.3916 30.0653 33.628 31.9036 32.0968L38.2756 38.4688L39.4686 37.2757ZM18.3749 24.9688C18.3749 23.4669 18.8203 21.9987 19.6547 20.7499C20.4891 19.5011 21.6751 18.5278 23.0626 17.9531C24.4502 17.3783 25.9771 17.2279 27.4501 17.5209C28.9232 17.8139 30.2762 18.5372 31.3382 19.5992C32.4002 20.6612 33.1235 22.0143 33.4165 23.4873C33.7095 24.9603 33.5591 26.4872 32.9844 27.8748C32.4096 29.2624 31.4363 30.4483 30.1875 31.2827C28.9387 32.1172 27.4706 32.5625 25.9686 32.5625C23.9553 32.5603 22.0251 31.7595 20.6015 30.3359C19.1779 28.9123 18.3771 26.9821 18.3749 24.9688Z" fill="white"/>
</svg>
