<svg width="22" height="22" viewBox="0 0 22 22" fill="none" xmlns="http://www.w3.org/2000/svg">
<path d="M17.3884 7.12423C17.3833 3.46844 14.4167 0.510475 10.7609 0.515632C7.10688 0.520788 4.14719 3.48735 4.15235 7.14141C4.15407 8.73469 4.93782 10.1372 5.79204 11.4486C6.68923 12.8253 7.29938 14.1505 7.97657 15.6269C8.3736 16.4949 9.45641 16.8334 10.4017 16.8988C11.3264 16.9606 12.5003 16.8558 13.2738 16.2233C14.4855 15.2333 14.513 13.3392 15.3088 12.0759C16.2833 10.5325 17.3902 9.03719 17.3884 7.12423V7.12423Z" fill="#FCC21B"/>
<path d="M12.5675 20.6181C12.6689 20.5442 12.7531 20.4583 12.8116 20.3345C12.882 20.1798 12.858 20.0337 12.8408 19.8705C12.827 19.7312 12.8408 19.6711 12.9353 19.5748C13.0419 19.4665 13.1502 19.3686 13.1691 19.2087C13.1828 19.0901 13.157 18.9767 13.1347 18.8633C13.1227 18.822 13.1158 18.7791 13.1158 18.7361C13.1398 18.645 13.255 18.5814 13.3186 18.5195C13.4836 18.3597 13.6366 18.138 13.6847 17.9128C13.7156 17.7719 13.7088 17.569 13.6194 17.4505C13.487 17.2751 13.31 17.3456 13.1416 17.4212C13.0866 17.4453 13.0384 17.4762 12.9834 17.502C11.9384 18.0091 10.7078 18.0091 9.59922 17.7289C9.31735 17.6584 9.03547 17.5725 8.7725 17.4487C8.56453 17.3525 8.27063 17.2442 8.12797 17.502C8.00766 17.7186 8.06953 18.0073 8.15719 18.2256C8.20875 18.3528 8.32047 18.4628 8.41328 18.5608C8.50266 18.6553 8.54219 18.7034 8.51641 18.8237C8.49235 18.9337 8.50953 19.0265 8.51985 19.1383C8.53532 19.2895 8.55594 19.4339 8.65391 19.5559C8.74844 19.6745 8.88938 19.7656 8.9736 19.8911C9.0475 19.9994 9.04578 20.1455 9.08875 20.2675C9.16094 20.4669 9.33453 20.6783 9.50985 20.7986C9.70922 20.9344 9.97735 20.9258 10.1509 21.1045C10.3795 21.3417 10.7061 21.5136 11.043 21.493C11.4555 21.4689 11.6772 21.1492 11.9917 20.9326C12.1138 20.8484 12.2667 20.8123 12.3956 20.7333C12.4541 20.6937 12.5125 20.6576 12.5675 20.6181Z" fill="#78A3AD"/>
</svg>
