<svg width="30" height="30" viewBox="0 0 30 30" fill="none" xmlns="http://www.w3.org/2000/svg">
<path d="M8.56824 12.8635C9.75126 12.8635 10.7103 11.9044 10.7103 10.7214C10.7103 9.53838 9.75126 8.57935 8.56824 8.57935C7.38521 8.57935 6.42618 9.53838 6.42618 10.7214C6.42618 11.9044 7.38521 12.8635 8.56824 12.8635Z" fill="#0C81D7"/>
<path d="M14.9944 9.65033C16.1774 9.65033 17.1365 8.6913 17.1365 7.50827C17.1365 6.32524 16.1774 5.36621 14.9944 5.36621C13.8114 5.36621 12.8524 6.32524 12.8524 7.50827C12.8524 8.6913 13.8114 9.65033 14.9944 9.65033Z" fill="#0C81D7"/>
<path d="M21.4206 12.8635C22.6036 12.8635 23.5627 11.9044 23.5627 10.7214C23.5627 9.53838 22.6036 8.57935 21.4206 8.57935C20.2376 8.57935 19.2785 9.53838 19.2785 10.7214C19.2785 11.9044 20.2376 12.8635 21.4206 12.8635Z" fill="#0C81D7"/>
<path d="M22.4916 19.2895C23.6747 19.2895 24.6337 18.3305 24.6337 17.1474C24.6337 15.9644 23.6747 15.0054 22.4916 15.0054C21.3086 15.0054 20.3496 15.9644 20.3496 17.1474C20.3496 18.3305 21.3086 19.2895 22.4916 19.2895Z" fill="#0C81D7"/>
<path d="M18.2075 24.6447C19.3905 24.6447 20.3496 23.6857 20.3496 22.5027C20.3496 21.3196 19.3905 20.3606 18.2075 20.3606C17.0245 20.3606 16.0655 21.3196 16.0655 22.5027C16.0655 23.6857 17.0245 24.6447 18.2075 24.6447Z" fill="#0C81D7"/>
<path d="M15.5728 0.0111589C13.5556 -0.0667066 11.5434 0.26356 9.65689 0.98216C7.7704 1.70076 6.04844 2.79289 4.59424 4.19309C3.14004 5.59328 1.98354 7.2727 1.1941 9.13066C0.404649 10.9886 -0.00149811 12.9869 4.15224e-06 15.0056C-4.89875e-05 15.7996 0.18304 16.5828 0.535032 17.2945C0.887025 18.0062 1.39844 18.6271 2.02949 19.109C2.66055 19.5908 3.39424 19.9206 4.17352 20.0727C4.9528 20.2248 5.75665 20.1951 6.52258 19.9859L7.72213 19.6538C8.19932 19.5236 8.70014 19.5053 9.18558 19.6003C9.67101 19.6953 10.128 19.9012 10.5208 20.2018C10.9136 20.5023 11.2318 20.8896 11.4504 21.3333C11.6691 21.777 11.7823 22.2652 11.7813 22.7598V26.7869C11.7813 27.6391 12.1199 28.4563 12.7224 29.0589C13.325 29.6615 14.1423 30 14.9944 30C17.0131 30.0015 19.0114 29.5953 20.8693 28.8059C22.7273 28.0164 24.4067 26.86 25.8069 25.4058C27.2071 23.9516 28.2992 22.2296 29.0178 20.3431C29.7364 18.4566 30.0667 16.4444 29.9888 14.4272C29.8334 10.6536 28.2647 7.07645 25.5941 4.40586C22.9235 1.73527 19.3464 0.166559 15.5728 0.0111589V0.0111589ZM24.2588 23.9058C23.0629 25.1579 21.6251 26.1539 20.0325 26.8333C18.4399 27.5126 16.7259 27.8612 14.9944 27.8579C14.7104 27.8579 14.4379 27.7451 14.2371 27.5442C14.0362 27.3434 13.9234 27.071 13.9234 26.7869V22.7598C13.9234 21.3396 13.3592 19.9775 12.3549 18.9732C11.3506 17.9689 9.98852 17.4047 8.56824 17.4047C8.08697 17.4055 7.60796 17.4704 7.14377 17.5975L5.94422 17.9295C5.49619 18.0496 5.02652 18.0648 4.57163 17.9741C4.11675 17.8834 3.68887 17.6891 3.32118 17.4064C2.95348 17.1236 2.65586 16.7599 2.45138 16.3436C2.2469 15.9273 2.14106 15.4694 2.14206 15.0056C2.14074 13.2746 2.48909 11.5611 3.16623 9.96808C3.84337 8.37501 4.83534 6.93515 6.08263 5.73488C7.32991 4.5346 8.8068 3.59866 10.4247 2.98319C12.0426 2.36772 13.7681 2.08542 15.4978 2.15322C18.7186 2.32097 21.7631 3.67587 24.0436 5.95639C26.3241 8.23692 27.679 11.2814 27.8468 14.5022C27.9205 16.2329 27.6403 17.9605 27.0234 19.5793C26.4065 21.198 25.4658 22.6739 24.2588 23.9165V23.9058Z" fill="#0C81D7"/>
</svg>
