<svg width="30" height="30" viewBox="0 0 30 30" fill="none" xmlns="http://www.w3.org/2000/svg">
<path d="M24.4681 8.01913C24.2796 8.01913 24.0989 7.94426 23.9656 7.81099C23.8323 7.67772 23.7574 7.49697 23.7574 7.3085V6.24255H22.6915C22.503 6.24255 22.3223 6.16768 22.189 6.03441C22.0557 5.90114 21.9809 5.72039 21.9809 5.53192C21.9809 5.34345 22.0557 5.1627 22.189 5.02943C22.3223 4.89616 22.503 4.82129 22.6915 4.82129H24.4681C24.6565 4.82129 24.8373 4.89616 24.9706 5.02943C25.1038 5.1627 25.1787 5.34345 25.1787 5.53192V7.3085C25.1787 7.49697 25.1038 7.67772 24.9706 7.81099C24.8373 7.94426 24.6565 8.01913 24.4681 8.01913Z" fill="#0C81D7"/>
<path d="M19.6148 6.24255H16.5381C16.3496 6.24255 16.1689 6.16768 16.0356 6.03441C15.9024 5.90114 15.8275 5.72039 15.8275 5.53192C15.8275 5.34345 15.9024 5.1627 16.0356 5.02943C16.1689 4.89616 16.3496 4.82129 16.5381 4.82129H19.6148C19.8033 4.82129 19.984 4.89616 20.1173 5.02943C20.2505 5.1627 20.3254 5.34345 20.3254 5.53192C20.3254 5.72039 20.2505 5.90114 20.1173 6.03441C19.984 6.16768 19.8033 6.24255 19.6148 6.24255Z" fill="#0C81D7"/>
<path d="M13.4615 6.24255H10.3848C10.1964 6.24255 10.0156 6.16768 9.88233 6.03441C9.74906 5.90114 9.67419 5.72039 9.67419 5.53192C9.67419 5.34345 9.74906 5.1627 9.88233 5.02943C10.0156 4.89616 10.1964 4.82129 10.3848 4.82129H13.4615C13.65 4.82129 13.8307 4.89616 13.964 5.02943C14.0973 5.1627 14.1721 5.34345 14.1721 5.53192C14.1721 5.72039 14.0973 5.90114 13.964 6.03441C13.8307 6.16768 13.65 6.24255 13.4615 6.24255Z" fill="#0C81D7"/>
<path d="M5.53189 8.01913C5.34342 8.01913 5.16267 7.94426 5.0294 7.81099C4.89613 7.67772 4.82126 7.49697 4.82126 7.3085V5.53192C4.82126 5.34345 4.89613 5.1627 5.0294 5.02943C5.16267 4.89616 5.34342 4.82129 5.53189 4.82129H7.30847C7.49694 4.82129 7.67769 4.89616 7.81096 5.02943C7.94423 5.1627 8.0191 5.34345 8.0191 5.53192C8.0191 5.72039 7.94423 5.90114 7.81096 6.03441C7.67769 6.16768 7.49694 6.24255 7.30847 6.24255H6.24252V7.3085C6.24252 7.49697 6.16765 7.67772 6.03438 7.81099C5.90111 7.94426 5.72036 8.01913 5.53189 8.01913Z" fill="#0C81D7"/>
<path d="M5.53189 20.3256C5.34342 20.3256 5.16267 20.2507 5.0294 20.1174C4.89613 19.9842 4.82126 19.8034 4.82126 19.6149V16.5383C4.82126 16.3498 4.89613 16.169 5.0294 16.0358C5.16267 15.9025 5.34342 15.8276 5.53189 15.8276C5.72036 15.8276 5.90111 15.9025 6.03438 16.0358C6.16765 16.169 6.24252 16.3498 6.24252 16.5383V19.6149C6.24252 19.8034 6.16765 19.9842 6.03438 20.1174C5.90111 20.2507 5.72036 20.3256 5.53189 20.3256Z" fill="#0C81D7"/>
<path d="M5.53189 14.172C5.34342 14.172 5.16267 14.0971 5.0294 13.9639C4.89613 13.8306 4.82126 13.6499 4.82126 13.4614V10.3847C4.82126 10.1962 4.89613 10.0155 5.0294 9.88221C5.16267 9.74894 5.34342 9.67407 5.53189 9.67407C5.72036 9.67407 5.90111 9.74894 6.03438 9.88221C6.16765 10.0155 6.24252 10.1962 6.24252 10.3847V13.4614C6.24252 13.6499 6.16765 13.8306 6.03438 13.9639C5.90111 14.0971 5.72036 14.172 5.53189 14.172Z" fill="#0C81D7"/>
<path d="M7.30847 25.1788H5.53189C5.34342 25.1788 5.16267 25.1039 5.0294 24.9707C4.89613 24.8374 4.82126 24.6566 4.82126 24.4682V22.6916C4.82126 22.5031 4.89613 22.3224 5.0294 22.1891C5.16267 22.0558 5.34342 21.981 5.53189 21.981C5.72036 21.981 5.90111 22.0558 6.03438 22.1891C6.16765 22.3224 6.24252 22.5031 6.24252 22.6916V23.7575H7.30847C7.49694 23.7575 7.67769 23.8324 7.81096 23.9657C7.94423 24.0989 8.0191 24.2797 8.0191 24.4682C8.0191 24.6566 7.94423 24.8374 7.81096 24.9707C7.67769 25.1039 7.49694 25.1788 7.30847 25.1788Z" fill="#0C81D7"/>
<path d="M19.6148 25.1788H16.5381C16.3496 25.1788 16.1689 25.104 16.0356 24.9707C15.9024 24.8374 15.8275 24.6567 15.8275 24.4682C15.8275 24.2797 15.9024 24.099 16.0356 23.9657C16.1689 23.8324 16.3496 23.7576 16.5381 23.7576H19.6148C19.8033 23.7576 19.984 23.8324 20.1173 23.9657C20.2505 24.099 20.3254 24.2797 20.3254 24.4682C20.3254 24.6567 20.2505 24.8374 20.1173 24.9707C19.984 25.104 19.8033 25.1788 19.6148 25.1788Z" fill="#0C81D7"/>
<path d="M13.4615 25.1788H10.3848C10.1964 25.1788 10.0156 25.104 9.88233 24.9707C9.74906 24.8374 9.67419 24.6567 9.67419 24.4682C9.67419 24.2797 9.74906 24.099 9.88233 23.9657C10.0156 23.8324 10.1964 23.7576 10.3848 23.7576H13.4615C13.65 23.7576 13.8307 23.8324 13.964 23.9657C14.0973 24.099 14.1721 24.2797 14.1721 24.4682C14.1721 24.6567 14.0973 24.8374 13.964 24.9707C13.8307 25.104 13.65 25.1788 13.4615 25.1788Z" fill="#0C81D7"/>
<path d="M24.4681 25.1788H22.6915C22.503 25.1788 22.3223 25.1039 22.189 24.9707C22.0557 24.8374 21.9809 24.6566 21.9809 24.4682C21.9809 24.2797 22.0557 24.0989 22.189 23.9657C22.3223 23.8324 22.503 23.7575 22.6915 23.7575H23.7574V22.6916C23.7574 22.5031 23.8323 22.3224 23.9656 22.1891C24.0989 22.0558 24.2796 21.981 24.4681 21.981C24.6565 21.981 24.8373 22.0558 24.9706 22.1891C25.1038 22.3224 25.1787 22.5031 25.1787 22.6916V24.4682C25.1787 24.6566 25.1038 24.8374 24.9706 24.9707C24.8373 25.1039 24.6565 25.1788 24.4681 25.1788Z" fill="#0C81D7"/>
<path d="M24.4681 20.3256C24.2796 20.3256 24.0989 20.2507 23.9656 20.1174C23.8323 19.9842 23.7574 19.8034 23.7574 19.6149V16.5383C23.7574 16.3498 23.8323 16.169 23.9656 16.0358C24.0989 15.9025 24.2796 15.8276 24.4681 15.8276C24.6565 15.8276 24.8373 15.9025 24.9706 16.0358C25.1038 16.169 25.1787 16.3498 25.1787 16.5383V19.6149C25.1787 19.8034 25.1038 19.9842 24.9706 20.1174C24.8373 20.2507 24.6565 20.3256 24.4681 20.3256Z" fill="#0C81D7"/>
<path d="M24.4681 14.172C24.2796 14.172 24.0989 14.0971 23.9656 13.9639C23.8323 13.8306 23.7574 13.6499 23.7574 13.4614V10.3847C23.7574 10.1962 23.8323 10.0155 23.9656 9.88221C24.0989 9.74894 24.2796 9.67407 24.4681 9.67407C24.6565 9.67407 24.8373 9.74894 24.9706 9.88221C25.1038 10.0155 25.1787 10.1962 25.1787 10.3847V13.4614C25.1787 13.6499 25.1038 13.8306 24.9706 13.9639C24.8373 14.0971 24.6565 14.172 24.4681 14.172Z" fill="#0C81D7"/>
<path d="M29.2894 30H0.710631C0.52216 30 0.341408 29.9251 0.208139 29.7919C0.0748698 29.6586 0 29.4778 0 29.2894V0.710631C0 0.52216 0.0748698 0.341408 0.208139 0.208139C0.341408 0.0748698 0.52216 0 0.710631 0H29.2894C29.4778 0 29.6586 0.0748698 29.7919 0.208139C29.9251 0.341408 30 0.52216 30 0.710631V29.2894C30 29.4778 29.9251 29.6586 29.7919 29.7919C29.6586 29.9251 29.4778 30 29.2894 30V30ZM1.42126 28.5787H28.5787V1.42126H1.42126V28.5787V28.5787Z" fill="#0C81D7"/>
</svg>
