<svg width="30" height="30" viewBox="0 0 30 30" fill="none" xmlns="http://www.w3.org/2000/svg">
<path d="M6 5.625C6 5.32663 6.11853 5.04048 6.3295 4.8295C6.54048 4.61853 6.82663 4.5 7.125 4.5H22.125C22.4234 4.5 22.7095 4.61853 22.9205 4.8295C23.1315 5.04048 23.25 5.32663 23.25 5.625V7.875C23.25 8.17337 23.1315 8.45952 22.9205 8.6705C22.7095 8.88147 22.4234 9 22.125 9C21.8266 9 21.5405 8.88147 21.3295 8.6705C21.1185 8.45952 21 8.17337 21 7.875V6.75H15.75V23.25H17.625C17.9234 23.25 18.2095 23.3685 18.4205 23.5795C18.6315 23.7905 18.75 24.0766 18.75 24.375C18.75 24.6734 18.6315 24.9595 18.4205 25.1705C18.2095 25.3815 17.9234 25.5 17.625 25.5H11.625C11.3266 25.5 11.0405 25.3815 10.8295 25.1705C10.6185 24.9595 10.5 24.6734 10.5 24.375C10.5 24.0766 10.6185 23.7905 10.8295 23.5795C11.0405 23.3685 11.3266 23.25 11.625 23.25H13.5V6.75H8.25V7.875C8.25 8.17337 8.13147 8.45952 7.9205 8.6705C7.70952 8.88147 7.42337 9 7.125 9C6.82663 9 6.54048 8.88147 6.3295 8.6705C6.11853 8.45952 6 8.17337 6 7.875V5.625Z" fill="#0C81D7"/>
</svg>
