<svg width="123" height="30" viewBox="0 0 123 30" fill="none" xmlns="http://www.w3.org/2000/svg">
<path d="M36.54 16.04C37 16.04 37.33 16.14 37.53 16.34C37.75 16.54 37.86 16.8 37.86 17.12C37.86 17.64 37.7 18.1 37.38 18.5C37.08 18.9 36.6 19.11 35.94 19.13C34.36 19.15 32.94 19.03 31.68 18.77C30.28 21.75 28.59 24.23 26.61 26.21C24.65 28.17 22.71 29.15 20.79 29.15C19.03 29.15 17.71 28.22 16.83 26.36C15.95 24.48 15.45 21.97 15.33 18.83C14.13 22.31 12.77 24.9 11.25 26.6C9.75 28.3 8.15 29.15 6.45 29.15C4.53 29.15 3.08 27.96 2.1 25.58C1.12 23.18 0.63 19.96 0.63 15.92C0.63 12.98 0.89 9.75 1.41 6.23C1.55 5.23 1.8 4.54 2.16 4.16C2.54 3.76 3.13 3.56 3.93 3.56C4.53 3.56 4.99 3.69 5.31 3.95C5.65 4.21 5.82 4.69 5.82 5.39C5.82 5.53 5.8 5.8 5.76 6.2C5.16 10.3 4.86 13.79 4.86 16.67C4.86 19.35 5.09 21.42 5.55 22.88C6.01 24.34 6.63 25.07 7.41 25.07C8.11 25.07 8.95 24.34 9.93 22.88C10.93 21.4 11.92 19.22 12.9 16.34C13.88 13.44 14.71 9.99 15.39 5.99C15.55 5.07 15.84 4.44 16.26 4.1C16.7 3.74 17.29 3.56 18.03 3.56C18.65 3.56 19.1 3.7 19.38 3.98C19.68 4.24 19.83 4.64 19.83 5.18C19.83 5.5 19.81 5.75 19.77 5.93C19.21 9.19 18.93 12.45 18.93 15.71C18.93 17.93 19 19.7 19.14 21.02C19.3 22.34 19.59 23.35 20.01 24.05C20.45 24.73 21.08 25.07 21.9 25.07C22.86 25.07 23.93 24.35 25.11 22.91C26.29 21.45 27.37 19.64 28.35 17.48C27.13 16.72 26.21 15.74 25.59 14.54C24.97 13.32 24.66 11.92 24.66 10.34C24.66 8.76 24.9 7.43 25.38 6.35C25.88 5.25 26.55 4.43 27.39 3.89C28.25 3.35 29.2 3.08 30.24 3.08C31.52 3.08 32.53 3.54 33.27 4.46C34.03 5.38 34.41 6.64 34.41 8.24C34.41 10.5 33.92 13.01 32.94 15.77C33.96 15.95 35.16 16.04 36.54 16.04ZM27.69 10.13C27.69 12.09 28.32 13.54 29.58 14.48C30.36 12.24 30.75 10.39 30.75 8.93C30.75 8.09 30.64 7.48 30.42 7.1C30.2 6.7 29.9 6.5 29.52 6.5C28.98 6.5 28.54 6.82 28.2 7.46C27.86 8.08 27.69 8.97 27.69 10.13ZM48.3239 22.31C48.5839 22.31 48.7839 22.43 48.9239 22.67C49.0839 22.91 49.1639 23.24 49.1639 23.66C49.1639 24.46 48.9739 25.08 48.5939 25.52C47.8539 26.42 46.8039 27.25 45.4439 28.01C44.1039 28.77 42.6639 29.15 41.1239 29.15C39.0239 29.15 37.3939 28.58 36.2339 27.44C35.0739 26.3 34.4939 24.74 34.4939 22.76C34.4939 21.38 34.7839 20.1 35.3639 18.92C35.9439 17.72 36.7439 16.77 37.7639 16.07C38.8039 15.37 39.9739 15.02 41.2739 15.02C42.4339 15.02 43.3639 15.37 44.0639 16.07C44.7639 16.75 45.1139 17.68 45.1139 18.86C45.1139 20.24 44.6139 21.43 43.6139 22.43C42.6339 23.41 40.9639 24.19 38.6039 24.77C39.1039 25.69 40.0539 26.15 41.4539 26.15C42.3539 26.15 43.3739 25.84 44.5139 25.22C45.6739 24.58 46.6739 23.75 47.5139 22.73C47.7539 22.45 48.0239 22.31 48.3239 22.31ZM40.7639 17.96C40.0239 17.96 39.3939 18.39 38.8739 19.25C38.3739 20.11 38.1239 21.15 38.1239 22.37V22.43C39.3039 22.15 40.2339 21.73 40.9139 21.17C41.5939 20.61 41.9339 19.96 41.9339 19.22C41.9339 18.84 41.8239 18.54 41.6039 18.32C41.4039 18.08 41.1239 17.96 40.7639 17.96ZM58.0913 22.31C58.3513 22.31 58.5513 22.43 58.6913 22.67C58.8513 22.91 58.9313 23.24 58.9313 23.66C58.9313 24.46 58.7413 25.08 58.3613 25.52C57.5013 26.58 56.5613 27.45 55.5413 28.13C54.5413 28.81 53.4013 29.15 52.1213 29.15C50.3613 29.15 49.0513 28.35 48.1913 26.75C47.3513 25.15 46.9313 23.08 46.9313 20.54C46.9313 18.1 47.2413 15.32 47.8613 12.2C48.5013 9.08 49.4313 6.4 50.6513 4.16C51.8913 1.92 53.3613 0.799998 55.0613 0.799998C56.0213 0.799998 56.7713 1.25 57.3113 2.15C57.8713 3.03 58.1513 4.3 58.1513 5.96C58.1513 8.34 57.4913 11.1 56.1713 14.24C54.8513 17.38 53.0613 20.49 50.8013 23.57C50.9413 24.39 51.1713 24.98 51.4913 25.34C51.8113 25.68 52.2313 25.85 52.7513 25.85C53.5713 25.85 54.2913 25.62 54.9113 25.16C55.5313 24.68 56.3213 23.87 57.2813 22.73C57.5213 22.45 57.7913 22.31 58.0913 22.31ZM54.4013 3.77C53.9413 3.77 53.4213 4.6 52.8413 6.26C52.2613 7.92 51.7513 9.98 51.3113 12.44C50.8713 14.9 50.6313 17.26 50.5913 19.52C52.0113 17.18 53.1413 14.84 53.9813 12.5C54.8213 10.14 55.2413 7.99 55.2413 6.05C55.2413 4.53 54.9613 3.77 54.4013 3.77ZM62.2364 29.15C60.2764 29.15 58.7464 28.6 57.6464 27.5C56.5664 26.38 56.0264 24.91 56.0264 23.09C56.0264 21.47 56.3464 20.05 56.9864 18.83C57.6264 17.61 58.4564 16.67 59.4764 16.01C60.4964 15.35 61.5664 15.02 62.6864 15.02C63.7864 15.02 64.6364 15.35 65.2364 16.01C65.8564 16.65 66.1664 17.48 66.1664 18.5C66.1664 19.34 65.9764 20.05 65.5964 20.63C65.2364 21.21 64.7564 21.5 64.1564 21.5C63.7764 21.5 63.4664 21.41 63.2264 21.23C63.0064 21.05 62.8964 20.8 62.8964 20.48C62.8964 20.34 62.9164 20.18 62.9564 20C62.9964 19.82 63.0264 19.69 63.0464 19.61C63.1464 19.31 63.1964 19.03 63.1964 18.77C63.1964 18.51 63.1264 18.31 62.9864 18.17C62.8664 18.03 62.6864 17.96 62.4464 17.96C61.9864 17.96 61.5564 18.17 61.1564 18.59C60.7564 18.99 60.4364 19.54 60.1964 20.24C59.9564 20.94 59.8364 21.71 59.8364 22.55C59.8364 24.87 60.8464 26.03 62.8664 26.03C63.6864 26.03 64.5664 25.76 65.5064 25.22C66.4664 24.66 67.4064 23.83 68.3264 22.73C68.5664 22.45 68.8364 22.31 69.1364 22.31C69.3964 22.31 69.5964 22.43 69.7364 22.67C69.8964 22.91 69.9764 23.24 69.9764 23.66C69.9764 24.42 69.7864 25.04 69.4064 25.52C68.4664 26.68 67.3364 27.58 66.0164 28.22C64.7164 28.84 63.4564 29.15 62.2364 29.15ZM82.8513 19.79C83.1113 19.79 83.3113 19.92 83.4513 20.18C83.5913 20.44 83.6613 20.77 83.6613 21.17C83.6613 22.13 83.3713 22.7 82.7913 22.88C81.5913 23.3 80.2713 23.54 78.8313 23.6C78.4513 25.28 77.7013 26.63 76.5813 27.65C75.4613 28.65 74.1913 29.15 72.7713 29.15C71.5713 29.15 70.5413 28.86 69.6813 28.28C68.8413 27.7 68.2013 26.93 67.7613 25.97C67.3213 25.01 67.1013 23.97 67.1013 22.85C67.1013 21.33 67.3913 19.98 67.9713 18.8C68.5513 17.6 69.3513 16.67 70.3713 16.01C71.3913 15.33 72.5213 14.99 73.7613 14.99C75.2813 14.99 76.5013 15.52 77.4213 16.58C78.3613 17.62 78.9113 18.91 79.0713 20.45C80.0113 20.39 81.1313 20.19 82.4313 19.85C82.5913 19.81 82.7313 19.79 82.8513 19.79ZM73.0113 25.97C73.6513 25.97 74.2013 25.71 74.6613 25.19C75.1413 24.67 75.4613 23.92 75.6213 22.94C75.0013 22.52 74.5213 21.97 74.1813 21.29C73.8613 20.61 73.7013 19.89 73.7013 19.13C73.7013 18.81 73.7313 18.49 73.7913 18.17H73.6413C72.8413 18.17 72.1713 18.56 71.6313 19.34C71.1113 20.1 70.8513 21.18 70.8513 22.58C70.8513 23.68 71.0613 24.52 71.4813 25.1C71.9213 25.68 72.4313 25.97 73.0113 25.97ZM83.2165 29.15C82.4565 29.15 81.9165 28.75 81.5965 27.95C81.2965 27.15 81.1465 25.87 81.1465 24.11C81.1465 21.51 81.5165 19.04 82.2565 16.7C82.4365 16.12 82.7265 15.7 83.1265 15.44C83.5465 15.16 84.1265 15.02 84.8665 15.02C85.2665 15.02 85.5465 15.07 85.7065 15.17C85.8665 15.27 85.9465 15.46 85.9465 15.74C85.9465 16.06 85.7965 16.78 85.4965 17.9C85.2965 18.7 85.1365 19.4 85.0165 20C84.8965 20.58 84.7965 21.31 84.7165 22.19C85.2565 20.63 85.8965 19.31 86.6365 18.23C87.3965 17.15 88.1665 16.35 88.9465 15.83C89.7465 15.29 90.4965 15.02 91.1965 15.02C91.8965 15.02 92.3865 15.18 92.6665 15.5C92.9665 15.82 93.1165 16.31 93.1165 16.97C93.1165 17.61 92.9265 18.77 92.5465 20.45C92.3865 21.17 92.2765 21.71 92.2165 22.07C93.2165 19.61 94.3265 17.82 95.5465 16.7C96.7665 15.58 97.9065 15.02 98.9665 15.02C100.266 15.02 100.916 15.67 100.916 16.97C100.916 17.75 100.696 19.16 100.256 21.2C99.8765 22.94 99.6865 24.09 99.6865 24.65C99.6865 25.45 99.9765 25.85 100.556 25.85C100.956 25.85 101.426 25.61 101.966 25.13C102.526 24.63 103.266 23.83 104.186 22.73C104.426 22.45 104.696 22.31 104.996 22.31C105.256 22.31 105.456 22.43 105.596 22.67C105.756 22.91 105.836 23.24 105.836 23.66C105.836 24.46 105.646 25.08 105.266 25.52C104.406 26.58 103.476 27.45 102.476 28.13C101.496 28.81 100.376 29.15 99.1165 29.15C98.0965 29.15 97.3265 28.86 96.8065 28.28C96.2865 27.68 96.0265 26.82 96.0265 25.7C96.0265 25.14 96.1665 24.14 96.4465 22.7C96.7065 21.44 96.8365 20.57 96.8365 20.09C96.8365 19.77 96.7265 19.61 96.5065 19.61C96.2465 19.61 95.8765 19.95 95.3965 20.63C94.9165 21.29 94.4365 22.17 93.9565 23.27C93.4765 24.37 93.0865 25.53 92.7865 26.75C92.5665 27.71 92.3065 28.35 92.0065 28.67C91.7265 28.99 91.2665 29.15 90.6265 29.15C89.9665 29.15 89.4665 28.84 89.1265 28.22C88.8065 27.58 88.6465 26.81 88.6465 25.91C88.6465 25.15 88.7465 24.05 88.9465 22.61C89.1065 21.33 89.1865 20.49 89.1865 20.09C89.1865 19.77 89.0765 19.61 88.8565 19.61C88.5565 19.61 88.1765 19.97 87.7165 20.69C87.2565 21.41 86.8065 22.33 86.3665 23.45C85.9465 24.57 85.6065 25.67 85.3465 26.75C85.1265 27.69 84.8665 28.33 84.5665 28.67C84.2865 28.99 83.8365 29.15 83.2165 29.15ZM114.151 23.21C114.411 23.21 114.611 23.33 114.751 23.57C114.911 23.81 114.991 24.14 114.991 24.56C114.991 25.28 114.821 25.9 114.481 26.42C113.921 27.28 113.181 27.95 112.261 28.43C111.361 28.91 110.281 29.15 109.021 29.15C107.101 29.15 105.611 28.58 104.551 27.44C103.491 26.28 102.961 24.72 102.961 22.76C102.961 21.38 103.251 20.1 103.831 18.92C104.411 17.72 105.211 16.77 106.231 16.07C107.271 15.37 108.441 15.02 109.741 15.02C110.901 15.02 111.831 15.37 112.531 16.07C113.231 16.75 113.581 17.68 113.581 18.86C113.581 20.24 113.081 21.43 112.081 22.43C111.101 23.41 109.421 24.19 107.041 24.77C107.521 25.69 108.331 26.15 109.471 26.15C110.291 26.15 110.961 25.96 111.481 25.58C112.021 25.2 112.641 24.56 113.341 23.66C113.581 23.36 113.851 23.21 114.151 23.21ZM109.231 17.96C108.491 17.96 107.861 18.39 107.341 19.25C106.841 20.11 106.591 21.15 106.591 22.37V22.43C107.771 22.15 108.701 21.73 109.381 21.17C110.061 20.61 110.401 19.96 110.401 19.22C110.401 18.84 110.291 18.54 110.071 18.32C109.871 18.08 109.591 17.96 109.231 17.96ZM119.162 29.15C118.282 29.15 117.612 28.91 117.152 28.43C116.712 27.95 116.492 27.32 116.492 26.54C116.492 25.64 116.742 24.92 117.242 24.38C117.762 23.84 118.482 23.57 119.402 23.57C120.282 23.57 120.942 23.79 121.382 24.23C121.842 24.65 122.072 25.28 122.072 26.12C122.072 27.04 121.812 27.78 121.292 28.34C120.772 28.88 120.062 29.15 119.162 29.15Z" fill="url(#paint0_linear)"/>
<defs>
<linearGradient id="paint0_linear" x1="-3" y1="-10" x2="34.6748" y2="80.2774" gradientUnits="userSpaceOnUse">
<stop stop-color="#D3274E"/>
<stop offset="1" stop-color="#334DA3"/>
</linearGradient>
</defs>
</svg>
